M48
; DRILL file {KiCad 9.0.2+dfsg-1} date 2026-09-04T21:21:01-0700
; FORMAT={-:-/ absolute / inch / decimal}
; #@! TF.CreationDate,2026-09-04T21:21:01-07:00
; #@! TF.GenerationSoftware,Kicad,Pcbnew,9.0.2+dfsg-1
; #@! TF.FileFunction,Plated,1,4,PTH
FMAT,2
INCH
; #@! TA.AperFunction,Plated,PTH,ViaDrill
T1C0.0200
; #@! TA.AperFunction,Plated,PTH,ComponentDrill
T2C0.0217
; #@! TA.AperFunction,Plated,PTH,ViaDrill
T3C0.0230
; #@! TA.AperFunction,Plated,PTH,ComponentDrill
T4C0.0315
; #@! TA.AperFunction,Plated,PTH,ComponentDrill
T5C0.0394
; #@! TA.AperFunction,Plated,PTH,ComponentDrill
T6C0.0512
; #@! TA.AperFunction,Plated,PTH,ComponentDrill
T7C0.1575
%
G90
G05
T1
X1.6229Y-4.3835
X1.6622Y-2.0407
X1.8253Y-2.3436
X1.8429Y-2.185
X1.8907Y-1.9772
X1.9564Y-4.3512
X2.0534Y-2.422
X2.0646Y-2.2445
X2.0799Y-2.1808
X2.1109Y-5.77
X2.2267Y-2.7958
X2.2673Y-2.7462
X2.2839Y-1.5995
X2.343Y-1.5676
X2.375Y-5.71
X2.383Y-2.7215
X2.445Y-5.775
X2.449Y-3.5585
X2.5245Y-2.8966
X2.5892Y-2.2871
X2.5967Y-2.8275
X2.6278Y-2.2503
X2.6552Y-1.6315
X2.6605Y-4.4288
X2.7148Y-2.3112
X2.7177Y-2.0302
X2.7517Y-3.0808
X2.764Y-2.8481
X2.8093Y-3.0222
X2.8181Y-3.4896
X2.8367Y-2.0939
X2.8609Y-3.2593
X2.869Y-2.6654
X2.8699Y-2.3678
X2.8891Y-2.021
X2.8929Y-2.8156
X2.8929Y-3.0466
X2.8952Y-3.1436
X2.9385Y-4.759
X3.0Y-5.775
X3.0048Y-2.8319
X3.0558Y-2.1552
X3.065Y-2.5261
X3.0879Y-2.6239
X3.1179Y-1.8127
X3.125Y-5.775
X3.1306Y-4.8525
X3.175Y-3.1184
X3.1988Y-4.9133
X3.226Y-4.8198
X3.2271Y-2.8486
X3.246Y-1.9815
X3.25Y-5.775
X3.2542Y-2.2335
X3.2623Y-3.0466
X3.2738Y-3.4188
X3.3278Y-4.3023
X3.3408Y-3.6974
X3.3509Y-2.4514
X3.3721Y-3.0784
X3.375Y-5.775
X3.3895Y-2.1078
X3.411Y-2.5815
X3.4163Y-2.9308
X3.4206Y-5.2259
X3.437Y-2.1552
X3.4421Y-5.0462
X3.4796Y-2.2293
X3.5Y-5.775
X3.5339Y-5.6961
X3.5414Y-3.0255
X3.555Y-5.775
X3.598Y-4.3729
X3.625Y-5.775
X3.6266Y-2.6428
X3.6585Y-2.8845
X3.7136Y-2.4143
X3.7441Y-5.0955
X3.7521Y-4.9364
X3.7798Y-2.0533
X3.7983Y-5.775
X3.8012Y-2.7693
X3.8155Y-2.1285
X3.8634Y-2.2321
X3.8739Y-2.7534
X3.8746Y-5.0106
X3.8857Y-4.2568
X3.8978Y-5.6278
X4.0Y-5.775
X4.0461Y-3.0762
X4.125Y-5.77
X4.1287Y-5.2265
X4.1744Y-3.0084
X4.1767Y-2.7693
X4.25Y-5.775
X4.2825Y-4.88
X4.3297Y-4.1463
X4.3658Y-2.7295
X4.375Y-5.775
X4.3838Y-5.13
X4.4026Y-2.2815
X4.4247Y-4.5106
X4.4289Y-3.9499
X4.4849Y-5.03
X4.4913Y-3.9
X4.5Y-5.7
X4.5394Y-3.261
X4.5461Y-4.3188
X4.6131Y-1.7033
X4.6204Y-3.578
X4.6283Y-2.8336
X4.678Y-4.4839
X4.7087Y-3.3641
X4.7165Y-4.3696
X4.75Y-5.775
X4.754Y-2.7372
X4.7782Y-2.3596
X4.7952Y-1.7033
X4.82Y-5.775
X4.875Y-5.775
X4.93Y-5.775
X4.9728Y-4.68
X4.9782Y-3.87
X4.986Y-2.7135
X5.01Y-4.4512
X5.0281Y-2.6632
X5.045Y-5.775
X5.0526Y-2.8017
X5.0626Y-5.704
X5.0758Y-2.6818
X5.079Y-4.5162
X5.1188Y-5.6334
X5.125Y-5.775
X5.1286Y-1.8815
X5.175Y-5.775
X5.2317Y-2.8412
X5.25Y-5.775
X5.2622Y-2.8944
X5.2709Y-2.6035
X5.3043Y-2.3815
X5.305Y-2.1096
X5.305Y-5.775
X5.3253Y-2.2815
X5.3303Y-3.2794
X5.3371Y-2.5392
X5.3388Y-2.6616
X5.3863Y-2.5556
X5.4038Y-3.0762
X5.41Y-1.9315
X5.425Y-5.775
X5.451Y-2.8556
X5.555Y-5.775
X5.5912Y-1.4263
X5.595Y-2.6465
X5.625Y-5.775
X5.6398Y-2.7743
X5.6474Y-4.4493
X5.6594Y-1.1315
X5.6727Y-3.9609
X5.68Y-5.775
X5.6998Y-5.1312
X5.7317Y-2.3946
X5.7372Y-2.7757
X5.738Y-2.2083
X5.75Y-5.775
X5.7523Y-2.5564
X5.805Y-5.775
X5.8228Y-5.4289
X5.8247Y-4.481
X5.8282Y-3.5671
X5.875Y-5.775
X5.8828Y-2.9312
X5.8962Y-3.3691
X5.9147Y-3.454
X5.93Y-5.775
X5.9364Y-4.2846
X5.9458Y-4.536
X5.9616Y-2.852
X6.0Y-5.775
X6.0036Y-4.3662
X6.0093Y-4.93
X6.0363Y-3.8618
X6.05Y-5.775
X6.0802Y-5.2353
X6.0831Y-2.6415
X6.0869Y-4.1203
X6.0919Y-2.5117
X6.125Y-5.775
X6.1257Y-3.4001
X6.1446Y-4.5043
X6.1467Y-4.4056
X6.151Y-3.579
X6.153Y-2.8809
X6.1542Y-2.7056
X6.1543Y-3.5246
X6.185Y-5.775
X6.1885Y-5.1312
X6.2465Y-5.03
X6.25Y-5.775
X6.2751Y-1.3872
X6.3017Y-4.73
X6.31Y-5.775
X6.3274Y-5.38
X6.3578Y-4.782
X6.375Y-5.775
X6.435Y-5.775
X6.4545Y-3.3842
X6.4764Y-4.4293
X6.4771Y-2.6057
X6.4777Y-2.7218
X6.5Y-5.775
X6.5004Y-5.2083
X6.5045Y-2.1255
X6.5325Y-4.98
X6.542Y-4.7287
X6.555Y-5.775
X6.5738Y-4.536
X6.5788Y-5.6614
X6.6003Y-3.8935
X6.625Y-5.775
X6.68Y-5.775
X6.7131Y-4.7661
X6.7133Y-2.7052
X6.7288Y-3.762
X6.7415Y-4.1638
X6.75Y-5.775
X6.7608Y-2.6903
X6.7796Y-4.2308
X6.805Y-5.775
X6.875Y-5.775
X6.876Y-2.8331
X6.9017Y-4.4204
X6.9059Y-2.9169
X6.93Y-5.775
X6.9467Y-4.3528
X6.9542Y-3.0757
X6.9627Y-3.1445
X7.0Y-5.775
X7.0112Y-4.553
X7.055Y-5.775
X7.07Y-2.3834
X7.0928Y-5.1364
X7.0953Y-4.402
X7.0975Y-4.1298
X7.1087Y-4.1903
X7.1138Y-3.923
X7.125Y-5.775
X7.1482Y-4.0882
X7.1517Y-5.6835
X7.18Y-5.775
X7.182Y-2.7982
X7.1839Y-3.8027
X7.2199Y-4.2225
X7.2294Y-2.7982
X7.236Y-4.1418
X7.2439Y-4.8717
X7.25Y-5.775
X7.2839Y-2.0745
X7.305Y-5.775
X7.3222Y-2.6734
X7.3333Y-2.7738
X7.335Y-5.7251
X7.3365Y-5.1693
X7.3506Y-4.9301
X7.375Y-5.775
X7.3934Y-2.7575
X7.414Y-4.33
X7.4202Y-4.1586
X7.4254Y-2.8562
X7.43Y-5.775
X7.4694Y-3.8344
X7.5Y-5.775
X7.5219Y-3.576
X7.5352Y-4.1425
X7.5467Y-5.4105
X7.5513Y-4.7249
X7.5516Y-4.5832
X7.555Y-5.775
X7.5594Y-4.0629
X7.5808Y-5.0954
X7.5834Y-4.7955
X7.587Y-5.48
X7.5873Y-3.8913
X7.6055Y-2.9421
X7.6092Y-4.5137
X7.625Y-5.775
X7.6377Y-2.4257
X7.6714Y-3.2338
X7.6799Y-4.3782
X7.685Y-5.775
X7.6951Y-3.8489
X7.6964Y-2.9627
X7.7123Y-4.4582
X7.75Y-5.775
X7.767Y-4.83
X7.805Y-5.775
X7.8103Y-3.698
X7.875Y-5.775
X7.9051Y-3.618
X7.9068Y-3.3683
X7.9223Y-4.2546
X7.93Y-5.775
X7.9371Y-2.6892
X7.9377Y-3.2666
X8.0Y-5.775
X8.0674Y-5.036
X8.13Y-4.41
X8.2225Y-3.6287
X8.27Y-5.7
X8.4204Y-2.7041
X8.4391Y-3.3364
X8.6372Y-5.2182
X8.7652Y-2.7899
X8.78Y-2.1887
X8.8358Y-2.8217
X9.0053Y-3.5176
X9.9955Y-3.6494
X10.2162Y-3.5412
T2
X6.6Y-3.845
X6.65Y-3.845
X6.7Y-3.845
T3
X7.095Y-5.23
T4
X0.685Y-3.4
X0.695Y-3.19
X0.695Y-3.62
X0.7949Y-5.4823
X0.8949Y-5.4823
X0.985Y-3.4
X0.9949Y-5.4823
X0.995Y-3.19
X0.995Y-3.62
X1.04Y-1.875
X1.04Y-1.975
X1.04Y-2.075
X1.04Y-2.175
X1.04Y-2.275
X1.04Y-2.375
X1.04Y-2.475
X1.04Y-2.575
X1.14Y-1.875
X1.14Y-1.975
X1.14Y-2.075
X1.14Y-2.175
X1.14Y-2.275
X1.14Y-2.375
X1.14Y-2.475
X1.14Y-2.575
X1.24Y-1.875
X1.24Y-1.975
X1.24Y-2.075
X1.24Y-2.175
X1.24Y-2.275
X1.24Y-2.375
X1.24Y-2.475
X1.24Y-2.575
X1.4673Y-1.685
X1.4673Y-1.785
X1.4673Y-1.885
X1.4673Y-1.985
X1.4673Y-2.085
X1.4673Y-2.185
X1.4673Y-2.285
X1.4673Y-2.385
X1.4673Y-2.485
X1.4673Y-2.585
X1.56Y-1.445
X1.66Y-1.445
X1.7673Y-1.685
X1.7673Y-1.785
X1.7673Y-1.885
X1.7673Y-1.985
X1.7673Y-2.085
X1.7673Y-2.185
X1.7673Y-2.285
X1.7673Y-2.385
X1.7673Y-2.485
X1.7673Y-2.585
X1.7998Y-3.545
X1.9873Y-1.685
X1.9873Y-1.785
X1.9873Y-1.885
X1.9873Y-1.985
X1.9873Y-2.085
X1.9873Y-2.185
X1.9873Y-2.285
X1.9873Y-2.385
X1.9873Y-2.485
X1.9873Y-2.585
X1.99Y-3.545
X2.07Y-1.445
X2.125Y-3.785
X2.17Y-1.445
X2.225Y-3.785
X2.2873Y-1.685
X2.2873Y-1.785
X2.2873Y-1.885
X2.2873Y-1.985
X2.2873Y-2.085
X2.2873Y-2.185
X2.2873Y-2.285
X2.2873Y-2.385
X2.2873Y-2.485
X2.2873Y-2.585
X2.4773Y-1.685
X2.4773Y-1.785
X2.4773Y-1.885
X2.4773Y-1.985
X2.4773Y-2.085
X2.4773Y-2.185
X2.4773Y-2.285
X2.4773Y-2.385
X2.4773Y-2.485
X2.4773Y-2.585
X2.5Y-3.3
X2.5Y-3.4
X2.5Y-3.5
X2.5Y-3.6
X2.5Y-3.7
X2.5Y-3.8
X2.5Y-3.9
X2.5Y-4.0
X2.5Y-4.1
X2.55Y-1.445
X2.6Y-3.2
X2.6Y-3.3
X2.6Y-3.4
X2.6Y-3.5
X2.6Y-3.6
X2.6Y-3.7
X2.6Y-3.8
X2.6Y-3.9
X2.6Y-4.0
X2.6Y-4.1
X2.6Y-4.2
X2.6311Y-1.1811
X2.65Y-1.445
X2.665Y-4.58
X2.7Y-3.2
X2.7Y-3.3
X2.7Y-4.1
X2.7Y-4.2
X2.7311Y-1.1811
X2.765Y-4.58
X2.7773Y-1.685
X2.7773Y-1.785
X2.7773Y-1.885
X2.7773Y-1.985
X2.7773Y-2.085
X2.7773Y-2.185
X2.7773Y-2.285
X2.7773Y-2.385
X2.7773Y-2.485
X2.7773Y-2.585
X2.8Y-3.2
X2.8Y-3.3
X2.8Y-4.1
X2.8Y-4.2
X2.9Y-3.2
X2.9Y-3.3
X2.9Y-4.1
X2.9Y-4.2
X2.9803Y-1.0815
X2.9803Y-1.1815
X2.9803Y-1.2815
X2.9803Y-1.3815
X2.9803Y-1.4815
X2.9803Y-1.5815
X2.9803Y-1.6815
X2.9803Y-1.7815
X2.9803Y-1.8815
X2.9803Y-1.9815
X2.9803Y-2.0815
X2.9803Y-2.1815
X2.9803Y-2.2815
X2.9803Y-2.3815
X2.9803Y-2.4815
X2.9803Y-2.5815
X3.0Y-3.2
X3.0Y-3.3
X3.0Y-4.1
X3.0Y-4.2
X3.0002Y-4.58
X3.0002Y-4.68
X3.0002Y-4.78
X3.0002Y-4.88
X3.0002Y-4.98
X3.0002Y-5.08
X3.0002Y-5.18
X3.0002Y-5.28
X3.0002Y-5.38
X3.0002Y-5.48
X3.1Y-3.2
X3.1Y-3.3
X3.1Y-4.1
X3.1Y-4.2
X3.2Y-3.2
X3.2Y-3.3
X3.2Y-4.1
X3.2Y-4.2
X3.3Y-3.2
X3.3Y-3.3
X3.3Y-4.1
X3.3Y-4.2
X3.3002Y-4.58
X3.3002Y-4.68
X3.3002Y-4.78
X3.3002Y-4.88
X3.3002Y-4.98
X3.3002Y-5.08
X3.3002Y-5.18
X3.3002Y-5.28
X3.3002Y-5.38
X3.3002Y-5.48
X3.4Y-3.2
X3.4Y-3.3
X3.4Y-3.4
X3.4Y-3.5
X3.4Y-3.6
X3.4Y-3.7
X3.4Y-3.8
X3.4Y-3.9
X3.4Y-4.0
X3.4Y-4.1
X3.4Y-4.2
X3.5Y-3.3
X3.5Y-3.4
X3.5Y-3.5
X3.5Y-3.6
X3.5Y-3.7
X3.5Y-3.8
X3.5Y-3.9
X3.5Y-4.0
X3.5Y-4.1
X3.5213Y-4.58
X3.5213Y-4.68
X3.5213Y-4.78
X3.5213Y-4.88
X3.5213Y-4.98
X3.5213Y-5.08
X3.5213Y-5.18
X3.5213Y-5.28
X3.5213Y-5.38
X3.5213Y-5.48
X3.5803Y-1.0815
X3.5803Y-1.1815
X3.5803Y-1.2815
X3.5803Y-1.3815
X3.5803Y-1.4815
X3.5803Y-1.5815
X3.5803Y-1.6815
X3.5803Y-1.7815
X3.5803Y-1.8815
X3.5803Y-1.9815
X3.5803Y-2.0815
X3.5803Y-2.1815
X3.5803Y-2.2815
X3.5803Y-2.3815
X3.5803Y-2.4815
X3.5803Y-2.5815
X3.702Y-1.5748
X3.802Y-1.5748
X3.82Y-3.69
X3.8213Y-4.58
X3.8213Y-4.68
X3.8213Y-4.78
X3.8213Y-4.88
X3.8213Y-4.98
X3.8213Y-5.08
X3.8213Y-5.18
X3.8213Y-5.28
X3.8213Y-5.38
X3.8213Y-5.48
X3.92Y-3.69
X3.9252Y-1.0815
X3.9252Y-1.1815
X3.9252Y-1.2815
X3.9252Y-1.3815
X3.9252Y-1.4815
X3.9252Y-1.5815
X3.9252Y-1.6815
X3.9252Y-1.7815
X3.9252Y-1.8815
X3.9252Y-1.9815
X3.9252Y-2.0815
X3.9252Y-2.1815
X3.9252Y-2.2815
X3.9252Y-2.3815
X3.9252Y-2.4815
X3.9252Y-2.5815
X4.0424Y-4.78
X4.0424Y-4.88
X4.0424Y-4.98
X4.0424Y-5.08
X4.0424Y-5.18
X4.0424Y-5.28
X4.0424Y-5.38
X4.0424Y-5.48
X4.16Y-4.495
X4.26Y-4.495
X4.3424Y-4.78
X4.3424Y-4.88
X4.3424Y-4.98
X4.3424Y-5.08
X4.3424Y-5.18
X4.3424Y-5.28
X4.3424Y-5.38
X4.3424Y-5.48
X4.3594Y-3.622
X4.4594Y-3.622
X4.5252Y-1.0815
X4.5252Y-1.1815
X4.5252Y-1.2815
X4.5252Y-1.3815
X4.5252Y-1.4815
X4.5252Y-1.5815
X4.5252Y-1.6815
X4.5252Y-1.7815
X4.5252Y-1.8815
X4.5252Y-1.9815
X4.5252Y-2.0815
X4.5252Y-2.1815
X4.5252Y-2.2815
X4.5252Y-2.3815
X4.5252Y-2.4815
X4.5252Y-2.5815
X4.5635Y-4.58
X4.5635Y-4.68
X4.5635Y-4.78
X4.5635Y-4.88
X4.5635Y-4.98
X4.5635Y-5.08
X4.5635Y-5.18
X4.5635Y-5.28
X4.5635Y-5.38
X4.5635Y-5.48
X4.6469Y-1.5748
X4.7469Y-1.5748
X4.76Y-3.12
X4.76Y-3.22
X4.76Y-3.32
X4.76Y-3.42
X4.76Y-3.52
X4.76Y-3.62
X4.76Y-3.72
X4.76Y-3.82
X4.76Y-3.92
X4.76Y-4.02
X4.76Y-4.12
X4.86Y-3.02
X4.86Y-3.12
X4.86Y-3.22
X4.86Y-3.32
X4.86Y-3.42
X4.86Y-3.52
X4.86Y-3.62
X4.86Y-3.72
X4.86Y-3.82
X4.86Y-3.92
X4.86Y-4.02
X4.86Y-4.12
X4.86Y-4.22
X4.8635Y-4.58
X4.8635Y-4.68
X4.8635Y-4.78
X4.8635Y-4.88
X4.8635Y-4.98
X4.8635Y-5.08
X4.8635Y-5.18
X4.8635Y-5.28
X4.8635Y-5.38
X4.8635Y-5.48
X4.8701Y-1.0815
X4.8701Y-1.1815
X4.8701Y-1.2815
X4.8701Y-1.3815
X4.8701Y-1.4815
X4.8701Y-1.5815
X4.8701Y-1.6815
X4.8701Y-1.7815
X4.8701Y-1.8815
X4.8701Y-1.9815
X4.8701Y-2.0815
X4.8701Y-2.1815
X4.8701Y-2.2815
X4.8701Y-2.3815
X4.8701Y-2.4815
X4.8701Y-2.5815
X4.96Y-3.02
X4.96Y-3.12
X4.96Y-4.12
X4.96Y-4.22
X5.06Y-3.02
X5.06Y-3.12
X5.06Y-4.12
X5.06Y-4.22
X5.0846Y-4.58
X5.0846Y-4.68
X5.0846Y-4.78
X5.0846Y-4.88
X5.0846Y-4.98
X5.0846Y-5.08
X5.0846Y-5.18
X5.0846Y-5.28
X5.0846Y-5.38
X5.0846Y-5.48
X5.16Y-3.02
X5.16Y-3.12
X5.16Y-4.12
X5.16Y-4.22
X5.26Y-3.02
X5.26Y-3.12
X5.26Y-4.12
X5.26Y-4.22
X5.36Y-3.02
X5.36Y-3.12
X5.36Y-4.12
X5.36Y-4.22
X5.3846Y-4.58
X5.3846Y-4.68
X5.3846Y-4.78
X5.3846Y-4.88
X5.3846Y-4.98
X5.3846Y-5.08
X5.3846Y-5.18
X5.3846Y-5.28
X5.3846Y-5.38
X5.3846Y-5.48
X5.46Y-3.02
X5.46Y-3.12
X5.46Y-4.12
X5.46Y-4.22
X5.4701Y-1.0815
X5.4701Y-1.1815
X5.4701Y-1.2815
X5.4701Y-1.3815
X5.4701Y-1.4815
X5.4701Y-1.5815
X5.4701Y-1.6815
X5.4701Y-1.7815
X5.4701Y-1.8815
X5.4701Y-1.9815
X5.4701Y-2.0815
X5.4701Y-2.1815
X5.4701Y-2.2815
X5.4701Y-2.3815
X5.4701Y-2.4815
X5.4701Y-2.5815
X5.56Y-3.02
X5.56Y-3.12
X5.56Y-4.12
X5.56Y-4.22
X5.5917Y-1.5748
X5.6057Y-4.58
X5.6057Y-4.68
X5.6057Y-4.78
X5.6057Y-4.88
X5.6057Y-4.98
X5.6057Y-5.08
X5.6057Y-5.18
X5.6057Y-5.28
X5.6057Y-5.38
X5.6057Y-5.48
X5.66Y-3.02
X5.66Y-3.12
X5.66Y-4.12
X5.66Y-4.22
X5.6917Y-1.5748
X5.76Y-3.02
X5.76Y-3.12
X5.76Y-4.12
X5.76Y-4.22
X5.815Y-1.0815
X5.815Y-1.1815
X5.815Y-1.2815
X5.815Y-1.3815
X5.815Y-1.4815
X5.815Y-1.5815
X5.815Y-1.6815
X5.815Y-1.7815
X5.815Y-1.8815
X5.815Y-1.9815
X5.815Y-2.0815
X5.815Y-2.1815
X5.815Y-2.2815
X5.815Y-2.3815
X5.815Y-2.4815
X5.815Y-2.5815
X5.86Y-3.02
X5.86Y-3.12
X5.86Y-3.22
X5.86Y-3.32
X5.86Y-3.42
X5.86Y-3.52
X5.86Y-3.62
X5.86Y-3.72
X5.86Y-3.82
X5.86Y-3.92
X5.86Y-4.02
X5.86Y-4.12
X5.86Y-4.22
X5.9057Y-4.58
X5.9057Y-4.68
X5.9057Y-4.78
X5.9057Y-4.88
X5.9057Y-4.98
X5.9057Y-5.08
X5.9057Y-5.18
X5.9057Y-5.28
X5.9057Y-5.38
X5.9057Y-5.48
X5.96Y-3.12
X5.96Y-3.22
X5.96Y-3.32
X5.96Y-3.42
X5.96Y-3.52
X5.96Y-3.62
X5.96Y-3.72
X5.96Y-3.82
X5.96Y-3.92
X5.96Y-4.02
X5.96Y-4.12
X6.1269Y-4.58
X6.1269Y-4.68
X6.1269Y-4.78
X6.1269Y-4.88
X6.1269Y-4.98
X6.1269Y-5.08
X6.1269Y-5.18
X6.1269Y-5.28
X6.1269Y-5.38
X6.1269Y-5.48
X6.36Y-4.29
X6.415Y-1.0815
X6.415Y-1.1815
X6.415Y-1.2815
X6.415Y-1.3815
X6.415Y-1.4815
X6.415Y-1.5815
X6.415Y-1.6815
X6.415Y-1.7815
X6.415Y-1.8815
X6.415Y-1.9815
X6.415Y-2.0815
X6.415Y-2.1815
X6.415Y-2.2815
X6.415Y-2.3815
X6.415Y-2.4815
X6.415Y-2.5815
X6.4269Y-4.58
X6.4269Y-4.68
X6.4269Y-4.78
X6.4269Y-4.88
X6.4269Y-4.98
X6.4269Y-5.08
X6.4269Y-5.18
X6.4269Y-5.28
X6.4269Y-5.38
X6.4269Y-5.48
X6.46Y-4.29
X6.648Y-4.58
X6.648Y-4.68
X6.648Y-4.78
X6.648Y-4.88
X6.648Y-4.98
X6.648Y-5.08
X6.648Y-5.18
X6.648Y-5.28
X6.648Y-5.38
X6.648Y-5.48
X6.7598Y-1.2815
X6.7598Y-1.3815
X6.7598Y-1.4815
X6.7598Y-1.5815
X6.7598Y-1.6815
X6.7598Y-1.7815
X6.7598Y-1.8815
X6.7598Y-1.9815
X6.7598Y-2.0815
X6.7598Y-2.1815
X6.7598Y-2.2815
X6.7598Y-2.3815
X6.7598Y-2.4815
X6.7598Y-2.5815
X6.915Y-4.275
X6.948Y-4.58
X6.948Y-4.68
X6.948Y-4.78
X6.948Y-4.88
X6.948Y-4.98
X6.948Y-5.08
X6.948Y-5.18
X6.948Y-5.28
X6.948Y-5.38
X6.948Y-5.48
X7.0Y-1.065
X7.015Y-4.275
X7.1Y-1.065
X7.1691Y-4.58
X7.1691Y-4.68
X7.1691Y-4.78
X7.1691Y-4.88
X7.1691Y-4.98
X7.1691Y-5.08
X7.1691Y-5.18
X7.1691Y-5.28
X7.1691Y-5.38
X7.1691Y-5.48
X7.3598Y-1.2815
X7.3598Y-1.3815
X7.3598Y-1.4815
X7.3598Y-1.5815
X7.3598Y-1.6815
X7.3598Y-1.7815
X7.3598Y-1.8815
X7.3598Y-1.9815
X7.3598Y-2.0815
X7.3598Y-2.1815
X7.3598Y-2.2815
X7.3598Y-2.3815
X7.3598Y-2.4815
X7.3598Y-2.5815
X7.4691Y-4.58
X7.4691Y-4.68
X7.4691Y-4.78
X7.4691Y-4.88
X7.4691Y-4.98
X7.4691Y-5.08
X7.4691Y-5.18
X7.4691Y-5.28
X7.4691Y-5.38
X7.4691Y-5.48
X7.495Y-4.285
X7.515Y-3.67
X7.595Y-4.285
X7.615Y-3.67
X7.6902Y-4.58
X7.6902Y-4.68
X7.6902Y-4.78
X7.6902Y-4.88
X7.6902Y-4.98
X7.6902Y-5.08
X7.6902Y-5.18
X7.6902Y-5.28
X7.6902Y-5.38
X7.6902Y-5.48
X7.7047Y-1.2815
X7.7047Y-1.3815
X7.7047Y-1.4815
X7.7047Y-1.5815
X7.7047Y-1.6815
X7.7047Y-1.7815
X7.7047Y-1.8815
X7.7047Y-1.9815
X7.7047Y-2.0815
X7.7047Y-2.1815
X7.7047Y-2.2815
X7.7047Y-2.3815
X7.7047Y-2.4815
X7.7047Y-2.5815
X7.935Y-1.065
X7.9902Y-4.58
X7.9902Y-4.68
X7.9902Y-4.78
X7.9902Y-4.88
X7.9902Y-4.98
X7.9902Y-5.08
X7.9902Y-5.18
X7.9902Y-5.28
X7.9902Y-5.38
X7.9902Y-5.48
X8.035Y-1.065
X8.05Y-3.09
X8.05Y-3.19
X8.05Y-3.29
X8.05Y-3.39
X8.05Y-3.49
X8.05Y-3.59
X8.05Y-3.69
X8.05Y-3.79
X8.05Y-3.89
X8.05Y-3.99
X8.05Y-4.09
X8.15Y-2.99
X8.15Y-3.09
X8.15Y-3.19
X8.15Y-3.29
X8.15Y-3.39
X8.15Y-3.49
X8.15Y-3.59
X8.15Y-3.69
X8.15Y-3.79
X8.15Y-3.89
X8.15Y-3.99
X8.15Y-4.09
X8.15Y-4.19
X8.25Y-2.99
X8.25Y-3.09
X8.25Y-4.09
X8.25Y-4.19
X8.2652Y-4.565
X8.2652Y-4.665
X8.2652Y-4.765
X8.2652Y-4.865
X8.2652Y-4.965
X8.2652Y-5.065
X8.2652Y-5.165
X8.2652Y-5.265
X8.2652Y-5.365
X8.2652Y-5.465
X8.3047Y-1.2815
X8.3047Y-1.3815
X8.3047Y-1.4815
X8.3047Y-1.5815
X8.3047Y-1.6815
X8.3047Y-1.7815
X8.3047Y-1.8815
X8.3047Y-1.9815
X8.3047Y-2.0815
X8.3047Y-2.1815
X8.3047Y-2.2815
X8.3047Y-2.3815
X8.3047Y-2.4815
X8.3047Y-2.5815
X8.35Y-2.99
X8.35Y-3.09
X8.35Y-4.09
X8.35Y-4.19
X8.45Y-2.99
X8.45Y-3.09
X8.45Y-4.09
X8.45Y-4.19
X8.535Y-1.8008
X8.535Y-1.8992
X8.54Y-2.1616
X8.54Y-2.26
X8.55Y-2.99
X8.55Y-3.09
X8.55Y-4.09
X8.55Y-4.19
X8.5652Y-4.565
X8.5652Y-4.665
X8.5652Y-4.765
X8.5652Y-4.865
X8.5652Y-4.965
X8.5652Y-5.065
X8.5652Y-5.165
X8.5652Y-5.265
X8.5652Y-5.365
X8.5652Y-5.465
X8.65Y-2.99
X8.65Y-3.09
X8.65Y-4.09
X8.65Y-4.19
X8.7052Y-1.67
X8.7052Y-1.77
X8.7052Y-1.87
X8.7052Y-1.97
X8.7052Y-2.07
X8.7052Y-2.17
X8.7052Y-2.27
X8.7052Y-2.37
X8.75Y-2.99
X8.75Y-3.09
X8.75Y-4.09
X8.75Y-4.19
X8.8066Y-1.495
X8.85Y-2.99
X8.85Y-3.09
X8.85Y-4.09
X8.85Y-4.19
X8.8976Y-4.5669
X8.8976Y-4.6669
X8.8976Y-4.7669
X8.8976Y-4.8669
X8.8976Y-4.9669
X8.8976Y-5.0669
X8.8976Y-5.1669
X8.8976Y-5.2669
X8.8976Y-5.3669
X8.8976Y-5.4669
X8.905Y-1.495
X8.95Y-2.99
X8.95Y-3.09
X8.95Y-4.09
X8.95Y-4.19
X8.9976Y-4.5669
X8.9976Y-4.6669
X8.9976Y-4.7669
X8.9976Y-4.8669
X8.9976Y-4.9669
X8.9976Y-5.0669
X8.9976Y-5.1669
X8.9976Y-5.2669
X8.9976Y-5.3669
X8.9976Y-5.4669
X9.0052Y-1.67
X9.0052Y-1.77
X9.0052Y-1.87
X9.0052Y-1.97
X9.0052Y-2.07
X9.0052Y-2.17
X9.0052Y-2.27
X9.0052Y-2.37
X9.05Y-2.99
X9.05Y-3.09
X9.05Y-4.09
X9.05Y-4.19
X9.0976Y-4.5669
X9.0976Y-4.6669
X9.0976Y-4.7669
X9.0976Y-4.8669
X9.0976Y-4.9669
X9.0976Y-5.0669
X9.0976Y-5.1669
X9.0976Y-5.2669
X9.0976Y-5.3669
X9.0976Y-5.4669
X9.15Y-2.99
X9.15Y-3.09
X9.15Y-3.19
X9.15Y-3.29
X9.15Y-3.39
X9.15Y-3.49
X9.15Y-3.59
X9.15Y-3.69
X9.15Y-3.79
X9.15Y-3.89
X9.15Y-3.99
X9.15Y-4.09
X9.15Y-4.19
X9.1976Y-4.5669
X9.1976Y-4.6669
X9.1976Y-4.7669
X9.1976Y-4.8669
X9.1976Y-4.9669
X9.1976Y-5.0669
X9.1976Y-5.1669
X9.1976Y-5.2669
X9.1976Y-5.3669
X9.1976Y-5.4669
X9.225Y-1.7658
X9.225Y-1.8642
X9.225Y-2.1708
X9.225Y-2.2692
X9.25Y-3.09
X9.25Y-3.19
X9.25Y-3.29
X9.25Y-3.39
X9.25Y-3.49
X9.25Y-3.59
X9.25Y-3.69
X9.25Y-3.79
X9.25Y-3.89
X9.25Y-3.99
X9.25Y-4.09
X9.2976Y-4.5669
X9.2976Y-4.6669
X9.2976Y-4.7669
X9.2976Y-4.8669
X9.2976Y-4.9669
X9.2976Y-5.0669
X9.2976Y-5.1669
X9.2976Y-5.2669
X9.2976Y-5.3669
X9.2976Y-5.4669
X9.3976Y-4.5669
X9.3976Y-4.6669
X9.3976Y-4.7669
X9.3976Y-4.8669
X9.3976Y-4.9669
X9.3976Y-5.0669
X9.3976Y-5.1669
X9.3976Y-5.2669
X9.3976Y-5.3669
X9.3976Y-5.4669
X9.4Y-2.02
X9.4976Y-4.5669
X9.4976Y-4.6669
X9.4976Y-4.7669
X9.4976Y-4.8669
X9.4976Y-4.9669
X9.4976Y-5.0669
X9.4976Y-5.1669
X9.4976Y-5.2669
X9.4976Y-5.3669
X9.4976Y-5.4669
X9.5976Y-4.5669
X9.5976Y-4.6669
X9.5976Y-4.7669
X9.5976Y-4.8669
X9.5976Y-4.9669
X9.5976Y-5.0669
X9.5976Y-5.1669
X9.5976Y-5.2669
X9.5976Y-5.3669
X9.5976Y-5.4669
X9.6976Y-4.5669
X9.6976Y-4.6669
X9.6976Y-4.7669
X9.6976Y-4.8669
X9.6976Y-4.9669
X9.6976Y-5.0669
X9.6976Y-5.1669
X9.6976Y-5.2669
X9.6976Y-5.3669
X9.6976Y-5.4669
X9.7Y-2.02
X9.7976Y-4.5669
X9.7976Y-4.6669
X9.7976Y-4.7669
X9.7976Y-4.8669
X9.7976Y-4.9669
X9.7976Y-5.0669
X9.7976Y-5.1669
X9.7976Y-5.2669
X9.7976Y-5.3669
X9.7976Y-5.4669
X9.8976Y-4.5669
X9.8976Y-4.6669
X9.8976Y-4.7669
X9.8976Y-4.8669
X9.8976Y-4.9669
X9.8976Y-5.0669
X9.8976Y-5.1669
X9.8976Y-5.2669
X9.8976Y-5.3669
X9.8976Y-5.4669
X9.9976Y-4.5669
X9.9976Y-4.6669
X9.9976Y-4.7669
X9.9976Y-4.8669
X9.9976Y-4.9669
X9.9976Y-5.0669
X9.9976Y-5.1669
X9.9976Y-5.2669
X9.9976Y-5.3669
X9.9976Y-5.4669
X10.09Y-3.49
X10.09Y-3.59
X10.09Y-3.69
X10.09Y-3.79
X10.09Y-3.89
X10.09Y-3.99
X10.0976Y-4.5669
X10.0976Y-4.6669
X10.0976Y-4.7669
X10.0976Y-4.8669
X10.0976Y-4.9669
X10.0976Y-5.0669
X10.0976Y-5.1669
X10.0976Y-5.2669
X10.0976Y-5.3669
X10.0976Y-5.4669
X10.1976Y-4.5669
X10.1976Y-4.6669
X10.1976Y-4.7669
X10.1976Y-4.8669
X10.1976Y-4.9669
X10.1976Y-5.0669
X10.1976Y-5.1669
X10.1976Y-5.2669
X10.1976Y-5.3669
X10.1976Y-5.4669
X10.2976Y-4.5669
X10.2976Y-4.6669
X10.2976Y-4.7669
X10.2976Y-4.8669
X10.2976Y-4.9669
X10.2976Y-5.0669
X10.2976Y-5.1669
X10.2976Y-5.2669
X10.2976Y-5.3669
X10.2976Y-5.4669
X10.3976Y-4.5669
X10.3976Y-4.6669
X10.3976Y-4.7669
X10.3976Y-4.8669
X10.3976Y-4.9669
X10.3976Y-5.0669
X10.3976Y-5.1669
X10.3976Y-5.2669
X10.3976Y-5.3669
X10.3976Y-5.4669
T5
X8.63Y-1.2
X8.63Y-1.3
X8.73Y-1.2
X8.73Y-1.3
X8.83Y-1.2
X8.83Y-1.3
X8.93Y-1.2
X8.93Y-1.3
X9.03Y-1.2
X9.03Y-1.3
X9.8425Y-2.02
X9.8425Y-2.12
T6
X2.1109Y-4.8301
X2.1109Y-5.26
T7
X1.4455Y-5.0454
X2.6345Y-5.0454
M30
