%TF.GenerationSoftware,KiCad,Pcbnew,9.0.2+dfsg-1*%
%TF.CreationDate,2026-09-04T21:21:37-07:00*%
%TF.ProjectId,z280-s100,7a323830-2d73-4313-9030-2e6b69636164,rev?*%
%TF.SameCoordinates,Original*%
%TF.FileFunction,Soldermask,Top*%
%TF.FilePolarity,Negative*%
%FSLAX46Y46*%
G04 Gerber Fmt 4.6, Leading zero omitted, Abs format (unit mm)*
G04 Created by KiCad (PCBNEW 9.0.2+dfsg-1) date 2026-09-04 21:21:37*
%MOMM*%
%LPD*%
G01*
G04 APERTURE LIST*
G04 Aperture macros list*
%AMRoundRect*
0 Rectangle with rounded corners*
0 $1 Rounding radius*
0 $2 $3 $4 $5 $6 $7 $8 $9 X,Y pos of 4 corners*
0 Add a 4 corners polygon primitive as box body*
4,1,4,$2,$3,$4,$5,$6,$7,$8,$9,$2,$3,0*
0 Add four circle primitives for the rounded corners*
1,1,$1+$1,$2,$3*
1,1,$1+$1,$4,$5*
1,1,$1+$1,$6,$7*
1,1,$1+$1,$8,$9*
0 Add four rect primitives between the rounded corners*
20,1,$1+$1,$2,$3,$4,$5,0*
20,1,$1+$1,$4,$5,$6,$7,0*
20,1,$1+$1,$6,$7,$8,$9,0*
20,1,$1+$1,$8,$9,$2,$3,0*%
G04 Aperture macros list end*
%ADD10R,2.600000X2.600000*%
%ADD11C,2.600000*%
%ADD12C,6.350000*%
%ADD13RoundRect,0.250000X-0.550000X-0.550000X0.550000X-0.550000X0.550000X0.550000X-0.550000X0.550000X0*%
%ADD14C,1.600000*%
%ADD15R,1.700000X1.700000*%
%ADD16C,1.700000*%
%ADD17C,1.000000*%
%ADD18R,1.422400X1.422400*%
%ADD19C,1.422400*%
%ADD20R,2.790000X8.380000*%
%ADD21R,1.780000X8.380000*%
G04 APERTURE END LIST*
D10*
%TO.C,U27*%
X53616000Y-133604000D03*
D11*
X53616000Y-122684000D03*
D12*
X66916000Y-128154000D03*
X36716000Y-128154000D03*
%TD*%
D13*
%TO.C,U22*%
X102677000Y-121412000D03*
D14*
X102677000Y-123952000D03*
X102677000Y-126492000D03*
X102677000Y-129032000D03*
X102677000Y-131572000D03*
X102677000Y-134112000D03*
X102677000Y-136652000D03*
X102677000Y-139192000D03*
X110297000Y-139192000D03*
X110297000Y-136652000D03*
X110297000Y-134112000D03*
X110297000Y-131572000D03*
X110297000Y-129032000D03*
X110297000Y-126492000D03*
X110297000Y-123952000D03*
X110297000Y-121412000D03*
%TD*%
%TO.C,C10*%
X94030000Y-40000000D03*
X96570000Y-40000000D03*
%TD*%
%TO.C,C13*%
X177800000Y-27051000D03*
X180340000Y-27051000D03*
%TD*%
D13*
%TO.C,U25*%
X168859000Y-116332000D03*
D14*
X168859000Y-118872000D03*
X168859000Y-121412000D03*
X168859000Y-123952000D03*
X168859000Y-126492000D03*
X168859000Y-129032000D03*
X168859000Y-131572000D03*
X168859000Y-134112000D03*
X168859000Y-136652000D03*
X168859000Y-139192000D03*
X176479000Y-139192000D03*
X176479000Y-136652000D03*
X176479000Y-134112000D03*
X176479000Y-131572000D03*
X176479000Y-129032000D03*
X176479000Y-126492000D03*
X176479000Y-123952000D03*
X176479000Y-121412000D03*
X176479000Y-118872000D03*
X176479000Y-116332000D03*
%TD*%
D13*
%TO.C,U15*%
X142386000Y-116332000D03*
D14*
X142386000Y-118872000D03*
X142386000Y-121412000D03*
X142386000Y-123952000D03*
X142386000Y-126492000D03*
X142386000Y-129032000D03*
X142386000Y-131572000D03*
X142386000Y-134112000D03*
X142386000Y-136652000D03*
X142386000Y-139192000D03*
X150006000Y-139192000D03*
X150006000Y-136652000D03*
X150006000Y-134112000D03*
X150006000Y-131572000D03*
X150006000Y-129032000D03*
X150006000Y-126492000D03*
X150006000Y-123952000D03*
X150006000Y-121412000D03*
X150006000Y-118872000D03*
X150006000Y-116332000D03*
%TD*%
D13*
%TO.C,U20*%
X209936000Y-115951000D03*
D14*
X209936000Y-118491000D03*
X209936000Y-121031000D03*
X209936000Y-123571000D03*
X209936000Y-126111000D03*
X209936000Y-128651000D03*
X209936000Y-131191000D03*
X209936000Y-133731000D03*
X209936000Y-136271000D03*
X209936000Y-138811000D03*
X217556000Y-138811000D03*
X217556000Y-136271000D03*
X217556000Y-133731000D03*
X217556000Y-131191000D03*
X217556000Y-128651000D03*
X217556000Y-126111000D03*
X217556000Y-123571000D03*
X217556000Y-121031000D03*
X217556000Y-118491000D03*
X217556000Y-115951000D03*
%TD*%
%TO.C,R4*%
X17653000Y-91948000D03*
X25273000Y-91948000D03*
%TD*%
%TO.C,C22*%
X175641000Y-108585000D03*
X178181000Y-108585000D03*
%TD*%
%TO.C,C3*%
X216789000Y-45740000D03*
X216789000Y-48240000D03*
%TD*%
%TO.C,C16*%
X110730000Y-92000000D03*
X113270000Y-92000000D03*
%TD*%
D13*
%TO.C,U3*%
X62922300Y-42799000D03*
D14*
X62922300Y-45339000D03*
X62922300Y-47879000D03*
X62922300Y-50419000D03*
X62922300Y-52959000D03*
X62922300Y-55499000D03*
X62922300Y-58039000D03*
X62922300Y-60579000D03*
X62922300Y-63119000D03*
X62922300Y-65659000D03*
X70542300Y-65659000D03*
X70542300Y-63119000D03*
X70542300Y-60579000D03*
X70542300Y-58039000D03*
X70542300Y-55499000D03*
X70542300Y-52959000D03*
X70542300Y-50419000D03*
X70542300Y-47879000D03*
X70542300Y-45339000D03*
X70542300Y-42799000D03*
%TD*%
D15*
%TO.C,J11*%
X250000000Y-51308000D03*
D16*
X250000000Y-53848000D03*
%TD*%
D13*
%TO.C,U2*%
X50476300Y-42799000D03*
D14*
X50476300Y-45339000D03*
X50476300Y-47879000D03*
X50476300Y-50419000D03*
X50476300Y-52959000D03*
X50476300Y-55499000D03*
X50476300Y-58039000D03*
X50476300Y-60579000D03*
X50476300Y-63119000D03*
X50476300Y-65659000D03*
X58096300Y-65659000D03*
X58096300Y-63119000D03*
X58096300Y-60579000D03*
X58096300Y-58039000D03*
X58096300Y-55499000D03*
X58096300Y-52959000D03*
X58096300Y-50419000D03*
X58096300Y-47879000D03*
X58096300Y-45339000D03*
X58096300Y-42799000D03*
%TD*%
D13*
%TO.C,U16*%
X155622000Y-116332000D03*
D14*
X155622000Y-118872000D03*
X155622000Y-121412000D03*
X155622000Y-123952000D03*
X155622000Y-126492000D03*
X155622000Y-129032000D03*
X155622000Y-131572000D03*
X155622000Y-134112000D03*
X155622000Y-136652000D03*
X155622000Y-139192000D03*
X163242000Y-139192000D03*
X163242000Y-136652000D03*
X163242000Y-134112000D03*
X163242000Y-131572000D03*
X163242000Y-129032000D03*
X163242000Y-126492000D03*
X163242000Y-123952000D03*
X163242000Y-121412000D03*
X163242000Y-118872000D03*
X163242000Y-116332000D03*
%TD*%
D17*
%TO.C,U13*%
X167640000Y-97663000D03*
X168910000Y-97663000D03*
X170180000Y-97663000D03*
%TD*%
D13*
%TO.C,U23*%
X76205000Y-116332000D03*
D14*
X76205000Y-118872000D03*
X76205000Y-121412000D03*
X76205000Y-123952000D03*
X76205000Y-126492000D03*
X76205000Y-129032000D03*
X76205000Y-131572000D03*
X76205000Y-134112000D03*
X76205000Y-136652000D03*
X76205000Y-139192000D03*
X83825000Y-139192000D03*
X83825000Y-136652000D03*
X83825000Y-134112000D03*
X83825000Y-131572000D03*
X83825000Y-129032000D03*
X83825000Y-126492000D03*
X83825000Y-123952000D03*
X83825000Y-121412000D03*
X83825000Y-118872000D03*
X83825000Y-116332000D03*
%TD*%
D13*
%TO.C,U14*%
X221112000Y-42418000D03*
D14*
X221112000Y-44958000D03*
X221112000Y-47498000D03*
X221112000Y-50038000D03*
X221112000Y-52578000D03*
X221112000Y-55118000D03*
X221112000Y-57658000D03*
X221112000Y-60198000D03*
X228732000Y-60198000D03*
X228732000Y-57658000D03*
X228732000Y-55118000D03*
X228732000Y-52578000D03*
X228732000Y-50038000D03*
X228732000Y-47498000D03*
X228732000Y-44958000D03*
X228732000Y-42418000D03*
%TD*%
D18*
%TO.C,U4*%
X136144000Y-76708000D03*
D19*
X136144000Y-79248000D03*
X133604000Y-76708000D03*
X133604000Y-79248000D03*
X131064000Y-76708000D03*
X131064000Y-79248000D03*
X128524000Y-76708000D03*
X128524000Y-79248000D03*
X125984000Y-76708000D03*
X125984000Y-79248000D03*
X123444000Y-76708000D03*
X120904000Y-79248000D03*
X123444000Y-79248000D03*
X120904000Y-81788000D03*
X123444000Y-81788000D03*
X120904000Y-84328000D03*
X123444000Y-84328000D03*
X120904000Y-86868000D03*
X123444000Y-86868000D03*
X120904000Y-89408000D03*
X123444000Y-89408000D03*
X120904000Y-91948000D03*
X123444000Y-91948000D03*
X120904000Y-94488000D03*
X123444000Y-94488000D03*
X120904000Y-97028000D03*
X123444000Y-97028000D03*
X120904000Y-99568000D03*
X123444000Y-99568000D03*
X120904000Y-102108000D03*
X123444000Y-102108000D03*
X120904000Y-104648000D03*
X123444000Y-107188000D03*
X123444000Y-104648000D03*
X125984000Y-107188000D03*
X125984000Y-104648000D03*
X128524000Y-107188000D03*
X128524000Y-104648000D03*
X131064000Y-107188000D03*
X131064000Y-104648000D03*
X133604000Y-107188000D03*
X133604000Y-104648000D03*
X136144000Y-107188000D03*
X136144000Y-104648000D03*
X138684000Y-107188000D03*
X138684000Y-104648000D03*
X141224000Y-107188000D03*
X141224000Y-104648000D03*
X143764000Y-107188000D03*
X143764000Y-104648000D03*
X146304000Y-107188000D03*
X146304000Y-104648000D03*
X148844000Y-107188000D03*
X151384000Y-104648000D03*
X148844000Y-104648000D03*
X151384000Y-102108000D03*
X148844000Y-102108000D03*
X151384000Y-99568000D03*
X148844000Y-99568000D03*
X151384000Y-97028000D03*
X148844000Y-97028000D03*
X151384000Y-94488000D03*
X148844000Y-94488000D03*
X151384000Y-91948000D03*
X148844000Y-91948000D03*
X151384000Y-89408000D03*
X148844000Y-89408000D03*
X151384000Y-86868000D03*
X148844000Y-86868000D03*
X151384000Y-84328000D03*
X148844000Y-84328000D03*
X151384000Y-81788000D03*
X148844000Y-81788000D03*
X151384000Y-79248000D03*
X148844000Y-76708000D03*
X148844000Y-79248000D03*
X146304000Y-76708000D03*
X146304000Y-79248000D03*
X143764000Y-76708000D03*
X143764000Y-79248000D03*
X141224000Y-76708000D03*
X141224000Y-79248000D03*
X138684000Y-76708000D03*
X138684000Y-79248000D03*
%TD*%
D14*
%TO.C,C12*%
X142030000Y-40000000D03*
X144570000Y-40000000D03*
%TD*%
%TO.C,U12*%
X20190000Y-139250000D03*
X22730000Y-139250000D03*
X25270000Y-139250000D03*
%TD*%
%TO.C,C11*%
X118030000Y-40000000D03*
X120570000Y-40000000D03*
%TD*%
D13*
%TO.C,U17*%
X89441200Y-116332000D03*
D14*
X89441200Y-118872000D03*
X89441200Y-121412000D03*
X89441200Y-123952000D03*
X89441200Y-126492000D03*
X89441200Y-129032000D03*
X89441200Y-131572000D03*
X89441200Y-134112000D03*
X89441200Y-136652000D03*
X89441200Y-139192000D03*
X97061200Y-139192000D03*
X97061200Y-136652000D03*
X97061200Y-134112000D03*
X97061200Y-131572000D03*
X97061200Y-129032000D03*
X97061200Y-126492000D03*
X97061200Y-123952000D03*
X97061200Y-121412000D03*
X97061200Y-118872000D03*
X97061200Y-116332000D03*
%TD*%
%TO.C,C23*%
X190373000Y-108839000D03*
X192913000Y-108839000D03*
%TD*%
D13*
%TO.C,U19*%
X129150000Y-116332000D03*
D14*
X129150000Y-118872000D03*
X129150000Y-121412000D03*
X129150000Y-123952000D03*
X129150000Y-126492000D03*
X129150000Y-129032000D03*
X129150000Y-131572000D03*
X129150000Y-134112000D03*
X129150000Y-136652000D03*
X129150000Y-139192000D03*
X136770000Y-139192000D03*
X136770000Y-136652000D03*
X136770000Y-134112000D03*
X136770000Y-131572000D03*
X136770000Y-129032000D03*
X136770000Y-126492000D03*
X136770000Y-123952000D03*
X136770000Y-121412000D03*
X136770000Y-118872000D03*
X136770000Y-116332000D03*
%TD*%
%TO.C,R1*%
X17653000Y-81026000D03*
X25273000Y-81026000D03*
%TD*%
%TO.C,R2*%
X17399000Y-86360000D03*
X25019000Y-86360000D03*
%TD*%
D13*
%TO.C,U7*%
X99700000Y-27469200D03*
D14*
X99700000Y-30009200D03*
X99700000Y-32549200D03*
X99700000Y-35089200D03*
X99700000Y-37629200D03*
X99700000Y-40169200D03*
X99700000Y-42709200D03*
X99700000Y-45249200D03*
X99700000Y-47789200D03*
X99700000Y-50329200D03*
X99700000Y-52869200D03*
X99700000Y-55409200D03*
X99700000Y-57949200D03*
X99700000Y-60489200D03*
X99700000Y-63029200D03*
X99700000Y-65569200D03*
X114940000Y-65569200D03*
X114940000Y-63029200D03*
X114940000Y-60489200D03*
X114940000Y-57949200D03*
X114940000Y-55409200D03*
X114940000Y-52869200D03*
X114940000Y-50329200D03*
X114940000Y-47789200D03*
X114940000Y-45249200D03*
X114940000Y-42709200D03*
X114940000Y-40169200D03*
X114940000Y-37629200D03*
X114940000Y-35089200D03*
X114940000Y-32549200D03*
X114940000Y-30009200D03*
X114940000Y-27469200D03*
%TD*%
%TO.C,C18*%
X190881000Y-93218000D03*
X193421000Y-93218000D03*
%TD*%
%TO.C,C20*%
X67691000Y-116332000D03*
X70231000Y-116332000D03*
%TD*%
%TO.C,C4*%
X216916000Y-57404000D03*
X216916000Y-54904000D03*
%TD*%
%TO.C,C7*%
X55118000Y-36703000D03*
X52578000Y-36703000D03*
%TD*%
%TO.C,C9*%
X66830000Y-30000000D03*
X69370000Y-30000000D03*
%TD*%
%TO.C,C6*%
X39624000Y-36703000D03*
X42164000Y-36703000D03*
%TD*%
D13*
%TO.C,U9*%
X147700000Y-27469200D03*
D14*
X147700000Y-30009200D03*
X147700000Y-32549200D03*
X147700000Y-35089200D03*
X147700000Y-37629200D03*
X147700000Y-40169200D03*
X147700000Y-42709200D03*
X147700000Y-45249200D03*
X147700000Y-47789200D03*
X147700000Y-50329200D03*
X147700000Y-52869200D03*
X147700000Y-55409200D03*
X147700000Y-57949200D03*
X147700000Y-60489200D03*
X147700000Y-63029200D03*
X147700000Y-65569200D03*
X162940000Y-65569200D03*
X162940000Y-63029200D03*
X162940000Y-60489200D03*
X162940000Y-57949200D03*
X162940000Y-55409200D03*
X162940000Y-52869200D03*
X162940000Y-50329200D03*
X162940000Y-47789200D03*
X162940000Y-45249200D03*
X162940000Y-42709200D03*
X162940000Y-40169200D03*
X162940000Y-37629200D03*
X162940000Y-35089200D03*
X162940000Y-32549200D03*
X162940000Y-30009200D03*
X162940000Y-27469200D03*
%TD*%
D13*
%TO.C,U24*%
X115914000Y-116332000D03*
D14*
X115914000Y-118872000D03*
X115914000Y-121412000D03*
X115914000Y-123952000D03*
X115914000Y-126492000D03*
X115914000Y-129032000D03*
X115914000Y-131572000D03*
X115914000Y-134112000D03*
X115914000Y-136652000D03*
X115914000Y-139192000D03*
X123534000Y-139192000D03*
X123534000Y-136652000D03*
X123534000Y-134112000D03*
X123534000Y-131572000D03*
X123534000Y-129032000D03*
X123534000Y-126492000D03*
X123534000Y-123952000D03*
X123534000Y-121412000D03*
X123534000Y-118872000D03*
X123534000Y-116332000D03*
%TD*%
%TO.C,C19*%
X53975000Y-96139000D03*
X56515000Y-96139000D03*
%TD*%
D13*
%TO.C,U11*%
X195700000Y-32549200D03*
D14*
X195700000Y-35089200D03*
X195700000Y-37629200D03*
X195700000Y-40169200D03*
X195700000Y-42709200D03*
X195700000Y-45249200D03*
X195700000Y-47789200D03*
X195700000Y-50329200D03*
X195700000Y-52869200D03*
X195700000Y-55409200D03*
X195700000Y-57949200D03*
X195700000Y-60489200D03*
X195700000Y-63029200D03*
X195700000Y-65569200D03*
X210940000Y-65569200D03*
X210940000Y-63029200D03*
X210940000Y-60489200D03*
X210940000Y-57949200D03*
X210940000Y-55409200D03*
X210940000Y-52869200D03*
X210940000Y-50329200D03*
X210940000Y-47789200D03*
X210940000Y-45249200D03*
X210940000Y-42709200D03*
X210940000Y-40169200D03*
X210940000Y-37629200D03*
X210940000Y-35089200D03*
X210940000Y-32549200D03*
%TD*%
D13*
%TO.C,U26*%
X182095000Y-116332000D03*
D14*
X182095000Y-118872000D03*
X182095000Y-121412000D03*
X182095000Y-123952000D03*
X182095000Y-126492000D03*
X182095000Y-129032000D03*
X182095000Y-131572000D03*
X182095000Y-134112000D03*
X182095000Y-136652000D03*
X182095000Y-139192000D03*
X189715000Y-139192000D03*
X189715000Y-136652000D03*
X189715000Y-134112000D03*
X189715000Y-131572000D03*
X189715000Y-129032000D03*
X189715000Y-126492000D03*
X189715000Y-123952000D03*
X189715000Y-121412000D03*
X189715000Y-118872000D03*
X189715000Y-116332000D03*
%TD*%
%TO.C,C21*%
X108204000Y-114173000D03*
X105664000Y-114173000D03*
%TD*%
D13*
%TO.C,U21*%
X37268300Y-42799000D03*
D14*
X37268300Y-45339000D03*
X37268300Y-47879000D03*
X37268300Y-50419000D03*
X37268300Y-52959000D03*
X37268300Y-55499000D03*
X37268300Y-58039000D03*
X37268300Y-60579000D03*
X37268300Y-63119000D03*
X37268300Y-65659000D03*
X44888300Y-65659000D03*
X44888300Y-63119000D03*
X44888300Y-60579000D03*
X44888300Y-58039000D03*
X44888300Y-55499000D03*
X44888300Y-52959000D03*
X44888300Y-50419000D03*
X44888300Y-47879000D03*
X44888300Y-45339000D03*
X44888300Y-42799000D03*
%TD*%
D18*
%TO.C,U5*%
X219710000Y-75946000D03*
D19*
X219710000Y-78486000D03*
X217170000Y-75946000D03*
X217170000Y-78486000D03*
X214630000Y-75946000D03*
X214630000Y-78486000D03*
X212090000Y-75946000D03*
X212090000Y-78486000D03*
X209550000Y-75946000D03*
X209550000Y-78486000D03*
X207010000Y-75946000D03*
X204470000Y-78486000D03*
X207010000Y-78486000D03*
X204470000Y-81026000D03*
X207010000Y-81026000D03*
X204470000Y-83566000D03*
X207010000Y-83566000D03*
X204470000Y-86106000D03*
X207010000Y-86106000D03*
X204470000Y-88646000D03*
X207010000Y-88646000D03*
X204470000Y-91186000D03*
X207010000Y-91186000D03*
X204470000Y-93726000D03*
X207010000Y-93726000D03*
X204470000Y-96266000D03*
X207010000Y-96266000D03*
X204470000Y-98806000D03*
X207010000Y-98806000D03*
X204470000Y-101346000D03*
X207010000Y-101346000D03*
X204470000Y-103886000D03*
X207010000Y-106426000D03*
X207010000Y-103886000D03*
X209550000Y-106426000D03*
X209550000Y-103886000D03*
X212090000Y-106426000D03*
X212090000Y-103886000D03*
X214630000Y-106426000D03*
X214630000Y-103886000D03*
X217170000Y-106426000D03*
X217170000Y-103886000D03*
X219710000Y-106426000D03*
X219710000Y-103886000D03*
X222250000Y-106426000D03*
X222250000Y-103886000D03*
X224790000Y-106426000D03*
X224790000Y-103886000D03*
X227330000Y-106426000D03*
X227330000Y-103886000D03*
X229870000Y-106426000D03*
X229870000Y-103886000D03*
X232410000Y-106426000D03*
X234950000Y-103886000D03*
X232410000Y-103886000D03*
X234950000Y-101346000D03*
X232410000Y-101346000D03*
X234950000Y-98806000D03*
X232410000Y-98806000D03*
X234950000Y-96266000D03*
X232410000Y-96266000D03*
X234950000Y-93726000D03*
X232410000Y-93726000D03*
X234950000Y-91186000D03*
X232410000Y-91186000D03*
X234950000Y-88646000D03*
X232410000Y-88646000D03*
X234950000Y-86106000D03*
X232410000Y-86106000D03*
X234950000Y-83566000D03*
X232410000Y-83566000D03*
X234950000Y-81026000D03*
X232410000Y-81026000D03*
X234950000Y-78486000D03*
X232410000Y-75946000D03*
X232410000Y-78486000D03*
X229870000Y-75946000D03*
X229870000Y-78486000D03*
X227330000Y-75946000D03*
X227330000Y-78486000D03*
X224790000Y-75946000D03*
X224790000Y-78486000D03*
X222250000Y-75946000D03*
X222250000Y-78486000D03*
%TD*%
D13*
%TO.C,U18*%
X195331000Y-116332000D03*
D14*
X195331000Y-118872000D03*
X195331000Y-121412000D03*
X195331000Y-123952000D03*
X195331000Y-126492000D03*
X195331000Y-129032000D03*
X195331000Y-131572000D03*
X195331000Y-134112000D03*
X195331000Y-136652000D03*
X195331000Y-139192000D03*
X202951000Y-139192000D03*
X202951000Y-136652000D03*
X202951000Y-134112000D03*
X202951000Y-131572000D03*
X202951000Y-129032000D03*
X202951000Y-126492000D03*
X202951000Y-123952000D03*
X202951000Y-121412000D03*
X202951000Y-118872000D03*
X202951000Y-116332000D03*
%TD*%
%TO.C,C17*%
X161544000Y-108966000D03*
X164084000Y-108966000D03*
%TD*%
%TO.C,Y1*%
X45716000Y-90043000D03*
X50546000Y-90043000D03*
%TD*%
%TO.C,C15*%
X97028000Y-93726000D03*
X99568000Y-93726000D03*
%TD*%
D18*
%TO.C,U1*%
X76200000Y-81280000D03*
D19*
X76200000Y-83820000D03*
X73660000Y-81280000D03*
X73660000Y-83820000D03*
X71120000Y-81280000D03*
X71120000Y-83820000D03*
X68580000Y-81280000D03*
X68580000Y-83820000D03*
X66040000Y-81280000D03*
X63500000Y-83820000D03*
X66040000Y-83820000D03*
X63500000Y-86360000D03*
X66040000Y-86360000D03*
X63500000Y-88900000D03*
X66040000Y-88900000D03*
X63500000Y-91440000D03*
X66040000Y-91440000D03*
X63500000Y-93980000D03*
X66040000Y-93980000D03*
X63500000Y-96520000D03*
X66040000Y-96520000D03*
X63500000Y-99060000D03*
X66040000Y-99060000D03*
X63500000Y-101600000D03*
X66040000Y-101600000D03*
X63500000Y-104140000D03*
X66040000Y-106680000D03*
X66040000Y-104140000D03*
X68580000Y-106680000D03*
X68580000Y-104140000D03*
X71120000Y-106680000D03*
X71120000Y-104140000D03*
X73660000Y-106680000D03*
X73660000Y-104140000D03*
X76200000Y-106680000D03*
X76200000Y-104140000D03*
X78740000Y-106680000D03*
X78740000Y-104140000D03*
X81280000Y-106680000D03*
X81280000Y-104140000D03*
X83820000Y-106680000D03*
X83820000Y-104140000D03*
X86360000Y-106680000D03*
X88900000Y-104140000D03*
X86360000Y-104140000D03*
X88900000Y-101600000D03*
X86360000Y-101600000D03*
X88900000Y-99060000D03*
X86360000Y-99060000D03*
X88900000Y-96520000D03*
X86360000Y-96520000D03*
X88900000Y-93980000D03*
X86360000Y-93980000D03*
X88900000Y-91440000D03*
X86360000Y-91440000D03*
X88900000Y-88900000D03*
X86360000Y-88900000D03*
X88900000Y-86360000D03*
X86360000Y-86360000D03*
X88900000Y-83820000D03*
X86360000Y-81280000D03*
X86360000Y-83820000D03*
X83820000Y-81280000D03*
X83820000Y-83820000D03*
X81280000Y-81280000D03*
X81280000Y-83820000D03*
X78740000Y-81280000D03*
X78740000Y-83820000D03*
%TD*%
D13*
%TO.C,U10*%
X171700000Y-32549200D03*
D14*
X171700000Y-35089200D03*
X171700000Y-37629200D03*
X171700000Y-40169200D03*
X171700000Y-42709200D03*
X171700000Y-45249200D03*
X171700000Y-47789200D03*
X171700000Y-50329200D03*
X171700000Y-52869200D03*
X171700000Y-55409200D03*
X171700000Y-57949200D03*
X171700000Y-60489200D03*
X171700000Y-63029200D03*
X171700000Y-65569200D03*
X186940000Y-65569200D03*
X186940000Y-63029200D03*
X186940000Y-60489200D03*
X186940000Y-57949200D03*
X186940000Y-55409200D03*
X186940000Y-52869200D03*
X186940000Y-50329200D03*
X186940000Y-47789200D03*
X186940000Y-45249200D03*
X186940000Y-42709200D03*
X186940000Y-40169200D03*
X186940000Y-37629200D03*
X186940000Y-35089200D03*
X186940000Y-32549200D03*
%TD*%
%TO.C,C14*%
X201549000Y-27051000D03*
X204089000Y-27051000D03*
%TD*%
D15*
%TO.C,J7*%
X229362000Y-30480000D03*
D16*
X229362000Y-33020000D03*
X226822000Y-30480000D03*
X226822000Y-33020000D03*
X224282000Y-30480000D03*
X224282000Y-33020000D03*
X221742000Y-30480000D03*
X221742000Y-33020000D03*
X219202000Y-30480000D03*
X219202000Y-33020000D03*
%TD*%
D14*
%TO.C,C2*%
X234315000Y-55138000D03*
X234315000Y-57638000D03*
%TD*%
%TO.C,C1*%
X234315000Y-44851000D03*
X234315000Y-47351000D03*
%TD*%
%TO.C,*%
X226000000Y-116000000D03*
X228540000Y-116000000D03*
X231080000Y-116000000D03*
X233620000Y-116000000D03*
X236160000Y-116000000D03*
X238700000Y-116000000D03*
X241240000Y-116000000D03*
X243780000Y-116000000D03*
X246320000Y-116000000D03*
X248860000Y-116000000D03*
X251400000Y-116000000D03*
X253940000Y-116000000D03*
X256480000Y-116000000D03*
X259020000Y-116000000D03*
X261560000Y-116000000D03*
X264100000Y-116000000D03*
X226000000Y-118540000D03*
X228540000Y-118540000D03*
X231080000Y-118540000D03*
X233620000Y-118540000D03*
X236160000Y-118540000D03*
X238700000Y-118540000D03*
X241240000Y-118540000D03*
X243780000Y-118540000D03*
X246320000Y-118540000D03*
X248860000Y-118540000D03*
X251400000Y-118540000D03*
X253940000Y-118540000D03*
X256480000Y-118540000D03*
X259020000Y-118540000D03*
X261560000Y-118540000D03*
X264100000Y-118540000D03*
X226000000Y-121080000D03*
X228540000Y-121080000D03*
X231080000Y-121080000D03*
X233620000Y-121080000D03*
X236160000Y-121080000D03*
X238700000Y-121080000D03*
X241240000Y-121080000D03*
X243780000Y-121080000D03*
X246320000Y-121080000D03*
X248860000Y-121080000D03*
X251400000Y-121080000D03*
X253940000Y-121080000D03*
X256480000Y-121080000D03*
X259020000Y-121080000D03*
X261560000Y-121080000D03*
X264100000Y-121080000D03*
X226000000Y-123620000D03*
X228540000Y-123620000D03*
X231080000Y-123620000D03*
X233620000Y-123620000D03*
X236160000Y-123620000D03*
X238700000Y-123620000D03*
X241240000Y-123620000D03*
X243780000Y-123620000D03*
X246320000Y-123620000D03*
X248860000Y-123620000D03*
X251400000Y-123620000D03*
X253940000Y-123620000D03*
X256480000Y-123620000D03*
X259020000Y-123620000D03*
X261560000Y-123620000D03*
X264100000Y-123620000D03*
X226000000Y-126160000D03*
X228540000Y-126160000D03*
X231080000Y-126160000D03*
X233620000Y-126160000D03*
X236160000Y-126160000D03*
X238700000Y-126160000D03*
X241240000Y-126160000D03*
X243780000Y-126160000D03*
X246320000Y-126160000D03*
X248860000Y-126160000D03*
X251400000Y-126160000D03*
X253940000Y-126160000D03*
X256480000Y-126160000D03*
X259020000Y-126160000D03*
X261560000Y-126160000D03*
X264100000Y-126160000D03*
X226000000Y-128700000D03*
X228540000Y-128700000D03*
X231080000Y-128700000D03*
X233620000Y-128700000D03*
X236160000Y-128700000D03*
X238700000Y-128700000D03*
X241240000Y-128700000D03*
X243780000Y-128700000D03*
X246320000Y-128700000D03*
X248860000Y-128700000D03*
X251400000Y-128700000D03*
X253940000Y-128700000D03*
X256480000Y-128700000D03*
X259020000Y-128700000D03*
X261560000Y-128700000D03*
X264100000Y-128700000D03*
X226000000Y-131240000D03*
X228540000Y-131240000D03*
X231080000Y-131240000D03*
X233620000Y-131240000D03*
X236160000Y-131240000D03*
X238700000Y-131240000D03*
X241240000Y-131240000D03*
X243780000Y-131240000D03*
X246320000Y-131240000D03*
X248860000Y-131240000D03*
X251400000Y-131240000D03*
X253940000Y-131240000D03*
X256480000Y-131240000D03*
X259020000Y-131240000D03*
X261560000Y-131240000D03*
X264100000Y-131240000D03*
X226000000Y-133780000D03*
X228540000Y-133780000D03*
X231080000Y-133780000D03*
X233620000Y-133780000D03*
X236160000Y-133780000D03*
X238700000Y-133780000D03*
X241240000Y-133780000D03*
X243780000Y-133780000D03*
X246320000Y-133780000D03*
X248860000Y-133780000D03*
X251400000Y-133780000D03*
X253940000Y-133780000D03*
X256480000Y-133780000D03*
X259020000Y-133780000D03*
X261560000Y-133780000D03*
X264100000Y-133780000D03*
X226000000Y-136320000D03*
X228540000Y-136320000D03*
X231080000Y-136320000D03*
X233620000Y-136320000D03*
X236160000Y-136320000D03*
X238700000Y-136320000D03*
X241240000Y-136320000D03*
X243780000Y-136320000D03*
X246320000Y-136320000D03*
X248860000Y-136320000D03*
X251400000Y-136320000D03*
X253940000Y-136320000D03*
X256480000Y-136320000D03*
X259020000Y-136320000D03*
X261560000Y-136320000D03*
X264100000Y-136320000D03*
X226000000Y-138860000D03*
X228540000Y-138860000D03*
X231080000Y-138860000D03*
X233620000Y-138860000D03*
X236160000Y-138860000D03*
X238700000Y-138860000D03*
X241240000Y-138860000D03*
X243780000Y-138860000D03*
X246320000Y-138860000D03*
X248860000Y-138860000D03*
X251400000Y-138860000D03*
X253940000Y-138860000D03*
X256480000Y-138860000D03*
X259020000Y-138860000D03*
X261560000Y-138860000D03*
X264100000Y-138860000D03*
%TD*%
%TO.C,R3*%
X238760000Y-51308000D03*
X246380000Y-51308000D03*
%TD*%
D20*
%TO.C,V 0.1 curt@zen-room.org*%
X53467000Y-152781000D03*
D21*
X57150000Y-152781000D03*
X60325000Y-152781000D03*
X63500000Y-152781000D03*
X66675000Y-152781000D03*
X69850000Y-152781000D03*
X73025000Y-152781000D03*
X76200000Y-152781000D03*
X79375000Y-152781000D03*
X82550000Y-152781000D03*
X85725000Y-152781000D03*
X88900000Y-152781000D03*
X92075000Y-152781000D03*
X95250000Y-152781000D03*
X98425000Y-152781000D03*
X101600000Y-152781000D03*
X104775000Y-152781000D03*
X107950000Y-152781000D03*
X111125000Y-152781000D03*
X114300000Y-152781000D03*
X117475000Y-152781000D03*
X120650000Y-152781000D03*
X123825000Y-152781000D03*
X127000000Y-152781000D03*
X130175000Y-152781000D03*
X133350000Y-152781000D03*
X136525000Y-152781000D03*
X139700000Y-152781000D03*
X142875000Y-152781000D03*
X146050000Y-152781000D03*
X149225000Y-152781000D03*
X152400000Y-152781000D03*
X155575000Y-152781000D03*
X158750000Y-152781000D03*
X161925000Y-152781000D03*
X165100000Y-152781000D03*
X168275000Y-152781000D03*
X171450000Y-152781000D03*
X174625000Y-152781000D03*
X177800000Y-152781000D03*
X180975000Y-152781000D03*
X184150000Y-152781000D03*
X187325000Y-152781000D03*
X190500000Y-152781000D03*
X193675000Y-152781000D03*
X196850000Y-152781000D03*
X200025000Y-152781000D03*
X203200000Y-152781000D03*
X206375000Y-152781000D03*
D20*
X210058000Y-152781000D03*
%TD*%
D14*
%TO.C,C5*%
X226187000Y-37973000D03*
X223687000Y-37973000D03*
%TD*%
D13*
%TO.C,U6*%
X75700000Y-27469200D03*
D14*
X75700000Y-30009200D03*
X75700000Y-32549200D03*
X75700000Y-35089200D03*
X75700000Y-37629200D03*
X75700000Y-40169200D03*
X75700000Y-42709200D03*
X75700000Y-45249200D03*
X75700000Y-47789200D03*
X75700000Y-50329200D03*
X75700000Y-52869200D03*
X75700000Y-55409200D03*
X75700000Y-57949200D03*
X75700000Y-60489200D03*
X75700000Y-63029200D03*
X75700000Y-65569200D03*
X90940000Y-65569200D03*
X90940000Y-63029200D03*
X90940000Y-60489200D03*
X90940000Y-57949200D03*
X90940000Y-55409200D03*
X90940000Y-52869200D03*
X90940000Y-50329200D03*
X90940000Y-47789200D03*
X90940000Y-45249200D03*
X90940000Y-42709200D03*
X90940000Y-40169200D03*
X90940000Y-37629200D03*
X90940000Y-35089200D03*
X90940000Y-32549200D03*
X90940000Y-30009200D03*
X90940000Y-27469200D03*
%TD*%
%TO.C,C8*%
X64770000Y-36703000D03*
X67310000Y-36703000D03*
%TD*%
%TO.C,J9*%
X256286000Y-88646000D03*
X256286000Y-91186000D03*
X256286000Y-93726000D03*
X256286000Y-96266000D03*
X256286000Y-98806000D03*
X256286000Y-101346000D03*
%TD*%
%TO.C,J10*%
X31496000Y-65405000D03*
X28956000Y-65405000D03*
X26416000Y-65405000D03*
X31496000Y-62865000D03*
X28956000Y-62865000D03*
X26416000Y-62865000D03*
X31496000Y-60325000D03*
X28956000Y-60325000D03*
X26416000Y-60325000D03*
X31496000Y-57785000D03*
X28956000Y-57785000D03*
X26416000Y-57785000D03*
X31496000Y-55245000D03*
X28956000Y-55245000D03*
X26416000Y-55245000D03*
X31496000Y-52705000D03*
X28956000Y-52705000D03*
X26416000Y-52705000D03*
X31496000Y-50165000D03*
X28956000Y-50165000D03*
X26416000Y-50165000D03*
X31496000Y-47625000D03*
X28956000Y-47625000D03*
X26416000Y-47625000D03*
%TD*%
D13*
%TO.C,U8*%
X123700000Y-27469200D03*
D14*
X123700000Y-30009200D03*
X123700000Y-32549200D03*
X123700000Y-35089200D03*
X123700000Y-37629200D03*
X123700000Y-40169200D03*
X123700000Y-42709200D03*
X123700000Y-45249200D03*
X123700000Y-47789200D03*
X123700000Y-50329200D03*
X123700000Y-52869200D03*
X123700000Y-55409200D03*
X123700000Y-57949200D03*
X123700000Y-60489200D03*
X123700000Y-63029200D03*
X123700000Y-65569200D03*
X138940000Y-65569200D03*
X138940000Y-63029200D03*
X138940000Y-60489200D03*
X138940000Y-57949200D03*
X138940000Y-55409200D03*
X138940000Y-52869200D03*
X138940000Y-50329200D03*
X138940000Y-47789200D03*
X138940000Y-45249200D03*
X138940000Y-42709200D03*
X138940000Y-40169200D03*
X138940000Y-37629200D03*
X138940000Y-35089200D03*
X138940000Y-32549200D03*
X138940000Y-30009200D03*
X138940000Y-27469200D03*
%TD*%
M02*
