%TF.GenerationSoftware,KiCad,Pcbnew,9.0.2+dfsg-1*%
%TF.CreationDate,2026-09-04T21:21:37-07:00*%
%TF.ProjectId,z280-s100,7a323830-2d73-4313-9030-2e6b69636164,rev?*%
%TF.SameCoordinates,Original*%
%TF.FileFunction,Copper,L4,Bot*%
%TF.FilePolarity,Positive*%
%FSLAX46Y46*%
G04 Gerber Fmt 4.6, Leading zero omitted, Abs format (unit mm)*
G04 Created by KiCad (PCBNEW 9.0.2+dfsg-1) date 2026-09-04 21:21:37*
%MOMM*%
%LPD*%
G01*
G04 APERTURE LIST*
G04 Aperture macros list*
%AMRoundRect*
0 Rectangle with rounded corners*
0 $1 Rounding radius*
0 $2 $3 $4 $5 $6 $7 $8 $9 X,Y pos of 4 corners*
0 Add a 4 corners polygon primitive as box body*
4,1,4,$2,$3,$4,$5,$6,$7,$8,$9,$2,$3,0*
0 Add four circle primitives for the rounded corners*
1,1,$1+$1,$2,$3*
1,1,$1+$1,$4,$5*
1,1,$1+$1,$6,$7*
1,1,$1+$1,$8,$9*
0 Add four rect primitives between the rounded corners*
20,1,$1+$1,$2,$3,$4,$5,0*
20,1,$1+$1,$4,$5,$6,$7,0*
20,1,$1+$1,$6,$7,$8,$9,0*
20,1,$1+$1,$8,$9,$2,$3,0*%
G04 Aperture macros list end*
%TA.AperFunction,ComponentPad*%
%ADD10R,2.600000X2.600000*%
%TD*%
%TA.AperFunction,ComponentPad*%
%ADD11C,2.600000*%
%TD*%
%TA.AperFunction,ComponentPad*%
%ADD12C,6.350000*%
%TD*%
%TA.AperFunction,ComponentPad*%
%ADD13RoundRect,0.250000X-0.550000X-0.550000X0.550000X-0.550000X0.550000X0.550000X-0.550000X0.550000X0*%
%TD*%
%TA.AperFunction,ComponentPad*%
%ADD14C,1.600000*%
%TD*%
%TA.AperFunction,ComponentPad*%
%ADD15R,1.700000X1.700000*%
%TD*%
%TA.AperFunction,ComponentPad*%
%ADD16C,1.700000*%
%TD*%
%TA.AperFunction,ComponentPad*%
%ADD17C,1.000000*%
%TD*%
%TA.AperFunction,ComponentPad*%
%ADD18R,1.422400X1.422400*%
%TD*%
%TA.AperFunction,ComponentPad*%
%ADD19C,1.422400*%
%TD*%
%TA.AperFunction,SMDPad,CuDef*%
%ADD20R,2.790000X8.380000*%
%TD*%
%TA.AperFunction,SMDPad,CuDef*%
%ADD21R,1.780000X8.380000*%
%TD*%
%TA.AperFunction,ViaPad*%
%ADD22C,1.000000*%
%TD*%
%TA.AperFunction,ViaPad*%
%ADD23C,0.889000*%
%TD*%
%TA.AperFunction,Conductor*%
%ADD24C,0.203200*%
%TD*%
G04 APERTURE END LIST*
D10*
%TO.P,U27,1*%
%TO.N,+8V*%
X53616000Y-133604000D03*
D11*
%TO.P,U27,2*%
%TO.N,+5V*%
X53616000Y-122684000D03*
D12*
%TO.P,U27,3*%
%TO.N,GND*%
X66916000Y-128154000D03*
X36716000Y-128154000D03*
%TD*%
D13*
%TO.P,U22,1*%
%TO.N,A21*%
X102677000Y-121412000D03*
D14*
%TO.P,U22,2*%
%TO.N,A22*%
X102677000Y-123952000D03*
%TO.P,U22,3*%
%TO.N,A23*%
X102677000Y-126492000D03*
%TO.P,U22,4*%
%TO.N,GND*%
X102677000Y-129032000D03*
%TO.P,U22,5*%
X102677000Y-131572000D03*
%TO.P,U22,6*%
%TO.N,+5V*%
X102677000Y-134112000D03*
%TO.P,U22,7*%
%TO.N,unconnected-(U22-Y7-Pad7)*%
X102677000Y-136652000D03*
%TO.P,U22,8*%
%TO.N,GND*%
X102677000Y-139192000D03*
%TO.P,U22,9*%
%TO.N,unconnected-(U22-Y6-Pad9)*%
X110297000Y-139192000D03*
%TO.P,U22,10*%
%TO.N,unconnected-(U22-Y5-Pad10)*%
X110297000Y-136652000D03*
%TO.P,U22,11*%
%TO.N,unconnected-(U22-Y4-Pad11)*%
X110297000Y-134112000D03*
%TO.P,U22,12*%
%TO.N,unconnected-(U22-Y3-Pad12)*%
X110297000Y-131572000D03*
%TO.P,U22,13*%
%TO.N,unconnected-(U22-Y2-Pad13)*%
X110297000Y-129032000D03*
%TO.P,U22,14*%
%TO.N,unconnected-(U22-Y1-Pad14)*%
X110297000Y-126492000D03*
%TO.P,U22,15*%
%TO.N,SRAM_WIN*%
X110297000Y-123952000D03*
%TO.P,U22,16*%
%TO.N,+5V*%
X110297000Y-121412000D03*
%TD*%
%TO.P,C10,1*%
%TO.N,+5V*%
X94030000Y-40000000D03*
%TO.P,C10,2*%
%TO.N,GND*%
X96570000Y-40000000D03*
%TD*%
%TO.P,C13,1*%
%TO.N,+5V*%
X177800000Y-27051000D03*
%TO.P,C13,2*%
%TO.N,GND*%
X180340000Y-27051000D03*
%TD*%
D13*
%TO.P,U25,1*%
%TO.N,DO_DIR*%
X168859000Y-116332000D03*
D14*
%TO.P,U25,2*%
%TO.N,CPLD_DO0*%
X168859000Y-118872000D03*
%TO.P,U25,3*%
%TO.N,CPLD_DO1*%
X168859000Y-121412000D03*
%TO.P,U25,4*%
%TO.N,CPLD_DO2*%
X168859000Y-123952000D03*
%TO.P,U25,5*%
%TO.N,CPLD_DO3*%
X168859000Y-126492000D03*
%TO.P,U25,6*%
%TO.N,CPLD_DO4*%
X168859000Y-129032000D03*
%TO.P,U25,7*%
%TO.N,CPLD_DO5*%
X168859000Y-131572000D03*
%TO.P,U25,8*%
%TO.N,CPLD_DO6*%
X168859000Y-134112000D03*
%TO.P,U25,9*%
%TO.N,CPLD_DO7*%
X168859000Y-136652000D03*
%TO.P,U25,10*%
%TO.N,GND*%
X168859000Y-139192000D03*
%TO.P,U25,11*%
%TO.N,S100_DO0*%
X176479000Y-139192000D03*
%TO.P,U25,12*%
%TO.N,S100_DO1*%
X176479000Y-136652000D03*
%TO.P,U25,13*%
%TO.N,S100_DO2*%
X176479000Y-134112000D03*
%TO.P,U25,14*%
%TO.N,S100_DO3*%
X176479000Y-131572000D03*
%TO.P,U25,15*%
%TO.N,S100_DO4*%
X176479000Y-129032000D03*
%TO.P,U25,16*%
%TO.N,S100_DO5*%
X176479000Y-126492000D03*
%TO.P,U25,17*%
%TO.N,S100_DO6*%
X176479000Y-123952000D03*
%TO.P,U25,18*%
%TO.N,S100_DO7*%
X176479000Y-121412000D03*
%TO.P,U25,19*%
%TO.N,GND*%
X176479000Y-118872000D03*
%TO.P,U25,20*%
%TO.N,+5V*%
X176479000Y-116332000D03*
%TD*%
D13*
%TO.P,U15,1*%
%TO.N,Z_BUSACK*%
X142386000Y-116332000D03*
D14*
%TO.P,U15,2*%
%TO.N,A0*%
X142386000Y-118872000D03*
%TO.P,U15,3*%
%TO.N,A1*%
X142386000Y-121412000D03*
%TO.P,U15,4*%
%TO.N,A2*%
X142386000Y-123952000D03*
%TO.P,U15,5*%
%TO.N,A3*%
X142386000Y-126492000D03*
%TO.P,U15,6*%
%TO.N,A4*%
X142386000Y-129032000D03*
%TO.P,U15,7*%
%TO.N,A5*%
X142386000Y-131572000D03*
%TO.P,U15,8*%
%TO.N,A6*%
X142386000Y-134112000D03*
%TO.P,U15,9*%
%TO.N,A7*%
X142386000Y-136652000D03*
%TO.P,U15,10*%
%TO.N,GND*%
X142386000Y-139192000D03*
%TO.P,U15,11*%
%TO.N,S100_A0*%
X150006000Y-139192000D03*
%TO.P,U15,12*%
%TO.N,S100_A1*%
X150006000Y-136652000D03*
%TO.P,U15,13*%
%TO.N,S100_A2*%
X150006000Y-134112000D03*
%TO.P,U15,14*%
%TO.N,S100_A3*%
X150006000Y-131572000D03*
%TO.P,U15,15*%
%TO.N,S100_A4*%
X150006000Y-129032000D03*
%TO.P,U15,16*%
%TO.N,S100_A5*%
X150006000Y-126492000D03*
%TO.P,U15,17*%
%TO.N,S100_A6*%
X150006000Y-123952000D03*
%TO.P,U15,18*%
%TO.N,S100_A7*%
X150006000Y-121412000D03*
%TO.P,U15,19*%
%TO.N,S100_A_OE*%
X150006000Y-118872000D03*
%TO.P,U15,20*%
%TO.N,+5V*%
X150006000Y-116332000D03*
%TD*%
D13*
%TO.P,U20,1*%
%TO.N,+5V*%
X209936000Y-115951000D03*
D14*
%TO.P,U20,2*%
%TO.N,CPLD_pHLDA*%
X209936000Y-118491000D03*
%TO.P,U20,3*%
%TO.N,GND*%
X209936000Y-121031000D03*
%TO.P,U20,4*%
X209936000Y-123571000D03*
%TO.P,U20,5*%
X209936000Y-126111000D03*
%TO.P,U20,6*%
X209936000Y-128651000D03*
%TO.P,U20,7*%
X209936000Y-131191000D03*
%TO.P,U20,8*%
X209936000Y-133731000D03*
%TO.P,U20,9*%
X209936000Y-136271000D03*
%TO.P,U20,10*%
X209936000Y-138811000D03*
%TO.P,U20,11*%
%TO.N,S100_pHLDA*%
X217556000Y-138811000D03*
%TO.P,U20,12*%
%TO.N,unconnected-(U20-B1-Pad12)*%
X217556000Y-136271000D03*
%TO.P,U20,13*%
%TO.N,unconnected-(U20-B2-Pad13)*%
X217556000Y-133731000D03*
%TO.P,U20,14*%
%TO.N,unconnected-(U20-B3-Pad14)*%
X217556000Y-131191000D03*
%TO.P,U20,15*%
%TO.N,unconnected-(U20-B4-Pad15)*%
X217556000Y-128651000D03*
%TO.P,U20,16*%
%TO.N,unconnected-(U20-B5-Pad16)*%
X217556000Y-126111000D03*
%TO.P,U20,17*%
%TO.N,unconnected-(U20-B6-Pad17)*%
X217556000Y-123571000D03*
%TO.P,U20,18*%
%TO.N,unconnected-(U20-B7-Pad18)*%
X217556000Y-121031000D03*
%TO.P,U20,19*%
%TO.N,GND*%
X217556000Y-118491000D03*
%TO.P,U20,20*%
%TO.N,+5V*%
X217556000Y-115951000D03*
%TD*%
%TO.P,R4,1*%
%TO.N,+5V*%
X17653000Y-91948000D03*
%TO.P,R4,2*%
%TO.N,S100_SIXTN*%
X25273000Y-91948000D03*
%TD*%
%TO.P,C22,1*%
%TO.N,+5V*%
X175641000Y-108585000D03*
%TO.P,C22,2*%
%TO.N,GND*%
X178181000Y-108585000D03*
%TD*%
%TO.P,C3,1*%
%TO.N,MAX_VP*%
X216789000Y-45740000D03*
%TO.P,C3,2*%
%TO.N,GND*%
X216789000Y-48240000D03*
%TD*%
%TO.P,C16,1*%
%TO.N,+5V*%
X110730000Y-92000000D03*
%TO.P,C16,2*%
%TO.N,GND*%
X113270000Y-92000000D03*
%TD*%
D13*
%TO.P,U3,1*%
%TO.N,SLAVE*%
X62922300Y-42799000D03*
D14*
%TO.P,U3,2*%
%TO.N,AD11*%
X62922300Y-45339000D03*
%TO.P,U3,3*%
%TO.N,AD12*%
X62922300Y-47879000D03*
%TO.P,U3,4*%
%TO.N,AD13*%
X62922300Y-50419000D03*
%TO.P,U3,5*%
%TO.N,AD14*%
X62922300Y-52959000D03*
%TO.P,U3,6*%
%TO.N,AD15*%
X62922300Y-55499000D03*
%TO.P,U3,7*%
%TO.N,GND*%
X62922300Y-58039000D03*
%TO.P,U3,8*%
X62922300Y-60579000D03*
%TO.P,U3,9*%
X62922300Y-63119000D03*
%TO.P,U3,10*%
X62922300Y-65659000D03*
%TO.P,U3,11*%
%TO.N,LATCH_LE*%
X70542300Y-65659000D03*
%TO.P,U3,12*%
%TO.N,A11*%
X70542300Y-63119000D03*
%TO.P,U3,13*%
%TO.N,A12*%
X70542300Y-60579000D03*
%TO.P,U3,14*%
%TO.N,A13*%
X70542300Y-58039000D03*
%TO.P,U3,15*%
%TO.N,A14*%
X70542300Y-55499000D03*
%TO.P,U3,16*%
%TO.N,A15*%
X70542300Y-52959000D03*
%TO.P,U3,17*%
%TO.N,unconnected-(U3-Q5-Pad17)*%
X70542300Y-50419000D03*
%TO.P,U3,18*%
%TO.N,unconnected-(U3-Q6-Pad18)*%
X70542300Y-47879000D03*
%TO.P,U3,19*%
%TO.N,unconnected-(U3-Q7-Pad19)*%
X70542300Y-45339000D03*
%TO.P,U3,20*%
%TO.N,+5V*%
X70542300Y-42799000D03*
%TD*%
D15*
%TO.P,J11,1*%
%TO.N,SLAVE_ONLY*%
X250000000Y-51308000D03*
D16*
%TO.P,J11,2*%
%TO.N,+5V*%
X250000000Y-53848000D03*
%TD*%
D13*
%TO.P,U2,1*%
%TO.N,SLAVE*%
X50476300Y-42799000D03*
D14*
%TO.P,U2,2*%
%TO.N,AD3*%
X50476300Y-45339000D03*
%TO.P,U2,3*%
%TO.N,AD4*%
X50476300Y-47879000D03*
%TO.P,U2,4*%
%TO.N,AD5*%
X50476300Y-50419000D03*
%TO.P,U2,5*%
%TO.N,AD6*%
X50476300Y-52959000D03*
%TO.P,U2,6*%
%TO.N,AD7*%
X50476300Y-55499000D03*
%TO.P,U2,7*%
%TO.N,AD8*%
X50476300Y-58039000D03*
%TO.P,U2,8*%
%TO.N,AD9*%
X50476300Y-60579000D03*
%TO.P,U2,9*%
%TO.N,AD10*%
X50476300Y-63119000D03*
%TO.P,U2,10*%
%TO.N,GND*%
X50476300Y-65659000D03*
%TO.P,U2,11*%
%TO.N,LATCH_LE*%
X58096300Y-65659000D03*
%TO.P,U2,12*%
%TO.N,A3*%
X58096300Y-63119000D03*
%TO.P,U2,13*%
%TO.N,A4*%
X58096300Y-60579000D03*
%TO.P,U2,14*%
%TO.N,A5*%
X58096300Y-58039000D03*
%TO.P,U2,15*%
%TO.N,A6*%
X58096300Y-55499000D03*
%TO.P,U2,16*%
%TO.N,A7*%
X58096300Y-52959000D03*
%TO.P,U2,17*%
%TO.N,A8*%
X58096300Y-50419000D03*
%TO.P,U2,18*%
%TO.N,A9*%
X58096300Y-47879000D03*
%TO.P,U2,19*%
%TO.N,A10*%
X58096300Y-45339000D03*
%TO.P,U2,20*%
%TO.N,+5V*%
X58096300Y-42799000D03*
%TD*%
D13*
%TO.P,U16,1*%
%TO.N,Z_BUSACK*%
X155622000Y-116332000D03*
D14*
%TO.P,U16,2*%
%TO.N,A8*%
X155622000Y-118872000D03*
%TO.P,U16,3*%
%TO.N,A9*%
X155622000Y-121412000D03*
%TO.P,U16,4*%
%TO.N,A10*%
X155622000Y-123952000D03*
%TO.P,U16,5*%
%TO.N,A11*%
X155622000Y-126492000D03*
%TO.P,U16,6*%
%TO.N,A12*%
X155622000Y-129032000D03*
%TO.P,U16,7*%
%TO.N,A13*%
X155622000Y-131572000D03*
%TO.P,U16,8*%
%TO.N,A14*%
X155622000Y-134112000D03*
%TO.P,U16,9*%
%TO.N,A15*%
X155622000Y-136652000D03*
%TO.P,U16,10*%
%TO.N,GND*%
X155622000Y-139192000D03*
%TO.P,U16,11*%
%TO.N,S100_A8*%
X163242000Y-139192000D03*
%TO.P,U16,12*%
%TO.N,S100_A9*%
X163242000Y-136652000D03*
%TO.P,U16,13*%
%TO.N,S100_A10*%
X163242000Y-134112000D03*
%TO.P,U16,14*%
%TO.N,S100_A11*%
X163242000Y-131572000D03*
%TO.P,U16,15*%
%TO.N,S100_A12*%
X163242000Y-129032000D03*
%TO.P,U16,16*%
%TO.N,S100_A13*%
X163242000Y-126492000D03*
%TO.P,U16,17*%
%TO.N,S100_A14*%
X163242000Y-123952000D03*
%TO.P,U16,18*%
%TO.N,S100_A15*%
X163242000Y-121412000D03*
%TO.P,U16,19*%
%TO.N,S100_A_OE*%
X163242000Y-118872000D03*
%TO.P,U16,20*%
%TO.N,+5V*%
X163242000Y-116332000D03*
%TD*%
D17*
%TO.P,U13,1*%
%TO.N,GND*%
X167640000Y-97663000D03*
%TO.P,U13,2*%
%TO.N,Z_RESET*%
X168910000Y-97663000D03*
%TO.P,U13,3*%
%TO.N,+5V*%
X170180000Y-97663000D03*
%TD*%
D13*
%TO.P,U23,1*%
%TO.N,GND*%
X76205000Y-116332000D03*
D14*
%TO.P,U23,2*%
X76205000Y-118872000D03*
%TO.P,U23,3*%
%TO.N,A16*%
X76205000Y-121412000D03*
%TO.P,U23,4*%
%TO.N,GND*%
X76205000Y-123952000D03*
%TO.P,U23,5*%
%TO.N,A17*%
X76205000Y-126492000D03*
%TO.P,U23,6*%
%TO.N,GND*%
X76205000Y-129032000D03*
%TO.P,U23,7*%
%TO.N,A18*%
X76205000Y-131572000D03*
%TO.P,U23,8*%
%TO.N,GND*%
X76205000Y-134112000D03*
%TO.P,U23,9*%
%TO.N,A19*%
X76205000Y-136652000D03*
%TO.P,U23,10*%
%TO.N,GND*%
X76205000Y-139192000D03*
%TO.P,U23,11*%
%TO.N,A20*%
X83825000Y-139192000D03*
%TO.P,U23,12*%
%TO.N,+5V*%
X83825000Y-136652000D03*
%TO.P,U23,13*%
%TO.N,A21*%
X83825000Y-134112000D03*
%TO.P,U23,14*%
%TO.N,+5V*%
X83825000Y-131572000D03*
%TO.P,U23,15*%
%TO.N,A22*%
X83825000Y-129032000D03*
%TO.P,U23,16*%
%TO.N,+5V*%
X83825000Y-126492000D03*
%TO.P,U23,17*%
%TO.N,A23*%
X83825000Y-123952000D03*
%TO.P,U23,18*%
%TO.N,+5V*%
X83825000Y-121412000D03*
%TO.P,U23,19*%
%TO.N,FLASH_WIN*%
X83825000Y-118872000D03*
%TO.P,U23,20*%
%TO.N,+5V*%
X83825000Y-116332000D03*
%TD*%
D13*
%TO.P,U14,1*%
%TO.N,MAX_C1P*%
X221112000Y-42418000D03*
D14*
%TO.P,U14,2*%
%TO.N,MAX_VP*%
X221112000Y-44958000D03*
%TO.P,U14,3*%
%TO.N,MAX_C1M*%
X221112000Y-47498000D03*
%TO.P,U14,4*%
%TO.N,MAX_C2P*%
X221112000Y-50038000D03*
%TO.P,U14,5*%
%TO.N,MAX_C2M*%
X221112000Y-52578000D03*
%TO.P,U14,6*%
%TO.N,MAX_VM*%
X221112000Y-55118000D03*
%TO.P,U14,7*%
%TO.N,NC*%
X221112000Y-57658000D03*
%TO.P,U14,8*%
X221112000Y-60198000D03*
%TO.P,U14,9*%
X228732000Y-60198000D03*
%TO.P,U14,10*%
X228732000Y-57658000D03*
%TO.P,U14,11*%
%TO.N,Z_TXD*%
X228732000Y-55118000D03*
%TO.P,U14,12*%
%TO.N,Z_RXD*%
X228732000Y-52578000D03*
%TO.P,U14,13*%
%TO.N,MAX_RS232_RX*%
X228732000Y-50038000D03*
%TO.P,U14,14*%
%TO.N,MAX_RS232_TX*%
X228732000Y-47498000D03*
%TO.P,U14,15*%
%TO.N,GND*%
X228732000Y-44958000D03*
%TO.P,U14,16*%
%TO.N,+5V*%
X228732000Y-42418000D03*
%TD*%
D18*
%TO.P,U4,1*%
%TO.N,+5V*%
X136144000Y-76708000D03*
D19*
%TO.P,U4,2*%
X136144000Y-79248000D03*
%TO.P,U4,3*%
X133604000Y-76708000D03*
%TO.P,U4,4*%
%TO.N,MEM_WE_H*%
X133604000Y-79248000D03*
%TO.P,U4,5*%
%TO.N,MEM_OE*%
X131064000Y-76708000D03*
%TO.P,U4,6*%
%TO.N,MEM_WE_L*%
X131064000Y-79248000D03*
%TO.P,U4,7*%
%TO.N,GND*%
X128524000Y-76708000D03*
%TO.P,U4,8*%
%TO.N,MEM_CE1*%
X128524000Y-79248000D03*
%TO.P,U4,9*%
%TO.N,A20*%
X125984000Y-76708000D03*
%TO.P,U4,10*%
%TO.N,MEM_CE0*%
X125984000Y-79248000D03*
%TO.P,U4,11*%
%TO.N,CFG_OE*%
X123444000Y-76708000D03*
%TO.P,U4,12*%
%TO.N,Z_AS*%
X120904000Y-79248000D03*
%TO.P,U4,13*%
%TO.N,+5V*%
X123444000Y-79248000D03*
%TO.P,U4,14*%
%TO.N,JTAG_TDI*%
X120904000Y-81788000D03*
%TO.P,U4,15*%
%TO.N,Z_DS*%
X123444000Y-81788000D03*
%TO.P,U4,16*%
%TO.N,Z_RW*%
X120904000Y-84328000D03*
%TO.P,U4,17*%
%TO.N,Z_BW*%
X123444000Y-84328000D03*
%TO.P,U4,18*%
%TO.N,Z_ST0*%
X120904000Y-86868000D03*
%TO.P,U4,19*%
%TO.N,GND*%
X123444000Y-86868000D03*
%TO.P,U4,20*%
%TO.N,Z_ST1*%
X120904000Y-89408000D03*
%TO.P,U4,21*%
%TO.N,Z_ST2*%
X123444000Y-89408000D03*
%TO.P,U4,22*%
%TO.N,Z_ST3*%
X120904000Y-91948000D03*
%TO.P,U4,23*%
%TO.N,JTAG_TMS*%
X123444000Y-91948000D03*
%TO.P,U4,24*%
%TO.N,Z_IE*%
X120904000Y-94488000D03*
%TO.P,U4,25*%
%TO.N,Z_BUSACK*%
X123444000Y-94488000D03*
%TO.P,U4,26*%
%TO.N,+5V*%
X120904000Y-97028000D03*
%TO.P,U4,27*%
%TO.N,Z_RESET*%
X123444000Y-97028000D03*
%TO.P,U4,28*%
%TO.N,Z_WAIT*%
X120904000Y-99568000D03*
%TO.P,U4,29*%
%TO.N,Z_BUSREQ*%
X123444000Y-99568000D03*
%TO.P,U4,30*%
%TO.N,CPLD_sINTA*%
X120904000Y-102108000D03*
%TO.P,U4,31*%
%TO.N,CPLD_sHLTA*%
X123444000Y-102108000D03*
%TO.P,U4,32*%
%TO.N,GND*%
X120904000Y-104648000D03*
%TO.P,U4,33*%
%TO.N,S100_HOLD*%
X123444000Y-107188000D03*
%TO.P,U4,34*%
%TO.N,S100_pRDY*%
X123444000Y-104648000D03*
%TO.P,U4,35*%
%TO.N,S100_XRDY*%
X125984000Y-107188000D03*
%TO.P,U4,36*%
%TO.N,S100_ADSB*%
X125984000Y-104648000D03*
%TO.P,U4,37*%
%TO.N,S100_SDSB*%
X128524000Y-107188000D03*
%TO.P,U4,38*%
%TO.N,+5V*%
X128524000Y-104648000D03*
%TO.P,U4,39*%
%TO.N,S100_CDSB*%
X131064000Y-107188000D03*
%TO.P,U4,40*%
%TO.N,S100_SIXTN*%
X131064000Y-104648000D03*
%TO.P,U4,41*%
%TO.N,CPLD_pSYNC*%
X133604000Y-107188000D03*
%TO.P,U4,42*%
%TO.N,GND*%
X133604000Y-104648000D03*
%TO.P,U4,43*%
%TO.N,+5V*%
X136144000Y-107188000D03*
%TO.P,U4,44*%
%TO.N,CPLD_pSTVAL*%
X136144000Y-104648000D03*
%TO.P,U4,45*%
%TO.N,CPLD_pDBIN*%
X138684000Y-107188000D03*
%TO.P,U4,46*%
%TO.N,CPLD_pWR*%
X138684000Y-104648000D03*
%TO.P,U4,47*%
%TO.N,GND*%
X141224000Y-107188000D03*
%TO.P,U4,48*%
%TO.N,CPLD_pHLDA*%
X141224000Y-104648000D03*
%TO.P,U4,49*%
%TO.N,CPLD_sMEMR*%
X143764000Y-107188000D03*
%TO.P,U4,50*%
%TO.N,CPLD_sWO*%
X143764000Y-104648000D03*
%TO.P,U4,51*%
%TO.N,CPLD_sINP*%
X146304000Y-107188000D03*
%TO.P,U4,52*%
%TO.N,CPLD_sOUT*%
X146304000Y-104648000D03*
%TO.P,U4,53*%
%TO.N,+5V*%
X148844000Y-107188000D03*
%TO.P,U4,54*%
%TO.N,MST_RD*%
X151384000Y-104648000D03*
%TO.P,U4,55*%
%TO.N,MST_WR*%
X148844000Y-104648000D03*
%TO.P,U4,56*%
%TO.N,SLV_RD*%
X151384000Y-102108000D03*
%TO.P,U4,57*%
%TO.N,SLV_WR*%
X148844000Y-102108000D03*
%TO.P,U4,58*%
%TO.N,SLAVE*%
X151384000Y-99568000D03*
%TO.P,U4,59*%
%TO.N,GND*%
X148844000Y-99568000D03*
%TO.P,U4,60*%
%TO.N,XFR16*%
X151384000Y-97028000D03*
%TO.P,U4,61*%
%TO.N,SPLIT*%
X148844000Y-97028000D03*
%TO.P,U4,62*%
%TO.N,JTAG_TCK*%
X151384000Y-94488000D03*
%TO.P,U4,63*%
%TO.N,LA0*%
X148844000Y-94488000D03*
%TO.P,U4,64*%
%TO.N,SLAVE_ONLY*%
X151384000Y-91948000D03*
%TO.P,U4,65*%
%TO.N,CPLD_sXTRQ*%
X148844000Y-91948000D03*
%TO.P,U4,66*%
%TO.N,+5V*%
X151384000Y-89408000D03*
%TO.P,U4,67*%
%TO.N,S100_A_OE*%
X148844000Y-89408000D03*
%TO.P,U4,68*%
%TO.N,S100_S_OE*%
X151384000Y-86868000D03*
%TO.P,U4,69*%
%TO.N,S100_C_OE*%
X148844000Y-86868000D03*
%TO.P,U4,70*%
%TO.N,SRAM_WIN*%
X151384000Y-84328000D03*
%TO.P,U4,71*%
%TO.N,JTAG_CHAIN*%
X148844000Y-84328000D03*
%TO.P,U4,72*%
%TO.N,GND*%
X151384000Y-81788000D03*
%TO.P,U4,73*%
%TO.N,FLASH_WIN*%
X148844000Y-81788000D03*
%TO.P,U4,74*%
%TO.N,SLAVE_WIN*%
X151384000Y-79248000D03*
%TO.P,U4,75*%
%TO.N,N/C*%
X148844000Y-76708000D03*
%TO.P,U4,76*%
X148844000Y-79248000D03*
%TO.P,U4,77*%
X146304000Y-76708000D03*
%TO.P,U4,78*%
%TO.N,+5V*%
X146304000Y-79248000D03*
%TO.P,U4,79*%
%TO.N,FLASH_OE*%
X143764000Y-76708000D03*
%TO.P,U4,80*%
%TO.N,FLASH_WE*%
X143764000Y-79248000D03*
%TO.P,U4,81*%
%TO.N,FLASH_CE*%
X141224000Y-76708000D03*
%TO.P,U4,82*%
%TO.N,GND*%
X141224000Y-79248000D03*
%TO.P,U4,83*%
%TO.N,Z_CLK*%
X138684000Y-76708000D03*
%TO.P,U4,84*%
%TO.N,+5V*%
X138684000Y-79248000D03*
%TD*%
D14*
%TO.P,C12,1*%
%TO.N,+5V*%
X142030000Y-40000000D03*
%TO.P,C12,2*%
%TO.N,GND*%
X144570000Y-40000000D03*
%TD*%
%TO.P,U12,1*%
%TO.N,+8V*%
X20190000Y-139250000D03*
%TO.P,U12,2*%
%TO.N,GND*%
X22730000Y-139250000D03*
%TO.P,U12,3*%
%TO.N,+5V*%
X25270000Y-139250000D03*
%TD*%
%TO.P,C11,1*%
%TO.N,+5V*%
X118030000Y-40000000D03*
%TO.P,C11,2*%
%TO.N,GND*%
X120570000Y-40000000D03*
%TD*%
D13*
%TO.P,U17,1*%
%TO.N,Z_BUSACK*%
X89441200Y-116332000D03*
D14*
%TO.P,U17,2*%
%TO.N,A16*%
X89441200Y-118872000D03*
%TO.P,U17,3*%
%TO.N,A17*%
X89441200Y-121412000D03*
%TO.P,U17,4*%
%TO.N,A18*%
X89441200Y-123952000D03*
%TO.P,U17,5*%
%TO.N,A19*%
X89441200Y-126492000D03*
%TO.P,U17,6*%
%TO.N,A20*%
X89441200Y-129032000D03*
%TO.P,U17,7*%
%TO.N,A21*%
X89441200Y-131572000D03*
%TO.P,U17,8*%
%TO.N,A22*%
X89441200Y-134112000D03*
%TO.P,U17,9*%
%TO.N,A23*%
X89441200Y-136652000D03*
%TO.P,U17,10*%
%TO.N,GND*%
X89441200Y-139192000D03*
%TO.P,U17,11*%
%TO.N,S100_A16*%
X97061200Y-139192000D03*
%TO.P,U17,12*%
%TO.N,S100_A17*%
X97061200Y-136652000D03*
%TO.P,U17,13*%
%TO.N,S100_A18*%
X97061200Y-134112000D03*
%TO.P,U17,14*%
%TO.N,S100_A19*%
X97061200Y-131572000D03*
%TO.P,U17,15*%
%TO.N,S100_A20*%
X97061200Y-129032000D03*
%TO.P,U17,16*%
%TO.N,S100_A21*%
X97061200Y-126492000D03*
%TO.P,U17,17*%
%TO.N,S100_A22*%
X97061200Y-123952000D03*
%TO.P,U17,18*%
%TO.N,S100_A23*%
X97061200Y-121412000D03*
%TO.P,U17,19*%
%TO.N,S100_A_OE*%
X97061200Y-118872000D03*
%TO.P,U17,20*%
%TO.N,+5V*%
X97061200Y-116332000D03*
%TD*%
%TO.P,C23,1*%
%TO.N,+5V*%
X190373000Y-108839000D03*
%TO.P,C23,2*%
%TO.N,GND*%
X192913000Y-108839000D03*
%TD*%
D13*
%TO.P,U19,1*%
%TO.N,Z_BUSACK*%
X129150000Y-116332000D03*
D14*
%TO.P,U19,2*%
%TO.N,CPLD_pSYNC*%
X129150000Y-118872000D03*
%TO.P,U19,3*%
%TO.N,CPLD_pSTVAL*%
X129150000Y-121412000D03*
%TO.P,U19,4*%
%TO.N,CPLD_pDBIN*%
X129150000Y-123952000D03*
%TO.P,U19,5*%
%TO.N,CPLD_pWR*%
X129150000Y-126492000D03*
%TO.P,U19,6*%
%TO.N,unconnected-(U19-A4-Pad6)*%
X129150000Y-129032000D03*
%TO.P,U19,7*%
%TO.N,unconnected-(U19-A5-Pad7)*%
X129150000Y-131572000D03*
%TO.P,U19,8*%
%TO.N,unconnected-(U19-A6-Pad8)*%
X129150000Y-134112000D03*
%TO.P,U19,9*%
%TO.N,unconnected-(U19-A7-Pad9)*%
X129150000Y-136652000D03*
%TO.P,U19,10*%
%TO.N,GND*%
X129150000Y-139192000D03*
%TO.P,U19,11*%
%TO.N,S100_pSYNC*%
X136770000Y-139192000D03*
%TO.P,U19,12*%
%TO.N,S100_pSTVAL*%
X136770000Y-136652000D03*
%TO.P,U19,13*%
%TO.N,S100_pDBIN*%
X136770000Y-134112000D03*
%TO.P,U19,14*%
%TO.N,S100_pWR*%
X136770000Y-131572000D03*
%TO.P,U19,15*%
%TO.N,unconnected-(U19-B4-Pad15)*%
X136770000Y-129032000D03*
%TO.P,U19,16*%
%TO.N,unconnected-(U19-B5-Pad16)*%
X136770000Y-126492000D03*
%TO.P,U19,17*%
%TO.N,unconnected-(U19-B6-Pad17)*%
X136770000Y-123952000D03*
%TO.P,U19,18*%
%TO.N,unconnected-(U19-B7-Pad18)*%
X136770000Y-121412000D03*
%TO.P,U19,19*%
%TO.N,S100_C_OE*%
X136770000Y-118872000D03*
%TO.P,U19,20*%
%TO.N,+5V*%
X136770000Y-116332000D03*
%TD*%
%TO.P,R1,1*%
%TO.N,+5V*%
X17653000Y-81026000D03*
%TO.P,R1,2*%
%TO.N,S100_pRDY*%
X25273000Y-81026000D03*
%TD*%
%TO.P,R2,1*%
%TO.N,+5V*%
X17399000Y-86360000D03*
%TO.P,R2,2*%
%TO.N,S100_XRDY*%
X25019000Y-86360000D03*
%TD*%
D13*
%TO.P,U7,1*%
%TO.N,A18*%
X99700000Y-27469200D03*
D14*
%TO.P,U7,2*%
%TO.N,A17*%
X99700000Y-30009200D03*
%TO.P,U7,3*%
%TO.N,A15*%
X99700000Y-32549200D03*
%TO.P,U7,4*%
%TO.N,A13*%
X99700000Y-35089200D03*
%TO.P,U7,5*%
%TO.N,A8*%
X99700000Y-37629200D03*
%TO.P,U7,6*%
%TO.N,A7*%
X99700000Y-40169200D03*
%TO.P,U7,7*%
%TO.N,A6*%
X99700000Y-42709200D03*
%TO.P,U7,8*%
%TO.N,A5*%
X99700000Y-45249200D03*
%TO.P,U7,9*%
%TO.N,A4*%
X99700000Y-47789200D03*
%TO.P,U7,10*%
%TO.N,A3*%
X99700000Y-50329200D03*
%TO.P,U7,11*%
%TO.N,A2*%
X99700000Y-52869200D03*
%TO.P,U7,12*%
%TO.N,A1*%
X99700000Y-55409200D03*
%TO.P,U7,13*%
%TO.N,AD0*%
X99700000Y-57949200D03*
%TO.P,U7,14*%
%TO.N,AD1*%
X99700000Y-60489200D03*
%TO.P,U7,15*%
%TO.N,AD2*%
X99700000Y-63029200D03*
%TO.P,U7,16*%
%TO.N,GND*%
X99700000Y-65569200D03*
%TO.P,U7,17*%
%TO.N,AD3*%
X114940000Y-65569200D03*
%TO.P,U7,18*%
%TO.N,AD4*%
X114940000Y-63029200D03*
%TO.P,U7,19*%
%TO.N,AD5*%
X114940000Y-60489200D03*
%TO.P,U7,20*%
%TO.N,AD6*%
X114940000Y-57949200D03*
%TO.P,U7,21*%
%TO.N,AD7*%
X114940000Y-55409200D03*
%TO.P,U7,22*%
%TO.N,MEM_CE0*%
X114940000Y-52869200D03*
%TO.P,U7,23*%
%TO.N,A11*%
X114940000Y-50329200D03*
%TO.P,U7,24*%
%TO.N,MEM_OE*%
X114940000Y-47789200D03*
%TO.P,U7,25*%
%TO.N,A12*%
X114940000Y-45249200D03*
%TO.P,U7,26*%
%TO.N,A10*%
X114940000Y-42709200D03*
%TO.P,U7,27*%
%TO.N,A9*%
X114940000Y-40169200D03*
%TO.P,U7,28*%
%TO.N,A14*%
X114940000Y-37629200D03*
%TO.P,U7,29*%
%TO.N,MEM_WE_H*%
X114940000Y-35089200D03*
%TO.P,U7,30*%
%TO.N,A19*%
X114940000Y-32549200D03*
%TO.P,U7,31*%
%TO.N,A16*%
X114940000Y-30009200D03*
%TO.P,U7,32*%
%TO.N,+5V*%
X114940000Y-27469200D03*
%TD*%
%TO.P,C18,1*%
%TO.N,+5V*%
X190881000Y-93218000D03*
%TO.P,C18,2*%
%TO.N,GND*%
X193421000Y-93218000D03*
%TD*%
%TO.P,C20,1*%
%TO.N,+5V*%
X67691000Y-116332000D03*
%TO.P,C20,2*%
%TO.N,GND*%
X70231000Y-116332000D03*
%TD*%
%TO.P,C4,1*%
%TO.N,MAX_VM*%
X216916000Y-57404000D03*
%TO.P,C4,2*%
%TO.N,GND*%
X216916000Y-54904000D03*
%TD*%
%TO.P,C7,2*%
%TO.N,GND*%
X55118000Y-36703000D03*
%TO.P,C7,1*%
%TO.N,+5V*%
X52578000Y-36703000D03*
%TD*%
%TO.P,C9,1*%
%TO.N,+5V*%
X66830000Y-30000000D03*
%TO.P,C9,2*%
%TO.N,GND*%
X69370000Y-30000000D03*
%TD*%
%TO.P,C6,1*%
%TO.N,+5V*%
X39624000Y-36703000D03*
%TO.P,C6,2*%
%TO.N,GND*%
X42164000Y-36703000D03*
%TD*%
D13*
%TO.P,U9,1*%
%TO.N,A18*%
X147700000Y-27469200D03*
D14*
%TO.P,U9,2*%
%TO.N,A17*%
X147700000Y-30009200D03*
%TO.P,U9,3*%
%TO.N,A15*%
X147700000Y-32549200D03*
%TO.P,U9,4*%
%TO.N,A13*%
X147700000Y-35089200D03*
%TO.P,U9,5*%
%TO.N,A8*%
X147700000Y-37629200D03*
%TO.P,U9,6*%
%TO.N,A7*%
X147700000Y-40169200D03*
%TO.P,U9,7*%
%TO.N,A6*%
X147700000Y-42709200D03*
%TO.P,U9,8*%
%TO.N,A5*%
X147700000Y-45249200D03*
%TO.P,U9,9*%
%TO.N,A4*%
X147700000Y-47789200D03*
%TO.P,U9,10*%
%TO.N,A3*%
X147700000Y-50329200D03*
%TO.P,U9,11*%
%TO.N,A2*%
X147700000Y-52869200D03*
%TO.P,U9,12*%
%TO.N,A1*%
X147700000Y-55409200D03*
%TO.P,U9,13*%
%TO.N,AD0*%
X147700000Y-57949200D03*
%TO.P,U9,14*%
%TO.N,AD1*%
X147700000Y-60489200D03*
%TO.P,U9,15*%
%TO.N,AD2*%
X147700000Y-63029200D03*
%TO.P,U9,16*%
%TO.N,GND*%
X147700000Y-65569200D03*
%TO.P,U9,17*%
%TO.N,AD3*%
X162940000Y-65569200D03*
%TO.P,U9,18*%
%TO.N,AD4*%
X162940000Y-63029200D03*
%TO.P,U9,19*%
%TO.N,AD5*%
X162940000Y-60489200D03*
%TO.P,U9,20*%
%TO.N,AD6*%
X162940000Y-57949200D03*
%TO.P,U9,21*%
%TO.N,AD7*%
X162940000Y-55409200D03*
%TO.P,U9,22*%
%TO.N,MEM_CE1*%
X162940000Y-52869200D03*
%TO.P,U9,23*%
%TO.N,A11*%
X162940000Y-50329200D03*
%TO.P,U9,24*%
%TO.N,MEM_OE*%
X162940000Y-47789200D03*
%TO.P,U9,25*%
%TO.N,A12*%
X162940000Y-45249200D03*
%TO.P,U9,26*%
%TO.N,A10*%
X162940000Y-42709200D03*
%TO.P,U9,27*%
%TO.N,A9*%
X162940000Y-40169200D03*
%TO.P,U9,28*%
%TO.N,A14*%
X162940000Y-37629200D03*
%TO.P,U9,29*%
%TO.N,MEM_WE_H*%
X162940000Y-35089200D03*
%TO.P,U9,30*%
%TO.N,A19*%
X162940000Y-32549200D03*
%TO.P,U9,31*%
%TO.N,A16*%
X162940000Y-30009200D03*
%TO.P,U9,32*%
%TO.N,+5V*%
X162940000Y-27469200D03*
%TD*%
D13*
%TO.P,U24,1*%
%TO.N,GND*%
X115914000Y-116332000D03*
D14*
%TO.P,U24,2*%
%TO.N,A16*%
X115914000Y-118872000D03*
%TO.P,U24,3*%
X115914000Y-121412000D03*
%TO.P,U24,4*%
%TO.N,A17*%
X115914000Y-123952000D03*
%TO.P,U24,5*%
X115914000Y-126492000D03*
%TO.P,U24,6*%
%TO.N,A18*%
X115914000Y-129032000D03*
%TO.P,U24,7*%
X115914000Y-131572000D03*
%TO.P,U24,8*%
%TO.N,A19*%
X115914000Y-134112000D03*
%TO.P,U24,9*%
X115914000Y-136652000D03*
%TO.P,U24,10*%
%TO.N,GND*%
X115914000Y-139192000D03*
%TO.P,U24,11*%
%TO.N,A20*%
X123534000Y-139192000D03*
%TO.P,U24,12*%
X123534000Y-136652000D03*
%TO.P,U24,13*%
%TO.N,A21*%
X123534000Y-134112000D03*
%TO.P,U24,14*%
%TO.N,GND*%
X123534000Y-131572000D03*
%TO.P,U24,15*%
%TO.N,A22*%
X123534000Y-129032000D03*
%TO.P,U24,16*%
%TO.N,GND*%
X123534000Y-126492000D03*
%TO.P,U24,17*%
%TO.N,A23*%
X123534000Y-123952000D03*
%TO.P,U24,18*%
%TO.N,GND*%
X123534000Y-121412000D03*
%TO.P,U24,19*%
%TO.N,SLAVE_WIN*%
X123534000Y-118872000D03*
%TO.P,U24,20*%
%TO.N,+5V*%
X123534000Y-116332000D03*
%TD*%
%TO.P,C19,1*%
%TO.N,+5V*%
X53975000Y-96139000D03*
%TO.P,C19,2*%
%TO.N,GND*%
X56515000Y-96139000D03*
%TD*%
D13*
%TO.P,U11,1*%
%TO.N,A15*%
X195700000Y-32549200D03*
D14*
%TO.P,U11,2*%
%TO.N,A13*%
X195700000Y-35089200D03*
%TO.P,U11,3*%
%TO.N,A8*%
X195700000Y-37629200D03*
%TO.P,U11,4*%
%TO.N,A7*%
X195700000Y-40169200D03*
%TO.P,U11,5*%
%TO.N,A6*%
X195700000Y-42709200D03*
%TO.P,U11,6*%
%TO.N,A5*%
X195700000Y-45249200D03*
%TO.P,U11,7*%
%TO.N,A4*%
X195700000Y-47789200D03*
%TO.P,U11,8*%
%TO.N,A3*%
X195700000Y-50329200D03*
%TO.P,U11,9*%
%TO.N,A2*%
X195700000Y-52869200D03*
%TO.P,U11,10*%
%TO.N,A1*%
X195700000Y-55409200D03*
%TO.P,U11,11*%
%TO.N,AD0*%
X195700000Y-57949200D03*
%TO.P,U11,12*%
%TO.N,AD1*%
X195700000Y-60489200D03*
%TO.P,U11,13*%
%TO.N,AD2*%
X195700000Y-63029200D03*
%TO.P,U11,14*%
%TO.N,GND*%
X195700000Y-65569200D03*
%TO.P,U11,15*%
%TO.N,AD3*%
X210940000Y-65569200D03*
%TO.P,U11,16*%
%TO.N,AD4*%
X210940000Y-63029200D03*
%TO.P,U11,17*%
%TO.N,AD5*%
X210940000Y-60489200D03*
%TO.P,U11,18*%
%TO.N,AD6*%
X210940000Y-57949200D03*
%TO.P,U11,19*%
%TO.N,AD7*%
X210940000Y-55409200D03*
%TO.P,U11,20*%
%TO.N,FLASH_CE*%
X210940000Y-52869200D03*
%TO.P,U11,21*%
%TO.N,A11*%
X210940000Y-50329200D03*
%TO.P,U11,22*%
%TO.N,FLASH_OE*%
X210940000Y-47789200D03*
%TO.P,U11,23*%
%TO.N,A12*%
X210940000Y-45249200D03*
%TO.P,U11,24*%
%TO.N,A10*%
X210940000Y-42709200D03*
%TO.P,U11,25*%
%TO.N,A9*%
X210940000Y-40169200D03*
%TO.P,U11,26*%
%TO.N,A14*%
X210940000Y-37629200D03*
%TO.P,U11,27*%
%TO.N,FLASH_WE*%
X210940000Y-35089200D03*
%TO.P,U11,28*%
%TO.N,+5V*%
X210940000Y-32549200D03*
%TD*%
D13*
%TO.P,U26,1*%
%TO.N,DI_DIR*%
X182095000Y-116332000D03*
D14*
%TO.P,U26,2*%
%TO.N,CPLD_DI0*%
X182095000Y-118872000D03*
%TO.P,U26,3*%
%TO.N,CPLD_DI1*%
X182095000Y-121412000D03*
%TO.P,U26,4*%
%TO.N,CPLD_DI2*%
X182095000Y-123952000D03*
%TO.P,U26,5*%
%TO.N,CPLD_DI3*%
X182095000Y-126492000D03*
%TO.P,U26,6*%
%TO.N,CPLD_DI4*%
X182095000Y-129032000D03*
%TO.P,U26,7*%
%TO.N,CPLD_DI5*%
X182095000Y-131572000D03*
%TO.P,U26,8*%
%TO.N,CPLD_DI6*%
X182095000Y-134112000D03*
%TO.P,U26,9*%
%TO.N,CPLD_DI7*%
X182095000Y-136652000D03*
%TO.P,U26,10*%
%TO.N,GND*%
X182095000Y-139192000D03*
%TO.P,U26,11*%
%TO.N,S100_DI0*%
X189715000Y-139192000D03*
%TO.P,U26,12*%
%TO.N,S100_DI1*%
X189715000Y-136652000D03*
%TO.P,U26,13*%
%TO.N,S100_DI2*%
X189715000Y-134112000D03*
%TO.P,U26,14*%
%TO.N,S100_DI3*%
X189715000Y-131572000D03*
%TO.P,U26,15*%
%TO.N,S100_DI4*%
X189715000Y-129032000D03*
%TO.P,U26,16*%
%TO.N,S100_DI5*%
X189715000Y-126492000D03*
%TO.P,U26,17*%
%TO.N,S100_DI6*%
X189715000Y-123952000D03*
%TO.P,U26,18*%
%TO.N,S100_DI7*%
X189715000Y-121412000D03*
%TO.P,U26,19*%
%TO.N,GND*%
X189715000Y-118872000D03*
%TO.P,U26,20*%
%TO.N,+5V*%
X189715000Y-116332000D03*
%TD*%
%TO.P,C21,2*%
%TO.N,GND*%
X108204000Y-114173000D03*
%TO.P,C21,1*%
%TO.N,+5V*%
X105664000Y-114173000D03*
%TD*%
D13*
%TO.P,U21,1*%
%TO.N,CFG_OE*%
X37268300Y-42799000D03*
D14*
%TO.P,U21,2*%
%TO.N,BTI_AD0*%
X37268300Y-45339000D03*
%TO.P,U21,3*%
%TO.N,AD7*%
X37268300Y-47879000D03*
%TO.P,U21,4*%
%TO.N,BTI_AD1*%
X37268300Y-50419000D03*
%TO.P,U21,5*%
%TO.N,AD6*%
X37268300Y-52959000D03*
%TO.P,U21,6*%
%TO.N,BTI_AD2*%
X37268300Y-55499000D03*
%TO.P,U21,7*%
%TO.N,AD5*%
X37268300Y-58039000D03*
%TO.P,U21,8*%
%TO.N,BTI_AD3*%
X37268300Y-60579000D03*
%TO.P,U21,9*%
%TO.N,AD4*%
X37268300Y-63119000D03*
%TO.P,U21,10*%
%TO.N,GND*%
X37268300Y-65659000D03*
%TO.P,U21,11*%
%TO.N,BTI_AD4*%
X44888300Y-65659000D03*
%TO.P,U21,12*%
%TO.N,AD3*%
X44888300Y-63119000D03*
%TO.P,U21,13*%
%TO.N,BTI_AD5*%
X44888300Y-60579000D03*
%TO.P,U21,14*%
%TO.N,AD2*%
X44888300Y-58039000D03*
%TO.P,U21,15*%
%TO.N,BTI_AD6*%
X44888300Y-55499000D03*
%TO.P,U21,16*%
%TO.N,AD1*%
X44888300Y-52959000D03*
%TO.P,U21,17*%
%TO.N,BTI_AD7*%
X44888300Y-50419000D03*
%TO.P,U21,18*%
%TO.N,AD0*%
X44888300Y-47879000D03*
%TO.P,U21,19*%
%TO.N,CFG_OE*%
X44888300Y-45339000D03*
%TO.P,U21,20*%
%TO.N,+5V*%
X44888300Y-42799000D03*
%TD*%
D18*
%TO.P,U5,1*%
%TO.N,+5V*%
X219710000Y-75946000D03*
D19*
%TO.P,U5,2*%
X219710000Y-78486000D03*
%TO.P,U5,3*%
X217170000Y-75946000D03*
%TO.P,U5,4*%
%TO.N,A0*%
X217170000Y-78486000D03*
%TO.P,U5,5*%
%TO.N,A1*%
X214630000Y-75946000D03*
%TO.P,U5,6*%
%TO.N,A2*%
X214630000Y-78486000D03*
%TO.P,U5,7*%
%TO.N,GND*%
X212090000Y-75946000D03*
%TO.P,U5,8*%
%TO.N,LATCH_LE*%
X212090000Y-78486000D03*
%TO.P,U5,9*%
%TO.N,AD7*%
X209550000Y-75946000D03*
%TO.P,U5,10*%
%TO.N,AD8*%
X209550000Y-78486000D03*
%TO.P,U5,11*%
%TO.N,AD9*%
X207010000Y-75946000D03*
%TO.P,U5,12*%
%TO.N,MST_RD*%
X204470000Y-78486000D03*
%TO.P,U5,13*%
%TO.N,+5V*%
X207010000Y-78486000D03*
%TO.P,U5,14*%
%TO.N,JTAG_CHAIN*%
X204470000Y-81026000D03*
%TO.P,U5,15*%
%TO.N,MST_WR*%
X207010000Y-81026000D03*
%TO.P,U5,16*%
%TO.N,SLV_RD*%
X204470000Y-83566000D03*
%TO.P,U5,17*%
%TO.N,SLV_WR*%
X207010000Y-83566000D03*
%TO.P,U5,18*%
%TO.N,XFR16*%
X204470000Y-86106000D03*
%TO.P,U5,19*%
%TO.N,GND*%
X207010000Y-86106000D03*
%TO.P,U5,20*%
%TO.N,SPLIT*%
X204470000Y-88646000D03*
%TO.P,U5,21*%
%TO.N,SLAVE*%
X207010000Y-88646000D03*
%TO.P,U5,22*%
%TO.N,LA0*%
X204470000Y-91186000D03*
%TO.P,U5,23*%
%TO.N,JTAG_TMS*%
X207010000Y-91186000D03*
%TO.P,U5,24*%
%TO.N,AD0*%
X204470000Y-93726000D03*
%TO.P,U5,25*%
%TO.N,AD1*%
X207010000Y-93726000D03*
%TO.P,U5,26*%
%TO.N,+5V*%
X204470000Y-96266000D03*
%TO.P,U5,27*%
%TO.N,AD2*%
X207010000Y-96266000D03*
%TO.P,U5,28*%
%TO.N,AD3*%
X204470000Y-98806000D03*
%TO.P,U5,29*%
%TO.N,AD4*%
X207010000Y-98806000D03*
%TO.P,U5,30*%
%TO.N,AD5*%
X204470000Y-101346000D03*
%TO.P,U5,31*%
%TO.N,AD6*%
X207010000Y-101346000D03*
%TO.P,U5,32*%
%TO.N,GND*%
X204470000Y-103886000D03*
%TO.P,U5,33*%
%TO.N,CPLD_DO0*%
X207010000Y-106426000D03*
%TO.P,U5,34*%
%TO.N,CPLD_DO1*%
X207010000Y-103886000D03*
%TO.P,U5,35*%
%TO.N,CPLD_DO2*%
X209550000Y-106426000D03*
%TO.P,U5,36*%
%TO.N,CPLD_DO3*%
X209550000Y-103886000D03*
%TO.P,U5,37*%
%TO.N,CPLD_DO4*%
X212090000Y-106426000D03*
%TO.P,U5,38*%
%TO.N,+5V*%
X212090000Y-103886000D03*
%TO.P,U5,39*%
%TO.N,CPLD_DO5*%
X214630000Y-106426000D03*
%TO.P,U5,40*%
%TO.N,CPLD_DO6*%
X214630000Y-103886000D03*
%TO.P,U5,41*%
%TO.N,CPLD_DO7*%
X217170000Y-106426000D03*
%TO.P,U5,42*%
%TO.N,GND*%
X217170000Y-103886000D03*
%TO.P,U5,43*%
%TO.N,+5V*%
X219710000Y-106426000D03*
%TO.P,U5,44*%
%TO.N,CPLD_DI0*%
X219710000Y-103886000D03*
%TO.P,U5,45*%
%TO.N,CPLD_DI1*%
X222250000Y-106426000D03*
%TO.P,U5,46*%
%TO.N,CPLD_DI2*%
X222250000Y-103886000D03*
%TO.P,U5,47*%
%TO.N,GND*%
X224790000Y-106426000D03*
%TO.P,U5,48*%
%TO.N,CPLD_DI3*%
X224790000Y-103886000D03*
%TO.P,U5,49*%
%TO.N,CPLD_DI4*%
X227330000Y-106426000D03*
%TO.P,U5,50*%
%TO.N,CPLD_DI5*%
X227330000Y-103886000D03*
%TO.P,U5,51*%
%TO.N,CPLD_DI6*%
X229870000Y-106426000D03*
%TO.P,U5,52*%
%TO.N,CPLD_DI7*%
X229870000Y-103886000D03*
%TO.P,U5,53*%
%TO.N,+5V*%
X232410000Y-106426000D03*
%TO.P,U5,54*%
%TO.N,Z_AS*%
X234950000Y-103886000D03*
%TO.P,U5,55*%
%TO.N,Z_DS*%
X232410000Y-103886000D03*
%TO.P,U5,56*%
%TO.N,Z_INT*%
X234950000Y-101346000D03*
%TO.P,U5,57*%
%TO.N,Z_NMI*%
X232410000Y-101346000D03*
%TO.P,U5,58*%
%TO.N,DO_DIR*%
X234950000Y-98806000D03*
%TO.P,U5,59*%
%TO.N,GND*%
X232410000Y-98806000D03*
%TO.P,U5,60*%
%TO.N,DI_DIR*%
X234950000Y-96266000D03*
%TO.P,U5,61*%
%TO.N,S100_DODSB*%
X232410000Y-96266000D03*
%TO.P,U5,62*%
%TO.N,JTAG_TCK*%
X234950000Y-93726000D03*
%TO.P,U5,63*%
%TO.N,S100_INT*%
X232410000Y-93726000D03*
%TO.P,U5,64*%
%TO.N,S100_NMI*%
X234950000Y-91186000D03*
%TO.P,U5,65*%
%TO.N,N/C*%
X232410000Y-91186000D03*
%TO.P,U5,66*%
%TO.N,+5V*%
X234950000Y-88646000D03*
%TO.P,U5,67*%
%TO.N,N/C*%
X232410000Y-88646000D03*
%TO.P,U5,68*%
X234950000Y-86106000D03*
%TO.P,U5,69*%
X232410000Y-86106000D03*
%TO.P,U5,70*%
X234950000Y-83566000D03*
%TO.P,U5,71*%
%TO.N,JTAG_TDO*%
X232410000Y-83566000D03*
%TO.P,U5,72*%
%TO.N,GND*%
X234950000Y-81026000D03*
%TO.P,U5,73*%
%TO.N,N/C*%
X232410000Y-81026000D03*
%TO.P,U5,74*%
X234950000Y-78486000D03*
%TO.P,U5,75*%
%TO.N,AD10*%
X232410000Y-75946000D03*
%TO.P,U5,76*%
%TO.N,AD11*%
X232410000Y-78486000D03*
%TO.P,U5,77*%
%TO.N,AD12*%
X229870000Y-75946000D03*
%TO.P,U5,78*%
%TO.N,+5V*%
X229870000Y-78486000D03*
%TO.P,U5,79*%
%TO.N,AD13*%
X227330000Y-75946000D03*
%TO.P,U5,80*%
%TO.N,AD14*%
X227330000Y-78486000D03*
%TO.P,U5,81*%
%TO.N,AD15*%
X224790000Y-75946000D03*
%TO.P,U5,82*%
%TO.N,GND*%
X224790000Y-78486000D03*
%TO.P,U5,83*%
%TO.N,Z_CLK*%
X222250000Y-75946000D03*
%TO.P,U5,84*%
%TO.N,+5V*%
X222250000Y-78486000D03*
%TD*%
D13*
%TO.P,U18,1*%
%TO.N,Z_BUSACK*%
X195331000Y-116332000D03*
D14*
%TO.P,U18,2*%
%TO.N,CPLD_sMEMR*%
X195331000Y-118872000D03*
%TO.P,U18,3*%
%TO.N,CPLD_sWO*%
X195331000Y-121412000D03*
%TO.P,U18,4*%
%TO.N,CPLD_sINP*%
X195331000Y-123952000D03*
%TO.P,U18,5*%
%TO.N,CPLD_sOUT*%
X195331000Y-126492000D03*
%TO.P,U18,6*%
%TO.N,CPLD_sINTA*%
X195331000Y-129032000D03*
%TO.P,U18,7*%
%TO.N,CPLD_sHLTA*%
X195331000Y-131572000D03*
%TO.P,U18,8*%
%TO.N,CPLD_sXTRQ*%
X195331000Y-134112000D03*
%TO.P,U18,9*%
%TO.N,unconnected-(U18-A7-Pad9)*%
X195331000Y-136652000D03*
%TO.P,U18,10*%
%TO.N,GND*%
X195331000Y-139192000D03*
%TO.P,U18,11*%
%TO.N,S100_sMEMR*%
X202951000Y-139192000D03*
%TO.P,U18,12*%
%TO.N,S100_sWO*%
X202951000Y-136652000D03*
%TO.P,U18,13*%
%TO.N,S100_sINP*%
X202951000Y-134112000D03*
%TO.P,U18,14*%
%TO.N,S100_sOUT*%
X202951000Y-131572000D03*
%TO.P,U18,15*%
%TO.N,S100_sINTA*%
X202951000Y-129032000D03*
%TO.P,U18,16*%
%TO.N,S100_sHLTA*%
X202951000Y-126492000D03*
%TO.P,U18,17*%
%TO.N,S100_sXTRQ*%
X202951000Y-123952000D03*
%TO.P,U18,18*%
%TO.N,unconnected-(U18-B7-Pad18)*%
X202951000Y-121412000D03*
%TO.P,U18,19*%
%TO.N,S100_S_OE*%
X202951000Y-118872000D03*
%TO.P,U18,20*%
%TO.N,+5V*%
X202951000Y-116332000D03*
%TD*%
%TO.P,C17,1*%
%TO.N,+5V*%
X161544000Y-108966000D03*
%TO.P,C17,2*%
%TO.N,GND*%
X164084000Y-108966000D03*
%TD*%
%TO.P,Y1,1*%
%TO.N,XTALI*%
X45716000Y-90043000D03*
%TO.P,Y1,2*%
%TO.N,XTALO*%
X50546000Y-90043000D03*
%TD*%
%TO.P,C15,1*%
%TO.N,+5V*%
X97028000Y-93726000D03*
%TO.P,C15,2*%
%TO.N,GND*%
X99568000Y-93726000D03*
%TD*%
D18*
%TO.P,U1,1*%
%TO.N,GND*%
X76200000Y-81280000D03*
D19*
%TO.P,U1,2*%
%TO.N,AD13*%
X76200000Y-83820000D03*
%TO.P,U1,3*%
%TO.N,AD14*%
X73660000Y-81280000D03*
%TO.P,U1,4*%
%TO.N,AD15*%
X73660000Y-83820000D03*
%TO.P,U1,5*%
%TO.N,A16*%
X71120000Y-81280000D03*
%TO.P,U1,6*%
%TO.N,A17*%
X71120000Y-83820000D03*
%TO.P,U1,7*%
%TO.N,A23*%
X68580000Y-81280000D03*
%TO.P,U1,8*%
%TO.N,A18*%
X68580000Y-83820000D03*
%TO.P,U1,9*%
%TO.N,A19*%
X66040000Y-81280000D03*
%TO.P,U1,10*%
%TO.N,Z_BW*%
X63500000Y-83820000D03*
%TO.P,U1,11*%
%TO.N,unconnected-(U1-DMASTB0-Pad11)*%
X66040000Y-83820000D03*
%TO.P,U1,12*%
%TO.N,Z_RW*%
X63500000Y-86360000D03*
%TO.P,U1,13*%
%TO.N,unconnected-(U1-DMASTB1-Pad13)*%
X66040000Y-86360000D03*
%TO.P,U1,14*%
%TO.N,Z_ST0*%
X63500000Y-88900000D03*
%TO.P,U1,15*%
%TO.N,Z_ST1*%
X66040000Y-88900000D03*
%TO.P,U1,16*%
%TO.N,Z_OE*%
X63500000Y-91440000D03*
%TO.P,U1,17*%
%TO.N,Z_IE*%
X66040000Y-91440000D03*
%TO.P,U1,18*%
%TO.N,+5V*%
X63500000Y-93980000D03*
%TO.P,U1,19*%
X66040000Y-93980000D03*
%TO.P,U1,20*%
%TO.N,unconnected-(U1-CTIO1-Pad20)*%
X63500000Y-96520000D03*
%TO.P,U1,21*%
%TO.N,Z_ST2*%
X66040000Y-96520000D03*
%TO.P,U1,22*%
%TO.N,Z_ST3*%
X63500000Y-99060000D03*
%TO.P,U1,23*%
%TO.N,unconnected-(U1-CTIO2-Pad23)*%
X66040000Y-99060000D03*
%TO.P,U1,24*%
%TO.N,Z_DS*%
X63500000Y-101600000D03*
%TO.P,U1,25*%
%TO.N,unconnected-(U1-CTIN2-Pad25)*%
X66040000Y-101600000D03*
%TO.P,U1,26*%
%TO.N,unconnected-(U1-INT-C-Pad26)*%
X63500000Y-104140000D03*
%TO.P,U1,27*%
%TO.N,Z_AS*%
X66040000Y-106680000D03*
%TO.P,U1,28*%
%TO.N,Z_BUSREQ*%
X66040000Y-104140000D03*
%TO.P,U1,29*%
%TO.N,Z_WAIT*%
X68580000Y-106680000D03*
%TO.P,U1,30*%
%TO.N,unconnected-(U1-CTIO0{slash}GREQ-Pad30)*%
X68580000Y-104140000D03*
%TO.P,U1,31*%
%TO.N,Z_BUSACK*%
X71120000Y-106680000D03*
%TO.P,U1,32*%
%TO.N,unconnected-(U1-CTIN0{slash}GACK-Pad32)*%
X71120000Y-104140000D03*
%TO.P,U1,33*%
%TO.N,unconnected-(U1-PAUSE-Pad33)*%
X73660000Y-106680000D03*
%TO.P,U1,34*%
%TO.N,+5V*%
X73660000Y-104140000D03*
%TO.P,U1,35*%
%TO.N,GND*%
X76200000Y-106680000D03*
%TO.P,U1,36*%
%TO.N,unconnected-(U1-INT-B{slash}EOP-B-Pad36)*%
X76200000Y-104140000D03*
%TO.P,U1,37*%
%TO.N,Z_INT*%
X78740000Y-106680000D03*
%TO.P,U1,38*%
%TO.N,Z_RESET*%
X78740000Y-104140000D03*
%TO.P,U1,39*%
%TO.N,Z_NMI*%
X81280000Y-106680000D03*
%TO.P,U1,40*%
%TO.N,AD0*%
X81280000Y-104140000D03*
%TO.P,U1,41*%
%TO.N,unconnected-(U1-CTIN1-Pad41)*%
X83820000Y-106680000D03*
%TO.P,U1,42*%
%TO.N,AD1*%
X83820000Y-104140000D03*
%TO.P,U1,43*%
%TO.N,AD2*%
X86360000Y-106680000D03*
%TO.P,U1,44*%
%TO.N,AD3*%
X88900000Y-104140000D03*
%TO.P,U1,45*%
%TO.N,A20*%
X86360000Y-104140000D03*
%TO.P,U1,46*%
%TO.N,Z_TXD*%
X88900000Y-101600000D03*
%TO.P,U1,47*%
%TO.N,Z_CLK*%
X86360000Y-101600000D03*
%TO.P,U1,48*%
%TO.N,Z_RXD*%
X88900000Y-99060000D03*
%TO.P,U1,49*%
%TO.N,XTALO*%
X86360000Y-99060000D03*
%TO.P,U1,50*%
%TO.N,XTALI*%
X88900000Y-96520000D03*
%TO.P,U1,51*%
%TO.N,GND*%
X86360000Y-96520000D03*
%TO.P,U1,52*%
%TO.N,unconnected-(U1-RESERVED-Pad52)*%
X88900000Y-93980000D03*
%TO.P,U1,53*%
%TO.N,GND*%
X86360000Y-93980000D03*
%TO.P,U1,54*%
%TO.N,AD4*%
X88900000Y-91440000D03*
%TO.P,U1,55*%
%TO.N,unconnected-(U1-RDY0-Pad55)*%
X86360000Y-91440000D03*
%TO.P,U1,56*%
%TO.N,unconnected-(U1-RDY1-Pad56)*%
X88900000Y-88900000D03*
%TO.P,U1,57*%
%TO.N,AD5*%
X86360000Y-88900000D03*
%TO.P,U1,58*%
%TO.N,unconnected-(U1-RDY3-Pad58)*%
X88900000Y-86360000D03*
%TO.P,U1,59*%
%TO.N,A21*%
X86360000Y-86360000D03*
%TO.P,U1,60*%
%TO.N,AD6*%
X88900000Y-83820000D03*
%TO.P,U1,61*%
%TO.N,AD7*%
X86360000Y-81280000D03*
%TO.P,U1,62*%
%TO.N,AD8*%
X86360000Y-83820000D03*
%TO.P,U1,63*%
%TO.N,unconnected-(U1-RDY2-Pad63)*%
X83820000Y-81280000D03*
%TO.P,U1,64*%
%TO.N,AD9*%
X83820000Y-83820000D03*
%TO.P,U1,65*%
%TO.N,AD10*%
X81280000Y-81280000D03*
%TO.P,U1,66*%
%TO.N,A22*%
X81280000Y-83820000D03*
%TO.P,U1,67*%
%TO.N,AD11*%
X78740000Y-81280000D03*
%TO.P,U1,68*%
%TO.N,AD12*%
X78740000Y-83820000D03*
%TD*%
D13*
%TO.P,U10,1*%
%TO.N,A15*%
X171700000Y-32549200D03*
D14*
%TO.P,U10,2*%
%TO.N,A13*%
X171700000Y-35089200D03*
%TO.P,U10,3*%
%TO.N,A8*%
X171700000Y-37629200D03*
%TO.P,U10,4*%
%TO.N,A7*%
X171700000Y-40169200D03*
%TO.P,U10,5*%
%TO.N,A6*%
X171700000Y-42709200D03*
%TO.P,U10,6*%
%TO.N,A5*%
X171700000Y-45249200D03*
%TO.P,U10,7*%
%TO.N,A4*%
X171700000Y-47789200D03*
%TO.P,U10,8*%
%TO.N,A3*%
X171700000Y-50329200D03*
%TO.P,U10,9*%
%TO.N,A2*%
X171700000Y-52869200D03*
%TO.P,U10,10*%
%TO.N,A1*%
X171700000Y-55409200D03*
%TO.P,U10,11*%
%TO.N,AD8*%
X171700000Y-57949200D03*
%TO.P,U10,12*%
%TO.N,AD9*%
X171700000Y-60489200D03*
%TO.P,U10,13*%
%TO.N,AD10*%
X171700000Y-63029200D03*
%TO.P,U10,14*%
%TO.N,GND*%
X171700000Y-65569200D03*
%TO.P,U10,15*%
%TO.N,AD11*%
X186940000Y-65569200D03*
%TO.P,U10,16*%
%TO.N,AD12*%
X186940000Y-63029200D03*
%TO.P,U10,17*%
%TO.N,AD13*%
X186940000Y-60489200D03*
%TO.P,U10,18*%
%TO.N,AD14*%
X186940000Y-57949200D03*
%TO.P,U10,19*%
%TO.N,AD15*%
X186940000Y-55409200D03*
%TO.P,U10,20*%
%TO.N,FLASH_CE*%
X186940000Y-52869200D03*
%TO.P,U10,21*%
%TO.N,A11*%
X186940000Y-50329200D03*
%TO.P,U10,22*%
%TO.N,FLASH_OE*%
X186940000Y-47789200D03*
%TO.P,U10,23*%
%TO.N,A12*%
X186940000Y-45249200D03*
%TO.P,U10,24*%
%TO.N,A10*%
X186940000Y-42709200D03*
%TO.P,U10,25*%
%TO.N,A9*%
X186940000Y-40169200D03*
%TO.P,U10,26*%
%TO.N,A14*%
X186940000Y-37629200D03*
%TO.P,U10,27*%
%TO.N,FLASH_WE*%
X186940000Y-35089200D03*
%TO.P,U10,28*%
%TO.N,+5V*%
X186940000Y-32549200D03*
%TD*%
%TO.P,C14,1*%
%TO.N,+5V*%
X201549000Y-27051000D03*
%TO.P,C14,2*%
%TO.N,GND*%
X204089000Y-27051000D03*
%TD*%
D15*
%TO.P,J7,1*%
%TO.N,MAX_RS232_TX*%
X229362000Y-30480000D03*
D16*
%TO.P,J7,2*%
%TO.N,MAX_RS232_RX*%
X229362000Y-33020000D03*
%TO.P,J7,3*%
%TO.N,GND*%
X226822000Y-30480000D03*
%TO.P,J7,4*%
X226822000Y-33020000D03*
%TO.P,J7,5*%
X224282000Y-30480000D03*
%TO.P,J7,6*%
X224282000Y-33020000D03*
%TO.P,J7,7*%
X221742000Y-30480000D03*
%TO.P,J7,8*%
X221742000Y-33020000D03*
%TO.P,J7,9*%
X219202000Y-30480000D03*
%TO.P,J7,10*%
X219202000Y-33020000D03*
%TD*%
D14*
%TO.P,C2,1*%
%TO.N,MAX_C2P*%
X234315000Y-55138000D03*
%TO.P,C2,2*%
%TO.N,MAX_C2M*%
X234315000Y-57638000D03*
%TD*%
%TO.P,C1,1*%
%TO.N,MAX_C1P*%
X234315000Y-44851000D03*
%TO.P,C1,2*%
%TO.N,MAX_C1M*%
X234315000Y-47351000D03*
%TD*%
%TO.P,,1*%
%TO.N,N/C*%
X226000000Y-116000000D03*
%TO.P,,2*%
X228540000Y-116000000D03*
%TO.P,,3*%
X231080000Y-116000000D03*
%TO.P,,4*%
X233620000Y-116000000D03*
%TO.P,,5*%
X236160000Y-116000000D03*
%TO.P,,6*%
X238700000Y-116000000D03*
%TO.P,,7*%
X241240000Y-116000000D03*
%TO.P,,8*%
X243780000Y-116000000D03*
%TO.P,,9*%
X246320000Y-116000000D03*
%TO.P,,10*%
X248860000Y-116000000D03*
%TO.P,,11*%
X251400000Y-116000000D03*
%TO.P,,12*%
X253940000Y-116000000D03*
%TO.P,,13*%
X256480000Y-116000000D03*
%TO.P,,14*%
X259020000Y-116000000D03*
%TO.P,,15*%
X261560000Y-116000000D03*
%TO.P,,16*%
X264100000Y-116000000D03*
%TO.P,,17*%
X226000000Y-118540000D03*
%TO.P,,18*%
X228540000Y-118540000D03*
%TO.P,,19*%
X231080000Y-118540000D03*
%TO.P,,20*%
X233620000Y-118540000D03*
%TO.P,,21*%
X236160000Y-118540000D03*
%TO.P,,22*%
X238700000Y-118540000D03*
%TO.P,,23*%
X241240000Y-118540000D03*
%TO.P,,24*%
X243780000Y-118540000D03*
%TO.P,,25*%
X246320000Y-118540000D03*
%TO.P,,26*%
X248860000Y-118540000D03*
%TO.P,,27*%
X251400000Y-118540000D03*
%TO.P,,28*%
X253940000Y-118540000D03*
%TO.P,,29*%
X256480000Y-118540000D03*
%TO.P,,30*%
X259020000Y-118540000D03*
%TO.P,,31*%
X261560000Y-118540000D03*
%TO.P,,32*%
X264100000Y-118540000D03*
%TO.P,,33*%
X226000000Y-121080000D03*
%TO.P,,34*%
X228540000Y-121080000D03*
%TO.P,,35*%
X231080000Y-121080000D03*
%TO.P,,36*%
X233620000Y-121080000D03*
%TO.P,,37*%
X236160000Y-121080000D03*
%TO.P,,38*%
X238700000Y-121080000D03*
%TO.P,,39*%
X241240000Y-121080000D03*
%TO.P,,40*%
X243780000Y-121080000D03*
%TO.P,,41*%
X246320000Y-121080000D03*
%TO.P,,42*%
X248860000Y-121080000D03*
%TO.P,,43*%
X251400000Y-121080000D03*
%TO.P,,44*%
X253940000Y-121080000D03*
%TO.P,,45*%
X256480000Y-121080000D03*
%TO.P,,46*%
X259020000Y-121080000D03*
%TO.P,,47*%
X261560000Y-121080000D03*
%TO.P,,48*%
X264100000Y-121080000D03*
%TO.P,,49*%
X226000000Y-123620000D03*
%TO.P,,50*%
X228540000Y-123620000D03*
%TO.P,,51*%
X231080000Y-123620000D03*
%TO.P,,52*%
X233620000Y-123620000D03*
%TO.P,,53*%
X236160000Y-123620000D03*
%TO.P,,54*%
X238700000Y-123620000D03*
%TO.P,,55*%
X241240000Y-123620000D03*
%TO.P,,56*%
X243780000Y-123620000D03*
%TO.P,,57*%
X246320000Y-123620000D03*
%TO.P,,58*%
X248860000Y-123620000D03*
%TO.P,,59*%
X251400000Y-123620000D03*
%TO.P,,60*%
X253940000Y-123620000D03*
%TO.P,,61*%
X256480000Y-123620000D03*
%TO.P,,62*%
X259020000Y-123620000D03*
%TO.P,,63*%
X261560000Y-123620000D03*
%TO.P,,64*%
X264100000Y-123620000D03*
%TO.P,,65*%
X226000000Y-126160000D03*
%TO.P,,66*%
X228540000Y-126160000D03*
%TO.P,,67*%
X231080000Y-126160000D03*
%TO.P,,68*%
X233620000Y-126160000D03*
%TO.P,,69*%
X236160000Y-126160000D03*
%TO.P,,70*%
X238700000Y-126160000D03*
%TO.P,,71*%
X241240000Y-126160000D03*
%TO.P,,72*%
X243780000Y-126160000D03*
%TO.P,,73*%
X246320000Y-126160000D03*
%TO.P,,74*%
X248860000Y-126160000D03*
%TO.P,,75*%
X251400000Y-126160000D03*
%TO.P,,76*%
X253940000Y-126160000D03*
%TO.P,,77*%
X256480000Y-126160000D03*
%TO.P,,78*%
X259020000Y-126160000D03*
%TO.P,,79*%
X261560000Y-126160000D03*
%TO.P,,80*%
X264100000Y-126160000D03*
%TO.P,,81*%
X226000000Y-128700000D03*
%TO.P,,82*%
X228540000Y-128700000D03*
%TO.P,,83*%
X231080000Y-128700000D03*
%TO.P,,84*%
X233620000Y-128700000D03*
%TO.P,,85*%
X236160000Y-128700000D03*
%TO.P,,86*%
X238700000Y-128700000D03*
%TO.P,,87*%
X241240000Y-128700000D03*
%TO.P,,88*%
X243780000Y-128700000D03*
%TO.P,,89*%
X246320000Y-128700000D03*
%TO.P,,90*%
X248860000Y-128700000D03*
%TO.P,,91*%
X251400000Y-128700000D03*
%TO.P,,92*%
X253940000Y-128700000D03*
%TO.P,,93*%
X256480000Y-128700000D03*
%TO.P,,94*%
X259020000Y-128700000D03*
%TO.P,,95*%
X261560000Y-128700000D03*
%TO.P,,96*%
X264100000Y-128700000D03*
%TO.P,,97*%
X226000000Y-131240000D03*
%TO.P,,98*%
X228540000Y-131240000D03*
%TO.P,,99*%
X231080000Y-131240000D03*
%TO.P,,100*%
X233620000Y-131240000D03*
%TO.P,,101*%
X236160000Y-131240000D03*
%TO.P,,102*%
X238700000Y-131240000D03*
%TO.P,,103*%
X241240000Y-131240000D03*
%TO.P,,104*%
X243780000Y-131240000D03*
%TO.P,,105*%
X246320000Y-131240000D03*
%TO.P,,106*%
X248860000Y-131240000D03*
%TO.P,,107*%
X251400000Y-131240000D03*
%TO.P,,108*%
X253940000Y-131240000D03*
%TO.P,,109*%
X256480000Y-131240000D03*
%TO.P,,110*%
X259020000Y-131240000D03*
%TO.P,,111*%
X261560000Y-131240000D03*
%TO.P,,112*%
X264100000Y-131240000D03*
%TO.P,,113*%
X226000000Y-133780000D03*
%TO.P,,114*%
X228540000Y-133780000D03*
%TO.P,,115*%
X231080000Y-133780000D03*
%TO.P,,116*%
X233620000Y-133780000D03*
%TO.P,,117*%
X236160000Y-133780000D03*
%TO.P,,118*%
X238700000Y-133780000D03*
%TO.P,,119*%
X241240000Y-133780000D03*
%TO.P,,120*%
X243780000Y-133780000D03*
%TO.P,,121*%
X246320000Y-133780000D03*
%TO.P,,122*%
X248860000Y-133780000D03*
%TO.P,,123*%
X251400000Y-133780000D03*
%TO.P,,124*%
X253940000Y-133780000D03*
%TO.P,,125*%
X256480000Y-133780000D03*
%TO.P,,126*%
X259020000Y-133780000D03*
%TO.P,,127*%
X261560000Y-133780000D03*
%TO.P,,128*%
X264100000Y-133780000D03*
%TO.P,,129*%
X226000000Y-136320000D03*
%TO.P,,130*%
X228540000Y-136320000D03*
%TO.P,,131*%
X231080000Y-136320000D03*
%TO.P,,132*%
X233620000Y-136320000D03*
%TO.P,,133*%
X236160000Y-136320000D03*
%TO.P,,134*%
X238700000Y-136320000D03*
%TO.P,,135*%
X241240000Y-136320000D03*
%TO.P,,136*%
X243780000Y-136320000D03*
%TO.P,,137*%
X246320000Y-136320000D03*
%TO.P,,138*%
X248860000Y-136320000D03*
%TO.P,,139*%
X251400000Y-136320000D03*
%TO.P,,140*%
X253940000Y-136320000D03*
%TO.P,,141*%
X256480000Y-136320000D03*
%TO.P,,142*%
X259020000Y-136320000D03*
%TO.P,,143*%
X261560000Y-136320000D03*
%TO.P,,144*%
X264100000Y-136320000D03*
%TO.P,,145*%
X226000000Y-138860000D03*
%TO.P,,146*%
X228540000Y-138860000D03*
%TO.P,,147*%
X231080000Y-138860000D03*
%TO.P,,148*%
X233620000Y-138860000D03*
%TO.P,,149*%
X236160000Y-138860000D03*
%TO.P,,150*%
X238700000Y-138860000D03*
%TO.P,,151*%
X241240000Y-138860000D03*
%TO.P,,152*%
X243780000Y-138860000D03*
%TO.P,,153*%
X246320000Y-138860000D03*
%TO.P,,154*%
X248860000Y-138860000D03*
%TO.P,,155*%
X251400000Y-138860000D03*
%TO.P,,156*%
X253940000Y-138860000D03*
%TO.P,,157*%
X256480000Y-138860000D03*
%TO.P,,158*%
X259020000Y-138860000D03*
%TO.P,,159*%
X261560000Y-138860000D03*
%TO.P,,160*%
X264100000Y-138860000D03*
%TD*%
%TO.P,R3,1*%
%TO.N,GND*%
X238760000Y-51308000D03*
%TO.P,R3,2*%
%TO.N,SLAVE_ONLY*%
X246380000Y-51308000D03*
%TD*%
D20*
%TO.P,V 0.1 curt@zen-room.org,51*%
%TO.N,+8V*%
X53467000Y-152781000D03*
D21*
%TO.P,V 0.1 curt@zen-room.org,52*%
%TO.N,-16V*%
X57150000Y-152781000D03*
%TO.P,V 0.1 curt@zen-room.org,53*%
%TO.N,GND*%
X60325000Y-152781000D03*
%TO.P,V 0.1 curt@zen-room.org,54*%
%TO.N,S100_SLAVE_CLR*%
X63500000Y-152781000D03*
%TO.P,V 0.1 curt@zen-room.org,55*%
%TO.N,S100_DMA0*%
X66675000Y-152781000D03*
%TO.P,V 0.1 curt@zen-room.org,56*%
%TO.N,S100_DMA1*%
X69850000Y-152781000D03*
%TO.P,V 0.1 curt@zen-room.org,57*%
%TO.N,S100_DMA2*%
X73025000Y-152781000D03*
%TO.P,V 0.1 curt@zen-room.org,58*%
%TO.N,S100_sXTRQ*%
X76200000Y-152781000D03*
%TO.P,V 0.1 curt@zen-room.org,59*%
%TO.N,S100_A19*%
X79375000Y-152781000D03*
%TO.P,V 0.1 curt@zen-room.org,60*%
%TO.N,S100_SIXTN*%
X82550000Y-152781000D03*
%TO.P,V 0.1 curt@zen-room.org,61*%
%TO.N,S100_A20*%
X85725000Y-152781000D03*
%TO.P,V 0.1 curt@zen-room.org,62*%
%TO.N,S100_A21*%
X88900000Y-152781000D03*
%TO.P,V 0.1 curt@zen-room.org,63*%
%TO.N,S100_A22*%
X92075000Y-152781000D03*
%TO.P,V 0.1 curt@zen-room.org,64*%
%TO.N,S100_A23*%
X95250000Y-152781000D03*
%TO.P,V 0.1 curt@zen-room.org,65*%
%TO.N,unconnected-(J8-NC-Pad65)*%
X98425000Y-152781000D03*
%TO.P,V 0.1 curt@zen-room.org,66*%
%TO.N,unconnected-(J8-NC-Pad66)*%
X101600000Y-152781000D03*
%TO.P,V 0.1 curt@zen-room.org,67*%
%TO.N,S100_PHANTOM*%
X104775000Y-152781000D03*
%TO.P,V 0.1 curt@zen-room.org,68*%
%TO.N,S100_MWRT*%
X107950000Y-152781000D03*
%TO.P,V 0.1 curt@zen-room.org,69*%
%TO.N,unconnected-(J8-NC-Pad69)*%
X111125000Y-152781000D03*
%TO.P,V 0.1 curt@zen-room.org,70*%
%TO.N,GND*%
X114300000Y-152781000D03*
%TO.P,V 0.1 curt@zen-room.org,71*%
%TO.N,unconnected-(J8-NC-Pad71)*%
X117475000Y-152781000D03*
%TO.P,V 0.1 curt@zen-room.org,72*%
%TO.N,S100_pRDY*%
X120650000Y-152781000D03*
%TO.P,V 0.1 curt@zen-room.org,73*%
%TO.N,S100_INT*%
X123825000Y-152781000D03*
%TO.P,V 0.1 curt@zen-room.org,74*%
%TO.N,S100_HOLD*%
X127000000Y-152781000D03*
%TO.P,V 0.1 curt@zen-room.org,75*%
%TO.N,S100_RESET*%
X130175000Y-152781000D03*
%TO.P,V 0.1 curt@zen-room.org,76*%
%TO.N,S100_pSYNC*%
X133350000Y-152781000D03*
%TO.P,V 0.1 curt@zen-room.org,77*%
%TO.N,S100_pWR*%
X136525000Y-152781000D03*
%TO.P,V 0.1 curt@zen-room.org,78*%
%TO.N,S100_pDBIN*%
X139700000Y-152781000D03*
%TO.P,V 0.1 curt@zen-room.org,79*%
%TO.N,S100_A0*%
X142875000Y-152781000D03*
%TO.P,V 0.1 curt@zen-room.org,80*%
%TO.N,S100_A1*%
X146050000Y-152781000D03*
%TO.P,V 0.1 curt@zen-room.org,81*%
%TO.N,S100_A2*%
X149225000Y-152781000D03*
%TO.P,V 0.1 curt@zen-room.org,82*%
%TO.N,S100_A6*%
X152400000Y-152781000D03*
%TO.P,V 0.1 curt@zen-room.org,83*%
%TO.N,S100_A7*%
X155575000Y-152781000D03*
%TO.P,V 0.1 curt@zen-room.org,84*%
%TO.N,S100_A8*%
X158750000Y-152781000D03*
%TO.P,V 0.1 curt@zen-room.org,85*%
%TO.N,S100_A13*%
X161925000Y-152781000D03*
%TO.P,V 0.1 curt@zen-room.org,86*%
%TO.N,S100_A14*%
X165100000Y-152781000D03*
%TO.P,V 0.1 curt@zen-room.org,87*%
%TO.N,S100_A11*%
X168275000Y-152781000D03*
%TO.P,V 0.1 curt@zen-room.org,88*%
%TO.N,S100_DO2*%
X171450000Y-152781000D03*
%TO.P,V 0.1 curt@zen-room.org,89*%
%TO.N,S100_DO3*%
X174625000Y-152781000D03*
%TO.P,V 0.1 curt@zen-room.org,90*%
%TO.N,S100_DO7*%
X177800000Y-152781000D03*
%TO.P,V 0.1 curt@zen-room.org,91*%
%TO.N,S100_DI4*%
X180975000Y-152781000D03*
%TO.P,V 0.1 curt@zen-room.org,92*%
%TO.N,S100_DI5*%
X184150000Y-152781000D03*
%TO.P,V 0.1 curt@zen-room.org,93*%
%TO.N,S100_DI6*%
X187325000Y-152781000D03*
%TO.P,V 0.1 curt@zen-room.org,94*%
%TO.N,S100_DI1*%
X190500000Y-152781000D03*
%TO.P,V 0.1 curt@zen-room.org,95*%
%TO.N,S100_DI0*%
X193675000Y-152781000D03*
%TO.P,V 0.1 curt@zen-room.org,96*%
%TO.N,S100_sINTA*%
X196850000Y-152781000D03*
%TO.P,V 0.1 curt@zen-room.org,97*%
%TO.N,S100_sWO*%
X200025000Y-152781000D03*
%TO.P,V 0.1 curt@zen-room.org,98*%
%TO.N,S100_ERROR*%
X203200000Y-152781000D03*
%TO.P,V 0.1 curt@zen-room.org,99*%
%TO.N,S100_POC*%
X206375000Y-152781000D03*
D20*
%TO.P,V 0.1 curt@zen-room.org,100*%
%TO.N,GND*%
X210058000Y-152781000D03*
%TD*%
D14*
%TO.P,C5,1*%
%TO.N,+5V*%
X226187000Y-37973000D03*
%TO.P,C5,2*%
%TO.N,GND*%
X223687000Y-37973000D03*
%TD*%
D13*
%TO.P,U6,1*%
%TO.N,A18*%
X75700000Y-27469200D03*
D14*
%TO.P,U6,2*%
%TO.N,A17*%
X75700000Y-30009200D03*
%TO.P,U6,3*%
%TO.N,A15*%
X75700000Y-32549200D03*
%TO.P,U6,4*%
%TO.N,A13*%
X75700000Y-35089200D03*
%TO.P,U6,5*%
%TO.N,A8*%
X75700000Y-37629200D03*
%TO.P,U6,6*%
%TO.N,A7*%
X75700000Y-40169200D03*
%TO.P,U6,7*%
%TO.N,A6*%
X75700000Y-42709200D03*
%TO.P,U6,8*%
%TO.N,A5*%
X75700000Y-45249200D03*
%TO.P,U6,9*%
%TO.N,A4*%
X75700000Y-47789200D03*
%TO.P,U6,10*%
%TO.N,A3*%
X75700000Y-50329200D03*
%TO.P,U6,11*%
%TO.N,A2*%
X75700000Y-52869200D03*
%TO.P,U6,12*%
%TO.N,A1*%
X75700000Y-55409200D03*
%TO.P,U6,13*%
%TO.N,AD8*%
X75700000Y-57949200D03*
%TO.P,U6,14*%
%TO.N,AD9*%
X75700000Y-60489200D03*
%TO.P,U6,15*%
%TO.N,AD10*%
X75700000Y-63029200D03*
%TO.P,U6,16*%
%TO.N,GND*%
X75700000Y-65569200D03*
%TO.P,U6,17*%
%TO.N,AD11*%
X90940000Y-65569200D03*
%TO.P,U6,18*%
%TO.N,AD12*%
X90940000Y-63029200D03*
%TO.P,U6,19*%
%TO.N,AD13*%
X90940000Y-60489200D03*
%TO.P,U6,20*%
%TO.N,AD14*%
X90940000Y-57949200D03*
%TO.P,U6,21*%
%TO.N,AD15*%
X90940000Y-55409200D03*
%TO.P,U6,22*%
%TO.N,MEM_CE0*%
X90940000Y-52869200D03*
%TO.P,U6,23*%
%TO.N,A11*%
X90940000Y-50329200D03*
%TO.P,U6,24*%
%TO.N,MEM_OE*%
X90940000Y-47789200D03*
%TO.P,U6,25*%
%TO.N,A12*%
X90940000Y-45249200D03*
%TO.P,U6,26*%
%TO.N,A10*%
X90940000Y-42709200D03*
%TO.P,U6,27*%
%TO.N,A9*%
X90940000Y-40169200D03*
%TO.P,U6,28*%
%TO.N,A14*%
X90940000Y-37629200D03*
%TO.P,U6,29*%
%TO.N,MEM_WE_L*%
X90940000Y-35089200D03*
%TO.P,U6,30*%
%TO.N,A19*%
X90940000Y-32549200D03*
%TO.P,U6,31*%
%TO.N,A16*%
X90940000Y-30009200D03*
%TO.P,U6,32*%
%TO.N,+5V*%
X90940000Y-27469200D03*
%TD*%
%TO.P,C8,1*%
%TO.N,+5V*%
X64770000Y-36703000D03*
%TO.P,C8,2*%
%TO.N,GND*%
X67310000Y-36703000D03*
%TD*%
%TO.P,J9,1*%
%TO.N,JTAG_TCK*%
X256286000Y-88646000D03*
%TO.P,J9,2*%
%TO.N,JTAG_TMS*%
X256286000Y-91186000D03*
%TO.P,J9,3*%
%TO.N,JTAG_TDI*%
X256286000Y-93726000D03*
%TO.P,J9,4*%
%TO.N,JTAG_TDO*%
X256286000Y-96266000D03*
%TO.P,J9,5*%
%TO.N,GND*%
X256286000Y-98806000D03*
%TO.P,J9,6*%
%TO.N,+5V*%
X256286000Y-101346000D03*
%TD*%
%TO.P,J10,1*%
%TO.N,+5V*%
X31496000Y-65405000D03*
%TO.P,J10,2*%
%TO.N,BTI_AD0*%
X28956000Y-65405000D03*
%TO.P,J10,3*%
%TO.N,GND*%
X26416000Y-65405000D03*
%TO.P,J10,4*%
%TO.N,+5V*%
X31496000Y-62865000D03*
%TO.P,J10,5*%
%TO.N,BTI_AD1*%
X28956000Y-62865000D03*
%TO.P,J10,6*%
%TO.N,GND*%
X26416000Y-62865000D03*
%TO.P,J10,7*%
%TO.N,+5V*%
X31496000Y-60325000D03*
%TO.P,J10,8*%
%TO.N,BTI_AD2*%
X28956000Y-60325000D03*
%TO.P,J10,9*%
%TO.N,GND*%
X26416000Y-60325000D03*
%TO.P,J10,10*%
%TO.N,+5V*%
X31496000Y-57785000D03*
%TO.P,J10,11*%
%TO.N,BTI_AD3*%
X28956000Y-57785000D03*
%TO.P,J10,12*%
%TO.N,GND*%
X26416000Y-57785000D03*
%TO.P,J10,13*%
%TO.N,+5V*%
X31496000Y-55245000D03*
%TO.P,J10,14*%
%TO.N,BTI_AD4*%
X28956000Y-55245000D03*
%TO.P,J10,15*%
%TO.N,GND*%
X26416000Y-55245000D03*
%TO.P,J10,16*%
%TO.N,+5V*%
X31496000Y-52705000D03*
%TO.P,J10,17*%
%TO.N,BTI_AD5*%
X28956000Y-52705000D03*
%TO.P,J10,18*%
%TO.N,GND*%
X26416000Y-52705000D03*
%TO.P,J10,19*%
%TO.N,+5V*%
X31496000Y-50165000D03*
%TO.P,J10,20*%
%TO.N,BTI_AD6*%
X28956000Y-50165000D03*
%TO.P,J10,21*%
%TO.N,GND*%
X26416000Y-50165000D03*
%TO.P,J10,22*%
%TO.N,+5V*%
X31496000Y-47625000D03*
%TO.P,J10,23*%
%TO.N,BTI_AD7*%
X28956000Y-47625000D03*
%TO.P,J10,24*%
%TO.N,GND*%
X26416000Y-47625000D03*
%TD*%
D13*
%TO.P,U8,1*%
%TO.N,A18*%
X123700000Y-27469200D03*
D14*
%TO.P,U8,2*%
%TO.N,A17*%
X123700000Y-30009200D03*
%TO.P,U8,3*%
%TO.N,A15*%
X123700000Y-32549200D03*
%TO.P,U8,4*%
%TO.N,A13*%
X123700000Y-35089200D03*
%TO.P,U8,5*%
%TO.N,A8*%
X123700000Y-37629200D03*
%TO.P,U8,6*%
%TO.N,A7*%
X123700000Y-40169200D03*
%TO.P,U8,7*%
%TO.N,A6*%
X123700000Y-42709200D03*
%TO.P,U8,8*%
%TO.N,A5*%
X123700000Y-45249200D03*
%TO.P,U8,9*%
%TO.N,A4*%
X123700000Y-47789200D03*
%TO.P,U8,10*%
%TO.N,A3*%
X123700000Y-50329200D03*
%TO.P,U8,11*%
%TO.N,A2*%
X123700000Y-52869200D03*
%TO.P,U8,12*%
%TO.N,A1*%
X123700000Y-55409200D03*
%TO.P,U8,13*%
%TO.N,AD8*%
X123700000Y-57949200D03*
%TO.P,U8,14*%
%TO.N,AD9*%
X123700000Y-60489200D03*
%TO.P,U8,15*%
%TO.N,AD10*%
X123700000Y-63029200D03*
%TO.P,U8,16*%
%TO.N,GND*%
X123700000Y-65569200D03*
%TO.P,U8,17*%
%TO.N,AD11*%
X138940000Y-65569200D03*
%TO.P,U8,18*%
%TO.N,AD12*%
X138940000Y-63029200D03*
%TO.P,U8,19*%
%TO.N,AD13*%
X138940000Y-60489200D03*
%TO.P,U8,20*%
%TO.N,AD14*%
X138940000Y-57949200D03*
%TO.P,U8,21*%
%TO.N,AD15*%
X138940000Y-55409200D03*
%TO.P,U8,22*%
%TO.N,MEM_CE1*%
X138940000Y-52869200D03*
%TO.P,U8,23*%
%TO.N,A11*%
X138940000Y-50329200D03*
%TO.P,U8,24*%
%TO.N,MEM_OE*%
X138940000Y-47789200D03*
%TO.P,U8,25*%
%TO.N,A12*%
X138940000Y-45249200D03*
%TO.P,U8,26*%
%TO.N,A10*%
X138940000Y-42709200D03*
%TO.P,U8,27*%
%TO.N,A9*%
X138940000Y-40169200D03*
%TO.P,U8,28*%
%TO.N,A14*%
X138940000Y-37629200D03*
%TO.P,U8,29*%
%TO.N,MEM_WE_L*%
X138940000Y-35089200D03*
%TO.P,U8,30*%
%TO.N,A19*%
X138940000Y-32549200D03*
%TO.P,U8,31*%
%TO.N,A16*%
X138940000Y-30009200D03*
%TO.P,U8,32*%
%TO.N,+5V*%
X138940000Y-27469200D03*
%TD*%
D22*
%TO.N,+8V*%
X53616000Y-146558000D03*
%TO.N,A0*%
X150233300Y-87731000D03*
%TO.N,A1*%
X166975300Y-115214500D03*
X151024400Y-115214500D03*
X98129300Y-56695600D03*
%TO.N,A11*%
X77850200Y-64162100D03*
X82447400Y-50329200D03*
%TO.N,A12*%
X87300900Y-54741400D03*
X72896300Y-60143200D03*
X77616900Y-54741400D03*
%TO.N,A13*%
X69029200Y-51566800D03*
X66745600Y-57158700D03*
X73384200Y-51334500D03*
%TO.N,A14*%
X142015600Y-36227300D03*
X159386600Y-35234400D03*
X86094200Y-53538400D03*
%TO.N,A16*%
X85651600Y-78190800D03*
%TO.N,A17*%
X79516200Y-123253800D03*
X143748100Y-28739200D03*
%TO.N,A18*%
X73537000Y-79848600D03*
%TO.N,A19*%
X86773900Y-74442200D03*
X111347300Y-130302000D03*
%TO.N,A2*%
X166166300Y-120108400D03*
X96913700Y-54063400D03*
%TO.N,A21*%
X87430300Y-128172600D03*
X86883100Y-132738700D03*
X104869400Y-132751900D03*
X83153300Y-86836900D03*
%TO.N,A22*%
X95302400Y-125385500D03*
X81249700Y-124798500D03*
X108774300Y-123952000D03*
X113917600Y-127762000D03*
%TO.N,A23*%
X98415600Y-127270200D03*
X81940300Y-122422200D03*
X74637100Y-120879800D03*
X95099700Y-129425400D03*
%TO.N,A3*%
X137414400Y-49059200D03*
%TO.N,A4*%
X157187300Y-130333700D03*
X144774200Y-130333700D03*
%TO.N,A5*%
X72052800Y-53186100D03*
X158660100Y-127762000D03*
%TO.N,A6*%
X154436900Y-132976000D03*
%TO.N,A7*%
X165111300Y-132291200D03*
X58011500Y-40628500D03*
%TO.N,A8*%
X160063500Y-120142000D03*
X59512300Y-39816300D03*
%TO.N,A9*%
X161487700Y-121462900D03*
X67441400Y-41439200D03*
%TO.N,AD0*%
X208850800Y-92168700D03*
X96006200Y-52155000D03*
%TO.N,AD1*%
X92925700Y-73267500D03*
X98395900Y-69936900D03*
X133661100Y-73518900D03*
X154510600Y-67093400D03*
X201601700Y-68306100D03*
X52439800Y-57009800D03*
X64123200Y-73572400D03*
X135605600Y-67603800D03*
%TO.N,AD10*%
X127714200Y-67645000D03*
X174649300Y-71961200D03*
X224430400Y-71670200D03*
X94324500Y-61322300D03*
X171725500Y-68334500D03*
%TO.N,AD11*%
X86638700Y-65569200D03*
X145723800Y-70502300D03*
X186265500Y-70455600D03*
X185984800Y-67903100D03*
%TO.N,AD12*%
X136812100Y-64912400D03*
X187792300Y-70041600D03*
X85112900Y-62264400D03*
X143251900Y-70467200D03*
X79193400Y-46042900D03*
%TO.N,AD13*%
X145585500Y-60822900D03*
X188604400Y-72548000D03*
X76321400Y-71931500D03*
X151423400Y-72440000D03*
X65955800Y-71818800D03*
X52828300Y-55391800D03*
%TO.N,AD14*%
X70206100Y-72340900D03*
X81968700Y-72355400D03*
X92116500Y-67126600D03*
X133880600Y-66128200D03*
X195487800Y-75253400D03*
X135263800Y-57949200D03*
X65765000Y-58091700D03*
X80645000Y-79207600D03*
X68954900Y-58704000D03*
%TO.N,AD15*%
X145744100Y-56090400D03*
X78432700Y-66646500D03*
X88383100Y-56623600D03*
X146108500Y-64932500D03*
X82656600Y-56730000D03*
X156286300Y-73175800D03*
X193180600Y-74729900D03*
%TO.N,AD2*%
X52155700Y-61517800D03*
X106087700Y-70340200D03*
X57588900Y-69753800D03*
X96551200Y-70340200D03*
%TO.N,AD3*%
X135563600Y-64496900D03*
X106031000Y-76413000D03*
X142114200Y-67221800D03*
%TO.N,AD4*%
X110892000Y-69329300D03*
X154733600Y-63796100D03*
X164518000Y-66185000D03*
X126645200Y-68923800D03*
X128335500Y-71163000D03*
X156316400Y-68722100D03*
X62204900Y-90386100D03*
%TO.N,AD5*%
X71579100Y-88636300D03*
X48023800Y-50221900D03*
X200789800Y-91898400D03*
X193997200Y-61613000D03*
X191057500Y-90830100D03*
%TO.N,AD6*%
X213877600Y-68683100D03*
X111824900Y-57949200D03*
X42220800Y-51834900D03*
X164532900Y-69133400D03*
X71356800Y-76763400D03*
X89952600Y-76846800D03*
X120750600Y-69524000D03*
%TO.N,AD7*%
X121798800Y-43264800D03*
X46809100Y-55499000D03*
X165215100Y-53986700D03*
X185010500Y-52692300D03*
X69892300Y-78252800D03*
X117172500Y-43264800D03*
%TO.N,AD8*%
X72666100Y-82786100D03*
X72871400Y-67700000D03*
X128926100Y-68118700D03*
X176852500Y-79870900D03*
X170518700Y-68713100D03*
%TO.N,AD9*%
X121365100Y-59933700D03*
X134728200Y-60489200D03*
X56557400Y-71012300D03*
X175408900Y-74089600D03*
X82861600Y-77384300D03*
X117558100Y-71974000D03*
X149422800Y-74452400D03*
X73478700Y-71517400D03*
X73478700Y-77384300D03*
%TO.N,CFG_OE*%
X46361700Y-59526200D03*
%TO.N,CPLD_DI0*%
X192008700Y-103198700D03*
%TO.N,CPLD_DI1*%
X188314800Y-109982900D03*
%TO.N,CPLD_DI2*%
X197282700Y-122680900D03*
%TO.N,CPLD_DI3*%
X191394300Y-105220000D03*
%TO.N,CPLD_DI4*%
X204910700Y-127914100D03*
%TO.N,CPLD_DI6*%
X219386100Y-132543500D03*
%TO.N,CPLD_DI7*%
X191686400Y-137427800D03*
%TO.N,CPLD_DO0*%
X188473300Y-105628000D03*
%TO.N,CPLD_DO1*%
X180275700Y-104897700D03*
%TO.N,CPLD_DO2*%
X176445900Y-110562000D03*
X201227000Y-108067100D03*
%TO.N,CPLD_DO3*%
X186706000Y-125224700D03*
%TO.N,CPLD_DO4*%
X175302600Y-112277200D03*
X206503200Y-112012800D03*
%TO.N,CPLD_DO5*%
X180561300Y-106434600D03*
%TO.N,CPLD_DO6*%
X183794100Y-105200500D03*
%TO.N,CPLD_DO7*%
X183384500Y-107250800D03*
%TO.N,CPLD_sHLTA*%
X191802900Y-120013300D03*
X170512100Y-121058600D03*
X167647100Y-98895400D03*
%TO.N,CPLD_sINP*%
X147948400Y-113818400D03*
X191810200Y-116413200D03*
%TO.N,CPLD_sINTA*%
X192552800Y-129424100D03*
X180158100Y-130465500D03*
X178084100Y-115646300D03*
X156073900Y-114408000D03*
X186346700Y-131299600D03*
X126445600Y-98298000D03*
X153322400Y-98088900D03*
%TO.N,CPLD_sMEMR*%
X195069400Y-111206200D03*
%TO.N,CPLD_sOUT*%
X180220800Y-111811900D03*
X152490400Y-110902000D03*
X183994100Y-123741200D03*
%TO.N,CPLD_sWO*%
X143444800Y-113011900D03*
X193272700Y-114649200D03*
%TO.N,CPLD_sXTRQ*%
X156125700Y-111902400D03*
X195892800Y-113237100D03*
X156235400Y-90907500D03*
%TO.N,DI_DIR*%
X195454900Y-97762800D03*
%TO.N,DO_DIR*%
X180691200Y-99645200D03*
%TO.N,FLASH_CE*%
X182422000Y-71074300D03*
%TO.N,FLASH_OE*%
X183627000Y-71074300D03*
%TO.N,FLASH_WE*%
X176635500Y-78121800D03*
%TO.N,FLASH_WIN*%
X129006100Y-114712300D03*
%TO.N,GND*%
X210058000Y-144780000D03*
X60325000Y-145034000D03*
X114300000Y-144780000D03*
%TO.N,JTAG_CHAIN*%
X200833700Y-85555100D03*
%TO.N,JTAG_TCK*%
X253886800Y-92694900D03*
%TO.N,JTAG_TDI*%
X259490500Y-89947700D03*
X119601700Y-85449100D03*
%TO.N,LA0*%
X198382300Y-93929800D03*
%TO.N,MEM_CE1*%
X134746000Y-53583500D03*
%TO.N,MEM_OE*%
X130266700Y-47789200D03*
%TO.N,MST_RD*%
X181565400Y-103839700D03*
%TO.N,MST_WR*%
X171233400Y-105759400D03*
X194853100Y-82139100D03*
%TO.N,S100_A0*%
X144272000Y-146685000D03*
X147899200Y-137892900D03*
%TO.N,S100_A1*%
X147447000Y-146685000D03*
%TO.N,S100_A10*%
X168275000Y-146685000D03*
%TO.N,S100_A11*%
X169672000Y-146685000D03*
%TO.N,S100_A12*%
X155575000Y-146685000D03*
%TO.N,S100_A13*%
X167100500Y-143800600D03*
X163449000Y-146685000D03*
X165925600Y-126492000D03*
%TO.N,S100_A14*%
X166497000Y-146685000D03*
%TO.N,S100_A15*%
X152636600Y-125222000D03*
X152400000Y-146685000D03*
%TO.N,S100_A16*%
X101600000Y-146685000D03*
%TO.N,S100_A17*%
X104775000Y-146558000D03*
%TO.N,S100_A18*%
X99003400Y-142945600D03*
%TO.N,S100_A19*%
X79375000Y-146685000D03*
X89762300Y-144680900D03*
%TO.N,S100_A2*%
X150622000Y-146685000D03*
%TO.N,S100_A20*%
X85725000Y-146685000D03*
%TO.N,S100_A21*%
X90297000Y-146685000D03*
%TO.N,S100_A22*%
X92075000Y-146685000D03*
%TO.N,S100_A23*%
X96478000Y-146685000D03*
%TO.N,S100_A3*%
X149225000Y-146685000D03*
%TO.N,S100_A4*%
X146050000Y-146685000D03*
%TO.N,S100_A5*%
X142875000Y-146685000D03*
%TO.N,S100_A6*%
X153670000Y-146685000D03*
%TO.N,S100_A7*%
X157099000Y-146685000D03*
%TO.N,S100_A8*%
X160274000Y-146685000D03*
%TO.N,S100_A9*%
X160715800Y-136652000D03*
X158750000Y-146685000D03*
%TO.N,S100_ADSB*%
X120650000Y-146685000D03*
%TO.N,S100_CDSB*%
X118821700Y-113892300D03*
X111125000Y-146685000D03*
%TO.N,S100_DI0*%
X195199000Y-146685000D03*
X192711000Y-139192000D03*
%TO.N,S100_DI1*%
X191897000Y-146685000D03*
%TO.N,S100_DI2*%
X186309600Y-145416500D03*
X180975000Y-146685000D03*
%TO.N,S100_DI3*%
X184150000Y-146685000D03*
%TO.N,S100_DI4*%
X182372000Y-146685000D03*
%TO.N,S100_DI5*%
X185547000Y-146685000D03*
%TO.N,S100_DI6*%
X188722000Y-146685000D03*
X181653600Y-144361500D03*
%TO.N,S100_DI7*%
X187325000Y-146685000D03*
X192618100Y-121806700D03*
%TO.N,S100_DO0*%
X165100000Y-146685000D03*
%TO.N,S100_DO1*%
X161925000Y-146685000D03*
%TO.N,S100_DO2*%
X172847000Y-146685000D03*
%TO.N,S100_DO3*%
X176022000Y-146685000D03*
%TO.N,S100_DO4*%
X171450000Y-146685000D03*
%TO.N,S100_DO5*%
X174625000Y-146685000D03*
%TO.N,S100_DO6*%
X177800000Y-146685000D03*
%TO.N,S100_DO7*%
X179197000Y-146685000D03*
%TO.N,S100_DODSB*%
X172200700Y-107462700D03*
X150783300Y-108829700D03*
X130017500Y-143089500D03*
X182471300Y-96587600D03*
X123825000Y-146685000D03*
%TO.N,S100_HOLD*%
X128143000Y-146685000D03*
%TO.N,S100_INT*%
X128589300Y-144880900D03*
X144086000Y-100605800D03*
X125222000Y-146685000D03*
D23*
%TO.N,S100_NMI*%
X180213000Y-132842000D03*
D22*
X88900000Y-146685000D03*
%TO.N,S100_RESET*%
X131445000Y-146685000D03*
%TO.N,S100_SDSB*%
X112387400Y-114568800D03*
X107950000Y-146685000D03*
%TO.N,S100_SIXTN*%
X91389600Y-111070400D03*
X82550000Y-146685000D03*
X41222100Y-111341600D03*
X109974200Y-105314900D03*
%TO.N,S100_S_OE*%
X164500300Y-112503500D03*
X163944400Y-85958300D03*
%TO.N,S100_XRDY*%
X62103000Y-146685000D03*
X67576300Y-112491500D03*
%TO.N,S100_pDBIN*%
X141097000Y-146685000D03*
%TO.N,S100_pHLDA*%
X133350000Y-146685000D03*
%TO.N,S100_pRDY*%
X119798600Y-110988200D03*
X122428000Y-146685000D03*
X49693500Y-110520300D03*
%TO.N,S100_pSTVAL*%
X130175000Y-146685000D03*
%TO.N,S100_pSYNC*%
X134747000Y-146685000D03*
%TO.N,S100_pWR*%
X137795000Y-146685000D03*
%TO.N,S100_sHLTA*%
X203200000Y-146685000D03*
%TO.N,S100_sINP*%
X196850000Y-146685000D03*
%TO.N,S100_sINTA*%
X198247000Y-146685000D03*
%TO.N,S100_sM1*%
X190500000Y-146685000D03*
%TO.N,S100_sMEMR*%
X200025000Y-146685000D03*
%TO.N,S100_sOUT*%
X193675000Y-146685000D03*
%TO.N,S100_sWO*%
X201422000Y-146685000D03*
%TO.N,S100_sXTRQ*%
X76200000Y-146685000D03*
%TO.N,SLAVE*%
X132885300Y-72167100D03*
X60528600Y-69125500D03*
X156318300Y-89523900D03*
%TO.N,SLAVE_ONLY*%
X228733900Y-89347700D03*
%TO.N,SLAVE_WIN*%
X126308400Y-118872000D03*
%TO.N,SLV_RD*%
X192717400Y-98838600D03*
%TO.N,SLV_WR*%
X201616700Y-82970700D03*
X189722700Y-97394100D03*
%TO.N,SPLIT*%
X148035500Y-90604700D03*
%TO.N,SRAM_WIN*%
X135389200Y-83296100D03*
%TO.N,XFR16*%
X155593600Y-86361600D03*
%TO.N,XTALO*%
X84855100Y-93913800D03*
%TO.N,Z_AS*%
X149762700Y-85576100D03*
X98695600Y-108123000D03*
X115300500Y-82829400D03*
X154607400Y-104656600D03*
%TO.N,Z_BUSACK*%
X84525400Y-109279000D03*
X127254000Y-113061700D03*
%TO.N,Z_CLK*%
X137255400Y-78136600D03*
X102770200Y-78136600D03*
%TO.N,Z_DS*%
X112494200Y-100328400D03*
X214352500Y-84743700D03*
%TO.N,Z_IE*%
X117358900Y-90880700D03*
%TO.N,Z_RXD*%
X138456000Y-72531200D03*
X222637000Y-70863000D03*
X114079700Y-99060000D03*
X223011500Y-55593100D03*
%TO.N,Z_TXD*%
X179577400Y-60538100D03*
X170911200Y-95555600D03*
%TO.N,Z_WAIT*%
X115470100Y-109696400D03*
%TD*%
D24*
%TO.N,+8V*%
X53467000Y-152781000D02*
X53467000Y-146707000D01*
X53467000Y-146707000D02*
X53616000Y-146558000D01*
%TO.N,A0*%
X142386000Y-118872000D02*
X144897400Y-116360600D01*
X149826300Y-88138000D02*
X150233300Y-87731000D01*
X148624100Y-88138000D02*
X149826300Y-88138000D01*
X144897400Y-91864700D02*
X148624100Y-88138000D01*
X144897400Y-116360600D02*
X144897400Y-91864700D01*
%TO.N,A1*%
X171700000Y-55409200D02*
X169698400Y-57410800D01*
X167778900Y-102657500D02*
X167778900Y-114410900D01*
X214630000Y-75946000D02*
X214684100Y-75891900D01*
X167778900Y-114410900D02*
X166975300Y-115214500D01*
X171014700Y-96799700D02*
X171014700Y-99421700D01*
X142386000Y-121412000D02*
X148583500Y-115214500D01*
X99700000Y-55409200D02*
X99415700Y-55409200D01*
X169698400Y-95483400D02*
X171014700Y-96799700D01*
X196842800Y-54266400D02*
X195700000Y-55409200D01*
X214684100Y-57575500D02*
X211375000Y-54266400D01*
X214684100Y-75891900D02*
X214684100Y-57575500D01*
X211375000Y-54266400D02*
X196842800Y-54266400D01*
X169698400Y-57410800D02*
X169698400Y-95483400D01*
X148583500Y-115214500D02*
X151024400Y-115214500D01*
X171014700Y-99421700D02*
X167778900Y-102657500D01*
X99415700Y-55409200D02*
X98129300Y-56695600D01*
%TO.N,A10*%
X137822500Y-58412500D02*
X138773000Y-59363000D01*
X142819100Y-62765600D02*
X142819100Y-64515500D01*
X137822500Y-49791800D02*
X137822500Y-58412500D01*
X138940000Y-42709200D02*
X137822000Y-43827200D01*
X138773000Y-59363000D02*
X139416500Y-59363000D01*
X157571800Y-95951700D02*
X157172700Y-96350800D01*
X138220900Y-48725000D02*
X138220900Y-49393400D01*
X157172700Y-96350800D02*
X157172700Y-110777000D01*
X156808300Y-118071000D02*
X156808300Y-122765700D01*
X137822000Y-43827200D02*
X137822000Y-48326100D01*
X142819100Y-64515500D02*
X149800700Y-71497100D01*
X139416500Y-59363000D02*
X142819100Y-62765600D01*
X157340300Y-110944600D02*
X157340300Y-117539000D01*
X157340300Y-117539000D02*
X156808300Y-118071000D01*
X156808300Y-122765700D02*
X155622000Y-123952000D01*
X149800700Y-71497100D02*
X149800700Y-73112200D01*
X138220900Y-49393400D02*
X137822500Y-49791800D01*
X149800700Y-73112200D02*
X157571800Y-80883300D01*
X137822000Y-48326100D02*
X138220900Y-48725000D01*
X157571800Y-80883300D02*
X157571800Y-95951700D01*
X157172700Y-110777000D02*
X157340300Y-110944600D01*
%TO.N,A11*%
X157216400Y-124897600D02*
X155622000Y-126492000D01*
X157580800Y-110607900D02*
X157748400Y-110775500D01*
X157748400Y-117752700D02*
X157216400Y-118284700D01*
X150208800Y-71327900D02*
X150208800Y-72943100D01*
X144301700Y-55690900D02*
X144301700Y-65420800D01*
X157748400Y-110775500D02*
X157748400Y-117752700D01*
X150208800Y-72943100D02*
X157979900Y-80714200D01*
X138940000Y-50329200D02*
X144301700Y-55690900D01*
X157979900Y-96120800D02*
X157580800Y-96519900D01*
X81411000Y-60601300D02*
X81411000Y-51365600D01*
X81411000Y-51365600D02*
X82447400Y-50329200D01*
X157580800Y-96519900D02*
X157580800Y-110607900D01*
X77850200Y-64162100D02*
X81411000Y-60601300D01*
X157216400Y-118284700D02*
X157216400Y-124897600D01*
X144301700Y-65420800D02*
X150208800Y-71327900D01*
X157979900Y-80714200D02*
X157979900Y-96120800D01*
%TO.N,A12*%
X157624500Y-118453800D02*
X157624500Y-125067400D01*
X157624500Y-125067400D02*
X157037400Y-125654500D01*
X90940000Y-45249200D02*
X87300900Y-48888300D01*
X138940000Y-45249200D02*
X144779000Y-51088200D01*
X144779000Y-65320900D02*
X150616900Y-71158800D01*
X76142000Y-56535300D02*
X77616900Y-55060400D01*
X150616900Y-71158800D02*
X150616900Y-72774000D01*
X75518500Y-56535300D02*
X76142000Y-56535300D01*
X87300900Y-48888300D02*
X87300900Y-54741400D01*
X158156500Y-117921800D02*
X157624500Y-118453800D01*
X157037400Y-125654500D02*
X157037400Y-127616600D01*
X157988900Y-110438800D02*
X158156500Y-110606400D01*
X157988900Y-96689000D02*
X157988900Y-110438800D01*
X158388000Y-96289900D02*
X157988900Y-96689000D01*
X72896300Y-59157500D02*
X75518500Y-56535300D01*
X158388000Y-80545100D02*
X158388000Y-96289900D01*
X158156500Y-110606400D02*
X158156500Y-117921800D01*
X77616900Y-55060400D02*
X77616900Y-54741400D01*
X72896300Y-60143200D02*
X72896300Y-59157500D01*
X157037400Y-127616600D02*
X155622000Y-129032000D01*
X150616900Y-72774000D02*
X158388000Y-80545100D01*
X144779000Y-51088200D02*
X144779000Y-65320900D01*
%TO.N,A13*%
X158397000Y-110269700D02*
X158564600Y-110437300D01*
X157445500Y-126735800D02*
X157445500Y-128934900D01*
X158032600Y-118622900D02*
X158032600Y-126148700D01*
X77235700Y-45304000D02*
X77235700Y-36624900D01*
X73384200Y-51334500D02*
X73384200Y-48531000D01*
X77235700Y-36624900D02*
X75700000Y-35089200D01*
X66745600Y-57158700D02*
X66745600Y-53850400D01*
X147700000Y-35089200D02*
X146593500Y-36195700D01*
X146593500Y-55902300D02*
X147370400Y-56679200D01*
X158564600Y-110437300D02*
X158564600Y-118090900D01*
X158848800Y-66770600D02*
X158848800Y-96406300D01*
X66745600Y-53850400D02*
X69029200Y-51566800D01*
X158397000Y-96858100D02*
X158397000Y-110269700D01*
X157445500Y-128934900D02*
X155622000Y-130758400D01*
X76020500Y-46519200D02*
X77235700Y-45304000D01*
X146593500Y-36195700D02*
X146593500Y-55902300D01*
X158032600Y-126148700D02*
X157445500Y-126735800D01*
X158848800Y-96406300D02*
X158397000Y-96858100D01*
X75396000Y-46519200D02*
X76020500Y-46519200D01*
X73384200Y-48531000D02*
X75396000Y-46519200D01*
X148757400Y-56679200D02*
X158848800Y-66770600D01*
X158564600Y-118090900D02*
X158032600Y-118622900D01*
X155622000Y-130758400D02*
X155622000Y-131572000D01*
X147370400Y-56679200D02*
X148757400Y-56679200D01*
%TO.N,A14*%
X160670600Y-120675600D02*
X160670600Y-129063400D01*
X160870000Y-109856700D02*
X160870000Y-120476200D01*
X160670600Y-129063400D02*
X155622000Y-134112000D01*
X160870000Y-120476200D02*
X160670600Y-120675600D01*
X161085800Y-107859500D02*
X160437500Y-108507800D01*
X161085900Y-107859500D02*
X161085800Y-107859500D01*
X160437500Y-109424200D02*
X160870000Y-109856700D01*
X159386600Y-35234400D02*
X161629000Y-37476800D01*
X138940000Y-37629200D02*
X140341900Y-36227300D01*
X86094200Y-42475000D02*
X86094200Y-53538400D01*
X161629000Y-37629200D02*
X162940000Y-37629200D01*
X161629000Y-37476800D02*
X161629000Y-37629200D01*
X160437500Y-108507800D02*
X160437500Y-109424200D01*
X161085900Y-38172300D02*
X161085900Y-107859500D01*
X161629000Y-37629200D02*
X161085900Y-38172300D01*
X140341900Y-36227300D02*
X142015600Y-36227300D01*
X90940000Y-37629200D02*
X86094200Y-42475000D01*
%TO.N,A15*%
X75510300Y-43835300D02*
X71977300Y-47368300D01*
X161366300Y-124252600D02*
X161366300Y-130330500D01*
X164944500Y-121294600D02*
X163414900Y-122824200D01*
X155622000Y-136074800D02*
X155622000Y-136652000D01*
X162794700Y-122824200D02*
X161366300Y-124252600D01*
X75533900Y-36522700D02*
X76162000Y-36522700D01*
X161366300Y-130330500D02*
X155622000Y-136074800D01*
X76817300Y-43167500D02*
X76149500Y-43835300D01*
X74593500Y-33655700D02*
X74593500Y-35582300D01*
X163414900Y-122824200D02*
X162794700Y-122824200D01*
X166012200Y-62811000D02*
X166012200Y-112745600D01*
X166228200Y-62595000D02*
X166012200Y-62811000D01*
X74593500Y-35582300D02*
X75533900Y-36522700D01*
X76162000Y-36522700D02*
X76817300Y-37178000D01*
X166228200Y-38021000D02*
X166228200Y-62595000D01*
X166012200Y-112745600D02*
X164944500Y-113813300D01*
X71977300Y-47368300D02*
X71977300Y-51524000D01*
X71977300Y-51524000D02*
X70542300Y-52959000D01*
X76817300Y-37178000D02*
X76817300Y-43167500D01*
X76149500Y-43835300D02*
X75510300Y-43835300D01*
X75700000Y-32549200D02*
X74593500Y-33655700D01*
X164944500Y-113813300D02*
X164944500Y-121294600D01*
X171700000Y-32549200D02*
X166228200Y-38021000D01*
%TO.N,A16*%
X95163900Y-34233100D02*
X95163900Y-68678500D01*
X95163900Y-68678500D02*
X85651600Y-78190800D01*
X70099000Y-84238100D02*
X70099000Y-82301000D01*
X70099000Y-82301000D02*
X71120000Y-81280000D01*
X74930000Y-119795300D02*
X74930000Y-89069100D01*
X76205000Y-121070300D02*
X74930000Y-119795300D01*
X90940000Y-30009200D02*
X95163900Y-34233100D01*
X76205000Y-121412000D02*
X76205000Y-121070300D01*
X74930000Y-89069100D02*
X70099000Y-84238100D01*
%TO.N,A17*%
X146430000Y-28739200D02*
X143748100Y-28739200D01*
X71120000Y-83820000D02*
X71120000Y-82923000D01*
X77643800Y-31953000D02*
X75700000Y-30009200D01*
X71120000Y-83820000D02*
X79782900Y-92482900D01*
X72176200Y-81866800D02*
X72176200Y-68145400D01*
X72064900Y-68034100D02*
X72064900Y-57474200D01*
X115914000Y-126492000D02*
X115914000Y-123952000D01*
X76014600Y-54139200D02*
X77643800Y-52510000D01*
X79782900Y-92482900D02*
X79782900Y-122987100D01*
X75399900Y-54139200D02*
X76014600Y-54139200D01*
X77643800Y-52510000D02*
X77643800Y-31953000D01*
X72176200Y-68145400D02*
X72064900Y-68034100D01*
X72064900Y-57474200D02*
X75399900Y-54139200D01*
X71120000Y-82923000D02*
X72176200Y-81866800D01*
X147700000Y-30009200D02*
X146430000Y-28739200D01*
X79782900Y-122987100D02*
X79516200Y-123253800D01*
%TO.N,A18*%
X83132200Y-125222000D02*
X88171200Y-125222000D01*
X68580000Y-84397200D02*
X72385700Y-88202900D01*
X76514900Y-122682000D02*
X79054900Y-125222000D01*
X75298700Y-122682000D02*
X76514900Y-122682000D01*
X82724100Y-125630100D02*
X83132200Y-125222000D01*
X72385700Y-88202900D02*
X72385700Y-89146200D01*
X72385700Y-89146200D02*
X72208600Y-89323300D01*
X78337000Y-30106200D02*
X78337000Y-46327200D01*
X79054900Y-125630100D02*
X79054900Y-128722100D01*
X68580000Y-83820000D02*
X68580000Y-84397200D01*
X88171200Y-125222000D02*
X89441200Y-123952000D01*
X78452000Y-46442200D02*
X78452000Y-59373300D01*
X79054900Y-128722100D02*
X76205000Y-131572000D01*
X72208600Y-89323300D02*
X72208600Y-108010100D01*
X73830600Y-121213900D02*
X75298700Y-122682000D01*
X75700000Y-27469200D02*
X78337000Y-30106200D01*
X79054900Y-125630100D02*
X82724100Y-125630100D01*
X74285200Y-79100400D02*
X73537000Y-79848600D01*
X75327300Y-61759200D02*
X74285200Y-62801300D01*
X72208600Y-108010100D02*
X73830600Y-109632100D01*
X74285200Y-62801300D02*
X74285200Y-79100400D01*
X73830600Y-109632100D02*
X73830600Y-121213900D01*
X79054900Y-125222000D02*
X79054900Y-125630100D01*
X78337000Y-46327200D02*
X78452000Y-46442200D01*
X115914000Y-131572000D02*
X115914000Y-129032000D01*
X78452000Y-59373300D02*
X76066100Y-61759200D01*
X76066100Y-61759200D02*
X75327300Y-61759200D01*
%TO.N,A19*%
X92923000Y-68293100D02*
X92923000Y-34532200D01*
X67140100Y-110914700D02*
X71976300Y-115750900D01*
X115914000Y-136652000D02*
X115914000Y-134112000D01*
X115914000Y-134112000D02*
X115157300Y-134112000D01*
X71976300Y-115750900D02*
X71976300Y-128956300D01*
X66040000Y-81280000D02*
X67140100Y-82380100D01*
X86773900Y-74442200D02*
X92923000Y-68293100D01*
X79863600Y-130302000D02*
X86441600Y-130302000D01*
X92923000Y-34532200D02*
X90940000Y-32549200D01*
X89441200Y-127302400D02*
X89441200Y-126492000D01*
X67140100Y-82380100D02*
X67140100Y-110914700D01*
X77323600Y-135533400D02*
X77323600Y-132842000D01*
X71976300Y-128956300D02*
X75862000Y-132842000D01*
X86441600Y-130302000D02*
X89441200Y-127302400D01*
X76205000Y-136652000D02*
X77323600Y-135533400D01*
X77323600Y-132842000D02*
X79863600Y-130302000D01*
X115157300Y-134112000D02*
X111347300Y-130302000D01*
X75862000Y-132842000D02*
X77323600Y-132842000D01*
%TO.N,A2*%
X215709600Y-56034600D02*
X215709600Y-77406400D01*
X211434500Y-51759500D02*
X215709600Y-56034600D01*
X98505800Y-54063400D02*
X96913700Y-54063400D01*
X166828500Y-63149100D02*
X166828500Y-113083700D01*
X196809700Y-51759500D02*
X211434500Y-51759500D01*
X99700000Y-52869200D02*
X98505800Y-54063400D01*
X166828500Y-113083700D02*
X165760700Y-114151500D01*
X171700000Y-52869200D02*
X167044400Y-57524800D01*
X165760700Y-119702800D02*
X166166300Y-120108400D01*
X165760700Y-114151500D02*
X165760700Y-119702800D01*
X215709600Y-77406400D02*
X214630000Y-78486000D01*
X167044400Y-57524800D02*
X167044400Y-62933200D01*
X195700000Y-52869200D02*
X196809700Y-51759500D01*
X167044400Y-62933200D02*
X166828500Y-63149100D01*
%TO.N,A20*%
X90568100Y-105246000D02*
X87466000Y-105246000D01*
X87466000Y-105246000D02*
X86360000Y-104140000D01*
X90568100Y-105246000D02*
X115506400Y-80307700D01*
X123534000Y-136652000D02*
X123534000Y-139192000D01*
X90568100Y-119933000D02*
X90568100Y-105246000D01*
X115506400Y-80307700D02*
X126423600Y-80307700D01*
X127055800Y-79675500D02*
X127055800Y-77779800D01*
X87689700Y-130783500D02*
X87689700Y-135327300D01*
X90976200Y-120341100D02*
X90568100Y-119933000D01*
X127055800Y-77779800D02*
X125984000Y-76708000D01*
X90976200Y-127497000D02*
X90976200Y-120341100D01*
X89441200Y-129032000D02*
X90976200Y-127497000D01*
X87689700Y-135327300D02*
X83825000Y-139192000D01*
X89441200Y-129032000D02*
X87689700Y-130783500D01*
X126423600Y-80307700D02*
X127055800Y-79675500D01*
%TO.N,A21*%
X85509800Y-134112000D02*
X86883100Y-132738700D01*
X87430300Y-126929500D02*
X89220400Y-125139400D01*
X89849400Y-125139400D02*
X90568100Y-124420700D01*
X89261200Y-120305500D02*
X85020400Y-116064700D01*
X85020400Y-116064700D02*
X85020400Y-111548000D01*
X82802300Y-109329900D02*
X82802300Y-87187900D01*
X89220400Y-125139400D02*
X89849400Y-125139400D01*
X85020400Y-111548000D02*
X82802300Y-109329900D01*
X82802300Y-87187900D02*
X83153300Y-86836900D01*
X104869400Y-123604400D02*
X104869400Y-132751900D01*
X102677000Y-121412000D02*
X104869400Y-123604400D01*
X87430300Y-128172600D02*
X87430300Y-126929500D01*
X90568100Y-120901700D02*
X89971900Y-120305500D01*
X90568100Y-124420700D02*
X90568100Y-120901700D01*
X89971900Y-120305500D02*
X89261200Y-120305500D01*
X83825000Y-134112000D02*
X85509800Y-134112000D01*
%TO.N,A22*%
X113917600Y-127762000D02*
X111214100Y-125058500D01*
X81280000Y-83820000D02*
X80226800Y-84873200D01*
X81133800Y-124682600D02*
X81249700Y-124798500D01*
X80226800Y-121161300D02*
X81133800Y-122068300D01*
X95302400Y-128082100D02*
X89441200Y-133943300D01*
X111214100Y-125058500D02*
X109801400Y-125058500D01*
X108774300Y-124031400D02*
X108774300Y-123952000D01*
X81133800Y-122068300D02*
X81133800Y-124682600D01*
X80226800Y-84873200D02*
X80226800Y-121161300D01*
X95302400Y-125385500D02*
X95302400Y-128082100D01*
X89441200Y-133943300D02*
X89441200Y-134112000D01*
X109801400Y-125058500D02*
X108774300Y-124031400D01*
%TO.N,A23*%
X90876200Y-133648900D02*
X95099700Y-129425400D01*
X83825000Y-123952000D02*
X83470100Y-123952000D01*
X74269400Y-120512100D02*
X74269400Y-109456700D01*
X90876200Y-135217000D02*
X90876200Y-133648900D01*
X72793800Y-87650200D02*
X69650400Y-84506800D01*
X72793800Y-89315300D02*
X72793800Y-87650200D01*
X95832600Y-128692500D02*
X95832600Y-126153000D01*
X74269400Y-109456700D02*
X72616700Y-107804000D01*
X98415600Y-126231400D02*
X98415600Y-127270200D01*
X89441200Y-136652000D02*
X90876200Y-135217000D01*
X72616700Y-107804000D02*
X72616700Y-89492400D01*
X74637100Y-120879800D02*
X74269400Y-120512100D01*
X83470100Y-123952000D02*
X81940300Y-122422200D01*
X72616700Y-89492400D02*
X72793800Y-89315300D01*
X97561800Y-125377600D02*
X98415600Y-126231400D01*
X69650400Y-82350400D02*
X68580000Y-81280000D01*
X96608000Y-125377600D02*
X97561800Y-125377600D01*
X69650400Y-84506800D02*
X69650400Y-82350400D01*
X95832600Y-126153000D02*
X96608000Y-125377600D01*
X95099700Y-129425400D02*
X95832600Y-128692500D01*
%TO.N,A3*%
X156932200Y-111113700D02*
X156932200Y-116910000D01*
X74551000Y-51885600D02*
X74551000Y-53089300D01*
X156764600Y-92996500D02*
X156764600Y-110946100D01*
X149392600Y-73281300D02*
X157161500Y-81050200D01*
X74551000Y-53089300D02*
X71029800Y-56610500D01*
X156932200Y-116910000D02*
X156303800Y-117538400D01*
X151441900Y-120142000D02*
X148736000Y-120142000D01*
X156303800Y-117538400D02*
X154045500Y-117538400D01*
X137414400Y-60544300D02*
X138629300Y-61759200D01*
X149392600Y-71880200D02*
X149392600Y-73281300D01*
X157161500Y-92599600D02*
X156764600Y-92996500D01*
X139271600Y-61759200D02*
X149392600Y-71880200D01*
X59366300Y-61849000D02*
X58096300Y-63119000D01*
X71029800Y-56610500D02*
X69907900Y-56610500D01*
X156764600Y-110946100D02*
X156932200Y-111113700D01*
X64669400Y-61849000D02*
X59366300Y-61849000D01*
X75700000Y-50736600D02*
X74551000Y-51885600D01*
X138629300Y-61759200D02*
X139271600Y-61759200D01*
X157161500Y-81050200D02*
X157161500Y-92599600D01*
X154045500Y-117538400D02*
X151441900Y-120142000D01*
X69907900Y-56610500D02*
X64669400Y-61849000D01*
X137414400Y-49059200D02*
X137414400Y-60544300D01*
X75700000Y-50329200D02*
X75700000Y-50736600D01*
X148736000Y-120142000D02*
X142386000Y-126492000D01*
%TO.N,A4*%
X58096300Y-60579000D02*
X59404000Y-59271300D01*
X158440700Y-126317800D02*
X157853600Y-126904900D01*
X65773700Y-59271300D02*
X68205800Y-56839200D01*
X159256900Y-96575400D02*
X158805100Y-97027200D01*
X147700000Y-47789200D02*
X159256900Y-59346100D01*
X159256900Y-59346100D02*
X159256900Y-96575400D01*
X157853600Y-126904900D02*
X157853600Y-129667400D01*
X143687700Y-130333700D02*
X144774200Y-130333700D01*
X158805100Y-110100600D02*
X158972700Y-110268200D01*
X74190700Y-49298500D02*
X75700000Y-47789200D01*
X158805100Y-97027200D02*
X158805100Y-110100600D01*
X59404000Y-59271300D02*
X65773700Y-59271300D01*
X73864200Y-52515400D02*
X73864200Y-51995200D01*
X142386000Y-129032000D02*
X143687700Y-130333700D01*
X73864200Y-51995200D02*
X74190700Y-51668700D01*
X158972700Y-118260000D02*
X158440700Y-118792000D01*
X158440700Y-118792000D02*
X158440700Y-126317800D01*
X74190700Y-51668700D02*
X74190700Y-49298500D01*
X158972700Y-110268200D02*
X158972700Y-118260000D01*
X157853600Y-129667400D02*
X157187300Y-130333700D01*
X68205800Y-56207200D02*
X70347500Y-54065500D01*
X72314100Y-54065500D02*
X73864200Y-52515400D01*
X70347500Y-54065500D02*
X72314100Y-54065500D01*
X68205800Y-56839200D02*
X68205800Y-56207200D01*
%TO.N,A5*%
X158848800Y-127573300D02*
X158660100Y-127762000D01*
X72577700Y-52661200D02*
X72052800Y-53186100D01*
X159380800Y-118429100D02*
X158848800Y-118961100D01*
X159665000Y-57214200D02*
X159665000Y-96744500D01*
X159665000Y-96744500D02*
X159213200Y-97196300D01*
X158848800Y-118961100D02*
X158848800Y-127573300D01*
X159380800Y-110099100D02*
X159380800Y-118429100D01*
X159213200Y-109931500D02*
X159380800Y-110099100D01*
X159213200Y-97196300D02*
X159213200Y-109931500D01*
X75700000Y-45249200D02*
X72577700Y-48371500D01*
X72577700Y-48371500D02*
X72577700Y-52661200D01*
X147700000Y-45249200D02*
X159665000Y-57214200D01*
%TO.N,A6*%
X160073100Y-55082300D02*
X160073100Y-96913600D01*
X147700000Y-42709200D02*
X160073100Y-55082300D01*
X59531300Y-49646600D02*
X59531300Y-54064000D01*
X159256900Y-124709100D02*
X159466600Y-124918800D01*
X59531300Y-54064000D02*
X58096300Y-55499000D01*
X159788900Y-118598200D02*
X159256900Y-119130200D01*
X71903700Y-46505500D02*
X62672400Y-46505500D01*
X75700000Y-42709200D02*
X71903700Y-46505500D01*
X155801400Y-132975900D02*
X154436900Y-132975900D01*
X159621300Y-97365400D02*
X159621300Y-109762400D01*
X159466600Y-124918800D02*
X159466600Y-129310700D01*
X159256900Y-119130200D02*
X159256900Y-124709100D01*
X160073100Y-96913600D02*
X159621300Y-97365400D01*
X159788900Y-109930000D02*
X159788900Y-118598200D01*
X159621300Y-109762400D02*
X159788900Y-109930000D01*
X154436900Y-132975900D02*
X154436900Y-132976000D01*
X62672400Y-46505500D02*
X59531300Y-49646600D01*
X159466600Y-129310700D02*
X155801400Y-132975900D01*
%TO.N,A7*%
X165111300Y-125611800D02*
X165111300Y-132291200D01*
X105886500Y-33982700D02*
X99700000Y-40169200D01*
X165352600Y-113982400D02*
X165352600Y-125370500D01*
X58096300Y-52959000D02*
X56494200Y-51356900D01*
X117513500Y-33982700D02*
X105886500Y-33982700D01*
X166420300Y-112914700D02*
X165352600Y-113982400D01*
X171700000Y-40169200D02*
X166636300Y-45232900D01*
X165352600Y-125370500D02*
X165111300Y-125611800D01*
X123700000Y-40169200D02*
X117513500Y-33982700D01*
X56494200Y-51356900D02*
X56494200Y-42145800D01*
X56494200Y-42145800D02*
X58011500Y-40628500D01*
X166636300Y-45232900D02*
X166636300Y-62764100D01*
X166420300Y-62980100D02*
X166420300Y-112914700D01*
X166636300Y-62764100D02*
X166420300Y-62980100D01*
%TO.N,A8*%
X57929200Y-43905500D02*
X58554600Y-43905500D01*
X160197000Y-109760900D02*
X160197000Y-120008500D01*
X160481200Y-50410400D02*
X160481200Y-107886900D01*
X105928500Y-31400700D02*
X99700000Y-37629200D01*
X160029400Y-109593300D02*
X160197000Y-109760900D01*
X58096300Y-50419000D02*
X56947800Y-49270500D01*
X160029400Y-108338700D02*
X160029400Y-109593300D01*
X56947800Y-44886900D02*
X57929200Y-43905500D01*
X58554600Y-43905500D02*
X59512300Y-42947800D01*
X160481200Y-107886900D02*
X160029400Y-108338700D01*
X117471500Y-31400700D02*
X105928500Y-31400700D01*
X59512300Y-42947800D02*
X59512300Y-39816300D01*
X123700000Y-37629200D02*
X117471500Y-31400700D01*
X147700000Y-37629200D02*
X160481200Y-50410400D01*
X160197000Y-120008500D02*
X160063500Y-120142000D01*
X56947800Y-49270500D02*
X56947800Y-44886900D01*
%TO.N,A9*%
X162940000Y-40169200D02*
X161832200Y-41277000D01*
X58096300Y-47879000D02*
X61742800Y-44232500D01*
X165308300Y-71561500D02*
X165308300Y-112872300D01*
X164441600Y-113513700D02*
X161487700Y-116467600D01*
X164666900Y-113513700D02*
X164441600Y-113513700D01*
X161487700Y-116467600D02*
X161487700Y-121462900D01*
X61742800Y-44232500D02*
X64648100Y-44232500D01*
X165308300Y-112872300D02*
X164666900Y-113513700D01*
X161832200Y-41277000D02*
X161832200Y-68085400D01*
X161832200Y-68085400D02*
X165308300Y-71561500D01*
X64648100Y-44232500D02*
X67441400Y-41439200D01*
%TO.N,AD0*%
X195700000Y-57949200D02*
X208491200Y-70740400D01*
X97896400Y-67145000D02*
X84859100Y-80182300D01*
X98967300Y-58681900D02*
X96006200Y-55720800D01*
X208491200Y-91809100D02*
X208850800Y-92168700D01*
X82819200Y-86030400D02*
X81280000Y-87569600D01*
X99700000Y-57949200D02*
X98967300Y-58681900D01*
X84859100Y-84224600D02*
X83053300Y-86030400D01*
X97896400Y-59752800D02*
X97896400Y-67145000D01*
X98967300Y-58681900D02*
X97896400Y-59752800D01*
X84859100Y-80182300D02*
X84859100Y-84224600D01*
X208491200Y-70740400D02*
X208491200Y-91809100D01*
X83053300Y-86030400D02*
X82819200Y-86030400D01*
X96006200Y-55720800D02*
X96006200Y-52155000D01*
X81280000Y-87569600D02*
X81280000Y-104140000D01*
%TO.N,AD1*%
X147700000Y-60489200D02*
X154304200Y-67093400D01*
X195700000Y-60489200D02*
X201601700Y-66390900D01*
X55647400Y-65095800D02*
X55951700Y-65400100D01*
X133661100Y-73518900D02*
X133095000Y-73518900D01*
X83602500Y-103922500D02*
X83820000Y-104140000D01*
X208041900Y-74746300D02*
X208041900Y-92694100D01*
X84010600Y-85832400D02*
X84010600Y-92309500D01*
X132078800Y-71130600D02*
X135605600Y-67603800D01*
X55647400Y-60217400D02*
X55647400Y-65095800D01*
X84010600Y-92309500D02*
X83602500Y-92717600D01*
X83602500Y-92717600D02*
X83602500Y-103922500D01*
X201601700Y-66390900D02*
X201601700Y-68306100D01*
X208041900Y-92694100D02*
X207010000Y-93726000D01*
X55951700Y-65400100D02*
X55951700Y-66269500D01*
X55951700Y-66269500D02*
X57595400Y-67913200D01*
X58170500Y-67913200D02*
X63829700Y-73572400D01*
X100817400Y-67515400D02*
X98395900Y-69936900D01*
X85337400Y-80281200D02*
X85337400Y-84505600D01*
X132078800Y-72502700D02*
X132078800Y-71130600D01*
X95065300Y-73267500D02*
X92925700Y-73267500D01*
X100817400Y-61606600D02*
X100817400Y-67515400D01*
X133095000Y-73518900D02*
X132078800Y-72502700D01*
X57595400Y-67913200D02*
X58170500Y-67913200D01*
X98395900Y-69936900D02*
X95065300Y-73267500D01*
X154304200Y-67093400D02*
X154510600Y-67093400D01*
X52439800Y-57009800D02*
X55647400Y-60217400D01*
X92925700Y-73267500D02*
X92351100Y-73267500D01*
X201601700Y-68306100D02*
X208041900Y-74746300D01*
X92351100Y-73267500D02*
X85337400Y-80281200D01*
X99700000Y-60489200D02*
X100817400Y-61606600D01*
X85337400Y-84505600D02*
X84010600Y-85832400D01*
X63829700Y-73572400D02*
X64123200Y-73572400D01*
%TO.N,AD10*%
X171700000Y-63029200D02*
X172848500Y-64177700D01*
X86800000Y-75579700D02*
X94324500Y-68055200D01*
X83525600Y-75579700D02*
X86800000Y-75579700D01*
X123700000Y-63029200D02*
X127714200Y-67043400D01*
X172848500Y-68087100D02*
X174649300Y-69887900D01*
X172848500Y-68087100D02*
X171972900Y-68087100D01*
X81280000Y-81280000D02*
X81985600Y-80574400D01*
X171972900Y-68087100D02*
X171725500Y-68334500D01*
X81985600Y-80574400D02*
X81985600Y-77119700D01*
X232410000Y-75946000D02*
X228134200Y-71670200D01*
X228134200Y-71670200D02*
X224430400Y-71670200D01*
X174649300Y-69887900D02*
X174649300Y-71961200D01*
X127714200Y-67043400D02*
X127714200Y-67645000D01*
X94324500Y-68055200D02*
X94324500Y-61322300D01*
X172848500Y-64177700D02*
X172848500Y-68087100D01*
X81985600Y-77119700D02*
X83525600Y-75579700D01*
%TO.N,AD11*%
X145723800Y-70502300D02*
X145723800Y-69042600D01*
X74955200Y-26317800D02*
X76504600Y-26317800D01*
X92053400Y-60034600D02*
X92053400Y-64455800D01*
X72844800Y-37179600D02*
X72844800Y-28428200D01*
X78740000Y-73467900D02*
X86638700Y-65569200D01*
X186265500Y-68183800D02*
X186265500Y-70455600D01*
X85112900Y-34926100D02*
X85112900Y-53697800D01*
X89979500Y-59382700D02*
X91401500Y-59382700D01*
X92053400Y-64455800D02*
X90940000Y-65569200D01*
X62922300Y-45339000D02*
X64685400Y-45339000D01*
X78740000Y-81280000D02*
X78740000Y-73467900D01*
X64685400Y-45339000D02*
X72844800Y-37179600D01*
X72844800Y-28428200D02*
X74955200Y-26317800D01*
X185984800Y-67903100D02*
X186265500Y-68183800D01*
X185984800Y-66524400D02*
X185984800Y-67903100D01*
X87444400Y-56029300D02*
X87444400Y-56847600D01*
X145723800Y-69042600D02*
X142250400Y-65569200D01*
X186940000Y-65569200D02*
X185984800Y-66524400D01*
X87444400Y-56847600D02*
X89979500Y-59382700D01*
X76504600Y-26317800D02*
X85112900Y-34926100D01*
X91401500Y-59382700D02*
X92053400Y-60034600D01*
X142250400Y-65569200D02*
X138940000Y-65569200D01*
X85112900Y-53697800D02*
X87444400Y-56029300D01*
%TO.N,AD12*%
X136812100Y-64912400D02*
X136812100Y-65046300D01*
X143251900Y-67208600D02*
X143251900Y-70467200D01*
X138441500Y-66675700D02*
X140732100Y-66675700D01*
X140732100Y-66675700D02*
X141030800Y-66377000D01*
X188062000Y-69771900D02*
X187792300Y-70041600D01*
X138940000Y-63029200D02*
X138695300Y-63029200D01*
X83312100Y-52583500D02*
X85112900Y-54384300D01*
X136812100Y-65046300D02*
X138441500Y-66675700D01*
X79323400Y-46042900D02*
X83312100Y-50031600D01*
X85112900Y-54384300D02*
X85112900Y-62264400D01*
X186940000Y-63029200D02*
X188062000Y-64151200D01*
X138695300Y-63029200D02*
X136812100Y-64912400D01*
X82732000Y-71237200D02*
X81946300Y-71237200D01*
X79838500Y-82721500D02*
X78740000Y-83820000D01*
X90940000Y-63029200D02*
X82732000Y-71237200D01*
X141030800Y-66377000D02*
X142420300Y-66377000D01*
X81946300Y-71237200D02*
X79838500Y-73345000D01*
X79193400Y-46042900D02*
X79323400Y-46042900D01*
X188062000Y-64151200D02*
X188062000Y-69771900D01*
X142420300Y-66377000D02*
X143251900Y-67208600D01*
X79838500Y-73345000D02*
X79838500Y-82721500D01*
X83312100Y-50031600D02*
X83312100Y-52583500D01*
%TO.N,AD13*%
X186940000Y-60489200D02*
X188604400Y-62153600D01*
X52828300Y-55391800D02*
X56463600Y-59027100D01*
X76200000Y-83820000D02*
X77707600Y-82312400D01*
X90536100Y-60489200D02*
X90940000Y-60489200D01*
X57789800Y-66953200D02*
X61090200Y-66953200D01*
X151423400Y-71388100D02*
X151423400Y-72440000D01*
X188604400Y-62153600D02*
X188604400Y-72548000D01*
X56911500Y-66074900D02*
X57789800Y-66953200D01*
X56463600Y-64554200D02*
X56911500Y-65002100D01*
X56911500Y-65002100D02*
X56911500Y-66074900D01*
X77707600Y-73317700D02*
X76321400Y-71931500D01*
X145280700Y-65245400D02*
X151423400Y-71388100D01*
X145280700Y-61127700D02*
X145280700Y-65245400D01*
X77707600Y-73317700D02*
X90536100Y-60489200D01*
X56463600Y-59027100D02*
X56463600Y-64554200D01*
X61090200Y-66953200D02*
X65955800Y-71818800D01*
X77707600Y-82312400D02*
X77707600Y-73317700D01*
X145585500Y-60822900D02*
X145280700Y-61127700D01*
%TO.N,AD14*%
X65765000Y-55801700D02*
X65765000Y-58091700D01*
X92116500Y-67126600D02*
X92469900Y-66773200D01*
X92469900Y-59479100D02*
X90940000Y-57949200D01*
X83791100Y-74177800D02*
X80645000Y-77323900D01*
X92116500Y-67126600D02*
X90842300Y-67126600D01*
X192779000Y-75536500D02*
X195204700Y-75536500D01*
X92469900Y-66773200D02*
X92469900Y-59479100D01*
X68954900Y-71089700D02*
X70206100Y-72340900D01*
X62922300Y-52959000D02*
X65765000Y-55801700D01*
X133880600Y-59332400D02*
X135263800Y-57949200D01*
X83791100Y-74177800D02*
X81968700Y-72355400D01*
X80645000Y-77323900D02*
X80645000Y-79207600D01*
X190892500Y-73650000D02*
X192779000Y-75536500D01*
X133880600Y-66128200D02*
X133880600Y-59332400D01*
X68954900Y-58704000D02*
X68954900Y-71089700D01*
X195204700Y-75536500D02*
X195487800Y-75253400D01*
X90842300Y-67126600D02*
X83791100Y-74177800D01*
X186940000Y-57949200D02*
X190892500Y-61901700D01*
X190892500Y-61901700D02*
X190892500Y-73650000D01*
%TO.N,AD15*%
X73660000Y-83820000D02*
X74764600Y-82715400D01*
X156286300Y-70015500D02*
X156286300Y-73175800D01*
X89597500Y-55409200D02*
X88383100Y-56623600D01*
X78432700Y-66646500D02*
X82656600Y-62422600D01*
X147402200Y-61759200D02*
X146108500Y-63052900D01*
X74764600Y-82715400D02*
X74764600Y-70314600D01*
X146108500Y-63052900D02*
X146108500Y-64932500D01*
X146392000Y-60749000D02*
X147402200Y-61759200D01*
X74764600Y-70314600D02*
X78432700Y-66646500D01*
X193180600Y-61649800D02*
X186940000Y-55409200D01*
X147402200Y-61759200D02*
X148030000Y-61759200D01*
X90940000Y-55409200D02*
X89597500Y-55409200D01*
X148030000Y-61759200D02*
X156286300Y-70015500D01*
X82656600Y-62422600D02*
X82656600Y-56730000D01*
X146392000Y-56738300D02*
X146392000Y-60749000D01*
X193180600Y-74729900D02*
X193180600Y-61649800D01*
X145744100Y-56090400D02*
X146392000Y-56738300D01*
%TO.N,AD2*%
X52563800Y-61925900D02*
X52563800Y-64728700D01*
X84535100Y-92565300D02*
X84535100Y-91798800D01*
X205596100Y-99177500D02*
X205596100Y-98455300D01*
X98468200Y-64261000D02*
X98468200Y-68423200D01*
X84535100Y-91798800D02*
X86163900Y-90170000D01*
X205596100Y-98455300D02*
X207010000Y-97041400D01*
X85332600Y-105652600D02*
X85332600Y-101208100D01*
X98468200Y-68423200D02*
X96551200Y-70340200D01*
X204538800Y-95160100D02*
X204131900Y-95160100D01*
X205992300Y-93706600D02*
X204538800Y-95160100D01*
X195700000Y-63544900D02*
X205992300Y-73837200D01*
X87426800Y-88907900D02*
X88704700Y-87630000D01*
X203448400Y-99287100D02*
X203985000Y-99823700D01*
X88704700Y-87630000D02*
X89102800Y-87630000D01*
X203985000Y-99823700D02*
X204949900Y-99823700D01*
X52155700Y-61517800D02*
X52563800Y-61925900D01*
X86577900Y-90170000D02*
X87426800Y-89321100D01*
X84010600Y-93089800D02*
X84535100Y-92565300D01*
X86163900Y-90170000D02*
X86577900Y-90170000D01*
X89102800Y-87630000D02*
X106087700Y-70645100D01*
X195700000Y-63029200D02*
X195700000Y-63544900D01*
X205992300Y-73837200D02*
X205992300Y-93706600D01*
X86360000Y-106680000D02*
X85332600Y-105652600D01*
X84010600Y-99886100D02*
X84010600Y-93089800D01*
X204131900Y-95160100D02*
X203448400Y-95843600D01*
X207010000Y-97041400D02*
X207010000Y-96266000D01*
X106087700Y-70645100D02*
X106087700Y-70340200D01*
X87426800Y-89321100D02*
X87426800Y-88907900D01*
X204949900Y-99823700D02*
X205596100Y-99177500D01*
X203448400Y-95843600D02*
X203448400Y-99287100D01*
X52563800Y-64728700D02*
X57588900Y-69753800D01*
X85332600Y-101208100D02*
X84010600Y-99886100D01*
X99700000Y-63029200D02*
X98468200Y-64261000D01*
%TO.N,AD3*%
X48840000Y-50874900D02*
X48125400Y-51589500D01*
X135563600Y-64854300D02*
X137931000Y-67221700D01*
X91240000Y-91204000D02*
X106031000Y-76413000D01*
X48482800Y-54725500D02*
X48482800Y-59524500D01*
X91240000Y-101800000D02*
X91240000Y-91204000D01*
X48840000Y-46975300D02*
X48840000Y-50874900D01*
X210940000Y-91298100D02*
X207242100Y-94996000D01*
X114940000Y-67504000D02*
X114940000Y-65569200D01*
X137931000Y-67221700D02*
X142114200Y-67221700D01*
X207242100Y-94996000D02*
X206767900Y-94996000D01*
X48125400Y-51589500D02*
X48125400Y-54368100D01*
X88900000Y-104140000D02*
X91240000Y-101800000D01*
X205740000Y-96023900D02*
X205740000Y-97536000D01*
X206767900Y-94996000D02*
X205740000Y-96023900D01*
X50476300Y-45339000D02*
X48840000Y-46975300D01*
X48125400Y-54368100D02*
X48482800Y-54725500D01*
X106031000Y-76413000D02*
X114940000Y-67504000D01*
X135563600Y-64496900D02*
X135563600Y-64854300D01*
X142114200Y-67221700D02*
X142114200Y-67221800D01*
X48482800Y-59524500D02*
X44888300Y-63119000D01*
X210940000Y-65569200D02*
X210940000Y-91298100D01*
X205740000Y-97536000D02*
X204470000Y-98806000D01*
%TO.N,AD4*%
X110610500Y-69047800D02*
X110892000Y-69329300D01*
X49248100Y-51044000D02*
X48533500Y-51758600D01*
X164518000Y-66185000D02*
X164518000Y-64607200D01*
X213125100Y-69071200D02*
X213125100Y-92690900D01*
X110610500Y-67358700D02*
X110610500Y-69047800D01*
X62204900Y-83594700D02*
X62204900Y-90386100D01*
X40933600Y-66784300D02*
X45394500Y-66784300D01*
X88900000Y-90758300D02*
X110610500Y-69047800D01*
X213071100Y-65160300D02*
X213071100Y-69017200D01*
X164518000Y-64607200D02*
X162940000Y-63029200D01*
X156316400Y-68722100D02*
X156316400Y-65378900D01*
X50476300Y-47879000D02*
X49248100Y-49107200D01*
X48533500Y-54199000D02*
X48891100Y-54556600D01*
X37268300Y-63119000D02*
X40933600Y-66784300D01*
X48891100Y-54556600D02*
X48891100Y-63287700D01*
X45394500Y-66784300D02*
X62204900Y-83594700D01*
X48891100Y-63287700D02*
X45394500Y-66784300D01*
X88900000Y-91440000D02*
X88900000Y-90758300D01*
X210940000Y-63029200D02*
X213071100Y-65160300D01*
X128335500Y-70614100D02*
X128335500Y-71163000D01*
X213071100Y-69017200D02*
X213125100Y-69071200D01*
X126645200Y-68923800D02*
X128335500Y-70614100D01*
X49248100Y-49107200D02*
X49248100Y-51044000D01*
X114940000Y-63029200D02*
X110610500Y-67358700D01*
X213125100Y-92690900D02*
X207010000Y-98806000D01*
X156316400Y-65378900D02*
X154733600Y-63796100D01*
X48533500Y-51758600D02*
X48533500Y-54199000D01*
%TO.N,AD5*%
X85908400Y-85298800D02*
X85305300Y-85901900D01*
X85305300Y-87845300D02*
X86360000Y-88900000D01*
X50476300Y-50419000D02*
X48941600Y-51953700D01*
X114940000Y-60489200D02*
X114790100Y-60489200D01*
X48023800Y-59034400D02*
X45362100Y-61696100D01*
X49349700Y-54438000D02*
X49349700Y-58513200D01*
X62018400Y-73185300D02*
X67548200Y-78715100D01*
X48023800Y-54843700D02*
X48023800Y-59034400D01*
X54831200Y-63052600D02*
X54831200Y-66303400D01*
X50145500Y-59309000D02*
X51087600Y-59309000D01*
X200789800Y-97665800D02*
X204470000Y-101346000D01*
X54831200Y-66303400D02*
X57257200Y-68729400D01*
X47717300Y-54537200D02*
X48023800Y-54843700D01*
X48941600Y-51953700D02*
X48941600Y-54029900D01*
X62018400Y-73042600D02*
X62018400Y-73185300D01*
X42768200Y-61696100D02*
X39111100Y-58039000D01*
X67548200Y-84605400D02*
X71579100Y-88636300D01*
X85305300Y-85901900D02*
X85305300Y-87845300D01*
X89980500Y-85298800D02*
X85908400Y-85298800D01*
X57705200Y-68729400D02*
X62018400Y-73042600D01*
X39111100Y-58039000D02*
X37268300Y-58039000D01*
X47717300Y-50528400D02*
X47717300Y-54537200D01*
X67548200Y-78715100D02*
X67548200Y-84605400D01*
X49349700Y-58513200D02*
X50145500Y-59309000D01*
X57257200Y-68729400D02*
X57705200Y-68729400D01*
X200789800Y-91898400D02*
X200789800Y-97665800D01*
X48941600Y-54029900D02*
X49349700Y-54438000D01*
X114790100Y-60489200D02*
X89980500Y-85298800D01*
X45362100Y-61696100D02*
X42768200Y-61696100D01*
X193997200Y-70446400D02*
X193997200Y-61613000D01*
X196306000Y-72755200D02*
X193997200Y-70446400D01*
X51087600Y-59309000D02*
X54831200Y-63052600D01*
X191057500Y-90830100D02*
X196306000Y-85581600D01*
X196306000Y-85581600D02*
X196306000Y-72755200D01*
X48023800Y-50221900D02*
X47717300Y-50528400D01*
%TO.N,AD6*%
X57895100Y-64484000D02*
X56871800Y-63460700D01*
X165324500Y-68341800D02*
X164532900Y-69133400D01*
X165324500Y-60333700D02*
X165324500Y-68341800D01*
X51536200Y-52959000D02*
X50476300Y-52959000D01*
X71356800Y-76079100D02*
X59761700Y-64484000D01*
X41096700Y-52959000D02*
X42220800Y-51834900D01*
X162940000Y-57949200D02*
X165324500Y-60333700D01*
X91440000Y-78334100D02*
X111824900Y-57949200D01*
X213533200Y-60542400D02*
X213533200Y-68683100D01*
X59761700Y-64484000D02*
X57895100Y-64484000D01*
X91440000Y-78334100D02*
X89952600Y-76846800D01*
X213533200Y-94822800D02*
X207010000Y-101346000D01*
X56871800Y-58294600D02*
X51536200Y-52959000D01*
X114940000Y-57949200D02*
X120750600Y-63759800D01*
X71356800Y-76763400D02*
X71356800Y-76079100D01*
X88900000Y-83820000D02*
X88900000Y-80874100D01*
X213877600Y-68683100D02*
X213533200Y-68683100D01*
X213533200Y-68683100D02*
X213533200Y-94822800D01*
X210940000Y-57949200D02*
X213533200Y-60542400D01*
X120750600Y-63759800D02*
X120750600Y-69524000D01*
X56871800Y-63460700D02*
X56871800Y-58294600D01*
X37268300Y-52959000D02*
X41096700Y-52959000D01*
X88900000Y-80874100D02*
X91440000Y-78334100D01*
%TO.N,AD7*%
X209794200Y-56555000D02*
X209550000Y-56555000D01*
X46809100Y-53291000D02*
X46809100Y-55499000D01*
X121798800Y-43043700D02*
X123403300Y-41439200D01*
X114940000Y-55409200D02*
X114940000Y-56341900D01*
X88415200Y-84847300D02*
X87630000Y-84062100D01*
X50476300Y-55499000D02*
X50476300Y-56186800D01*
X55543600Y-66438600D02*
X57426300Y-68321300D01*
X55543600Y-65569200D02*
X55543600Y-66438600D01*
X209550000Y-56555000D02*
X209550000Y-75946000D01*
X113833500Y-54302700D02*
X113833500Y-49832100D01*
X89372700Y-84847300D02*
X88415200Y-84847300D01*
X134894100Y-31420000D02*
X159845900Y-31420000D01*
X162940000Y-55409200D02*
X163792600Y-55409200D01*
X114940000Y-56341900D02*
X91111800Y-80170100D01*
X115077400Y-49222700D02*
X117172500Y-47127600D01*
X187398300Y-51762700D02*
X185940100Y-51762700D01*
X209550000Y-56555000D02*
X192190600Y-56555000D01*
X114442900Y-49222700D02*
X115077400Y-49222700D01*
X45207100Y-51689000D02*
X46809100Y-53291000D01*
X55239300Y-65264900D02*
X55543600Y-65569200D01*
X117172500Y-47127600D02*
X117172500Y-43264800D01*
X87630000Y-84062100D02*
X87630000Y-82550000D01*
X210940000Y-55409200D02*
X209794200Y-56555000D01*
X87630000Y-82550000D02*
X86360000Y-81280000D01*
X124874900Y-41439200D02*
X134894100Y-31420000D01*
X192190600Y-56555000D02*
X187398300Y-51762700D01*
X62426500Y-72746300D02*
X62426500Y-73016300D01*
X163257500Y-33819200D02*
X165215100Y-35776800D01*
X163792600Y-55409200D02*
X165215100Y-53986700D01*
X162245100Y-33819200D02*
X163257500Y-33819200D01*
X91111800Y-83108200D02*
X89372700Y-84847300D01*
X40423300Y-47879000D02*
X44233300Y-51689000D01*
X37268300Y-47879000D02*
X40423300Y-47879000D01*
X123403300Y-41439200D02*
X124874900Y-41439200D01*
X58001500Y-68321300D02*
X62426500Y-72746300D01*
X57426300Y-68321300D02*
X58001500Y-68321300D01*
X114940000Y-55409200D02*
X113833500Y-54302700D01*
X91111800Y-80170100D02*
X91111800Y-83108200D01*
X55239300Y-60949800D02*
X55239300Y-65264900D01*
X50476300Y-56186800D02*
X55239300Y-60949800D01*
X62426500Y-73016300D02*
X67663000Y-78252800D01*
X165215100Y-35776800D02*
X165215100Y-53986700D01*
X67663000Y-78252800D02*
X69892300Y-78252800D01*
X121798800Y-43264800D02*
X121798800Y-43043700D01*
X44233300Y-51689000D02*
X45207100Y-51689000D01*
X113833500Y-49832100D02*
X114442900Y-49222700D01*
X159845900Y-31420000D02*
X162245100Y-33819200D01*
X185940100Y-51762700D02*
X185010500Y-52692300D01*
%TO.N,AD8*%
X170519800Y-73538200D02*
X176852500Y-79870900D01*
X128926100Y-63175300D02*
X128926100Y-68118700D01*
X170519800Y-59129400D02*
X170519800Y-68713100D01*
X72614600Y-67956800D02*
X72614600Y-82734600D01*
X170519800Y-68713100D02*
X170518700Y-68713100D01*
X123700000Y-57949200D02*
X128926100Y-63175300D01*
X72871400Y-67700000D02*
X72614600Y-67956800D01*
X75700000Y-57949200D02*
X75700000Y-58480200D01*
X72614600Y-82734600D02*
X72666100Y-82786100D01*
X75700000Y-58480200D02*
X72871400Y-61308800D01*
X171700000Y-57949200D02*
X170519800Y-59129400D01*
X170519800Y-68713100D02*
X170519800Y-73538200D01*
X72871400Y-61308800D02*
X72871400Y-67700000D01*
%TO.N,AD9*%
X121569800Y-69845500D02*
X119441300Y-71974000D01*
X50476300Y-61020800D02*
X51952500Y-62497000D01*
X121365100Y-59933700D02*
X121569800Y-60138400D01*
X134728200Y-60489200D02*
X134728200Y-64867600D01*
X119441300Y-71974000D02*
X117558100Y-71974000D01*
X175408900Y-74089600D02*
X175455800Y-74042700D01*
X50476300Y-60579000D02*
X50476300Y-61020800D01*
X175455800Y-64245000D02*
X171700000Y-60489200D01*
X73478700Y-77384300D02*
X73478700Y-71517400D01*
X121569800Y-60138400D02*
X121569800Y-69845500D01*
X82861600Y-77384300D02*
X82783700Y-77462200D01*
X175455800Y-74042700D02*
X175455800Y-64245000D01*
X141169400Y-71308800D02*
X146279200Y-71308800D01*
X51952500Y-62497000D02*
X51952500Y-66407400D01*
X82783700Y-77462200D02*
X82783700Y-82783700D01*
X82783700Y-82783700D02*
X83820000Y-83820000D01*
X134728200Y-64867600D02*
X141169400Y-71308800D01*
X73478700Y-71517400D02*
X73677900Y-71318200D01*
X73677900Y-71318200D02*
X73677900Y-62511300D01*
X73677900Y-62511300D02*
X75700000Y-60489200D01*
X51952500Y-66407400D02*
X56557400Y-71012300D01*
X146279200Y-71308800D02*
X149422800Y-74452400D01*
%TO.N,BTI_AD0*%
X26118900Y-48895000D02*
X33712300Y-48895000D01*
X26742800Y-61595000D02*
X26116400Y-61595000D01*
X26116400Y-61595000D02*
X25301800Y-60780400D01*
X27595400Y-62447600D02*
X26742800Y-61595000D01*
X27595400Y-64044400D02*
X27595400Y-62447600D01*
X28956000Y-65405000D02*
X27595400Y-64044400D01*
X33712300Y-48895000D02*
X37268300Y-45339000D01*
X25301800Y-60780400D02*
X25301800Y-49712100D01*
X25301800Y-49712100D02*
X26118900Y-48895000D01*
%TO.N,BTI_AD1*%
X27798600Y-52223600D02*
X28443400Y-51578800D01*
X27798600Y-61707600D02*
X27798600Y-52223600D01*
X28956000Y-62865000D02*
X27798600Y-61707600D01*
X28443400Y-51578800D02*
X36108500Y-51578800D01*
X36108500Y-51578800D02*
X37268300Y-50419000D01*
%TO.N,BTI_AD4*%
X31879800Y-59144000D02*
X32044800Y-59309000D01*
X31216100Y-59144000D02*
X31879800Y-59144000D01*
X32044800Y-59309000D02*
X38538300Y-59309000D01*
X30226000Y-58153900D02*
X31216100Y-59144000D01*
X38538300Y-59309000D02*
X44888300Y-65659000D01*
X30226000Y-56515000D02*
X30226000Y-58153900D01*
X28956000Y-55245000D02*
X30226000Y-56515000D01*
%TO.N,BTI_AD5*%
X28956000Y-52705000D02*
X30315000Y-54064000D01*
X32044800Y-54229000D02*
X38538300Y-54229000D01*
X30315000Y-54064000D02*
X31879800Y-54064000D01*
X38538300Y-54229000D02*
X44888300Y-60579000D01*
X31879800Y-54064000D02*
X32044800Y-54229000D01*
%TO.N,CFG_OE*%
X46323300Y-46774000D02*
X46323300Y-51915800D01*
X47309200Y-54706300D02*
X47615700Y-55012800D01*
X44888300Y-45339000D02*
X46323300Y-46774000D01*
X46323300Y-51915800D02*
X47309200Y-52901700D01*
X47309200Y-52901700D02*
X47309200Y-54706300D01*
X47615700Y-55012800D02*
X47615700Y-58272200D01*
X47615700Y-58272200D02*
X46361700Y-59526200D01*
%TO.N,CPLD_DI0*%
X190587800Y-105715000D02*
X190587800Y-104619600D01*
X190587800Y-104619600D02*
X192008700Y-103198700D01*
X182095000Y-118872000D02*
X183225100Y-117741900D01*
X183225100Y-113077700D02*
X190587800Y-105715000D01*
X183225100Y-117741900D02*
X183225100Y-113077700D01*
%TO.N,CPLD_DI1*%
X188314800Y-109982900D02*
X187223500Y-111074200D01*
X187223500Y-116283500D02*
X182095000Y-121412000D01*
X187223500Y-111074200D02*
X187223500Y-116283500D01*
%TO.N,CPLD_DI2*%
X222250000Y-103886000D02*
X220980000Y-105156000D01*
X220980000Y-105156000D02*
X219467900Y-105156000D01*
X218440000Y-106655800D02*
X211329200Y-113766600D01*
X209859600Y-113766600D02*
X203496700Y-120129500D01*
X203496700Y-120129500D02*
X199834100Y-120129500D01*
X219467900Y-105156000D02*
X218440000Y-106183900D01*
X218440000Y-106183900D02*
X218440000Y-106655800D01*
X199834100Y-120129500D02*
X197282700Y-122680900D01*
X211329200Y-113766600D02*
X209859600Y-113766600D01*
%TO.N,CPLD_DI3*%
X189121300Y-107901000D02*
X191394300Y-105628000D01*
X182095000Y-126492000D02*
X182384200Y-126492000D01*
X191394300Y-105628000D02*
X191394300Y-105220000D01*
X187631600Y-121244600D02*
X187631600Y-115467200D01*
X189121300Y-113977500D02*
X189121300Y-107901000D01*
X187631600Y-115467200D02*
X189121300Y-113977500D01*
X182384200Y-126492000D02*
X187631600Y-121244600D01*
%TO.N,CPLD_DI4*%
X215443500Y-119665400D02*
X215443500Y-116493100D01*
X208115600Y-124709200D02*
X210399700Y-124709200D01*
X204910700Y-127914100D02*
X208115600Y-124709200D01*
X220386900Y-111549700D02*
X222206300Y-111549700D01*
X215443500Y-116493100D02*
X220386900Y-111549700D01*
X210399700Y-124709200D02*
X215443500Y-119665400D01*
X222206300Y-111549700D02*
X227330000Y-106426000D01*
%TO.N,CPLD_DI5*%
X201631400Y-102830900D02*
X226274900Y-102830900D01*
X188530300Y-115932000D02*
X201631400Y-102830900D01*
X182095000Y-131572000D02*
X185535400Y-128131600D01*
X185535400Y-125253000D02*
X188530300Y-122258100D01*
X188530300Y-122258100D02*
X188530300Y-115932000D01*
X185535400Y-128131600D02*
X185535400Y-125253000D01*
X226274900Y-102830900D02*
X227330000Y-103886000D01*
%TO.N,CPLD_DI6*%
X219386100Y-116909900D02*
X219386100Y-132543500D01*
X229870000Y-106426000D02*
X219386100Y-116909900D01*
%TO.N,CPLD_DI7*%
X197300000Y-133750000D02*
X195668000Y-135382000D01*
X195668000Y-135382000D02*
X193732200Y-135382000D01*
X197300000Y-130543400D02*
X197300000Y-133750000D01*
X225248300Y-107443700D02*
X222573900Y-107443700D01*
X229870000Y-103886000D02*
X228600000Y-105156000D01*
X228600000Y-105156000D02*
X227154100Y-105156000D01*
X227154100Y-105156000D02*
X226060000Y-106250100D01*
X222573900Y-107443700D02*
X210256600Y-119761000D01*
X202621400Y-125222000D02*
X197300000Y-130543400D01*
X210256600Y-119761000D02*
X208709900Y-119761000D01*
X193732200Y-135382000D02*
X191686400Y-137427800D01*
X208709900Y-119761000D02*
X203248900Y-125222000D01*
X203248900Y-125222000D02*
X202621400Y-125222000D01*
X226060000Y-106632000D02*
X225248300Y-107443700D01*
X226060000Y-106250100D02*
X226060000Y-106632000D01*
%TO.N,CPLD_DO0*%
X170143500Y-112493600D02*
X178546100Y-104091000D01*
X182177100Y-104368600D02*
X187213900Y-104368600D01*
X181899500Y-104646200D02*
X182177100Y-104368600D01*
X181231300Y-104646200D02*
X181899500Y-104646200D01*
X187213900Y-104368600D02*
X188473300Y-105628000D01*
X180676100Y-104091000D02*
X181231300Y-104646200D01*
X178546100Y-104091000D02*
X180676100Y-104091000D01*
X170143500Y-117587500D02*
X170143500Y-112493600D01*
X168859000Y-118872000D02*
X170143500Y-117587500D01*
%TO.N,CPLD_DO1*%
X176911000Y-108262400D02*
X176911000Y-108883500D01*
X170670700Y-115123800D02*
X170670700Y-119600300D01*
X176911000Y-108883500D02*
X170670700Y-115123800D01*
X170670700Y-119600300D02*
X168859000Y-121412000D01*
X180275700Y-104897700D02*
X176911000Y-108262400D01*
%TO.N,CPLD_DO2*%
X209550000Y-106426000D02*
X207908900Y-108067100D01*
X175831000Y-110562000D02*
X171318600Y-115074400D01*
X207908900Y-108067100D02*
X201227000Y-108067100D01*
X171318600Y-121492400D02*
X168859000Y-123952000D01*
X176445900Y-110562000D02*
X175831000Y-110562000D01*
X171318600Y-115074400D02*
X171318600Y-121492400D01*
%TO.N,CPLD_DO3*%
X209550000Y-103886000D02*
X208532300Y-104903700D01*
X190992300Y-114142700D02*
X190992300Y-121727200D01*
X208532300Y-104903700D02*
X200231300Y-104903700D01*
X189412200Y-122518500D02*
X186706000Y-125224700D01*
X200231300Y-104903700D02*
X190992300Y-114142700D01*
X190992300Y-121727200D02*
X190201000Y-122518500D01*
X190201000Y-122518500D02*
X189412200Y-122518500D01*
%TO.N,CPLD_DO4*%
X172178500Y-125712500D02*
X172178500Y-115401300D01*
X172178500Y-115401300D02*
X175302600Y-112277200D01*
X168859000Y-129032000D02*
X172178500Y-125712500D01*
X212090000Y-106426000D02*
X206503200Y-112012800D01*
%TO.N,CPLD_DO5*%
X172586700Y-127844300D02*
X172586700Y-116547900D01*
X172586700Y-116547900D02*
X180561300Y-108573300D01*
X180561300Y-108573300D02*
X180561300Y-106434600D01*
X168859000Y-131572000D02*
X172586700Y-127844300D01*
%TO.N,CPLD_DO6*%
X181097700Y-107896900D02*
X183794100Y-105200500D01*
X172994800Y-129976200D02*
X172994800Y-116717000D01*
X168859000Y-134112000D02*
X172994800Y-129976200D01*
X181097700Y-108614100D02*
X181097700Y-107896900D01*
X172994800Y-116717000D02*
X181097700Y-108614100D01*
%TO.N,CPLD_DO7*%
X174796500Y-129737300D02*
X174796500Y-115838800D01*
X170294000Y-134239800D02*
X174796500Y-129737300D01*
X168859000Y-136652000D02*
X170294000Y-135217000D01*
X170294000Y-135217000D02*
X170294000Y-134239800D01*
X174796500Y-115838800D02*
X183384500Y-107250800D01*
%TO.N,CPLD_pDBIN*%
X135167900Y-110704100D02*
X138684000Y-107188000D01*
X135167900Y-117934100D02*
X135167900Y-110704100D01*
X129150000Y-123952000D02*
X135167900Y-117934100D01*
%TO.N,CPLD_pSTVAL*%
X134759700Y-115802300D02*
X129150000Y-121412000D01*
X134759700Y-106032300D02*
X134759700Y-115802300D01*
X136144000Y-104648000D02*
X134759700Y-106032300D01*
%TO.N,CPLD_pSYNC*%
X129150000Y-118872000D02*
X133604000Y-114418000D01*
X133604000Y-114418000D02*
X133604000Y-107188000D01*
%TO.N,CPLD_pWR*%
X139722200Y-105686200D02*
X139722200Y-109944400D01*
X139722200Y-109944400D02*
X135598700Y-114067900D01*
X135598700Y-114067900D02*
X135598700Y-120043300D01*
X138684000Y-104648000D02*
X139722200Y-105686200D01*
X135598700Y-120043300D02*
X129150000Y-126492000D01*
%TO.N,CPLD_sHLTA*%
X167311400Y-99231100D02*
X167647100Y-98895400D01*
X195331000Y-130994800D02*
X192211000Y-127874800D01*
X167659700Y-118789100D02*
X166168800Y-117298200D01*
X168326500Y-122524400D02*
X167659700Y-121857600D01*
X167311400Y-113178000D02*
X167311400Y-99231100D01*
X192211000Y-127874800D02*
X192211000Y-126404200D01*
X192211000Y-126404200D02*
X191802900Y-125996100D01*
X191802900Y-125996100D02*
X191802900Y-120013300D01*
X170512100Y-121058600D02*
X170512100Y-121331300D01*
X169319000Y-122524400D02*
X168326500Y-122524400D01*
X195331000Y-131572000D02*
X195331000Y-130994800D01*
X167659700Y-121857600D02*
X167659700Y-118789100D01*
X170512100Y-121331300D02*
X169319000Y-122524400D01*
X166168800Y-114320600D02*
X167311400Y-113178000D01*
X166168800Y-117298200D02*
X166168800Y-114320600D01*
%TO.N,CPLD_sINP*%
X195331000Y-123952000D02*
X193492100Y-122113100D01*
X193492100Y-122113100D02*
X193492100Y-118095100D01*
X146304000Y-107188000D02*
X147948400Y-108832400D01*
X193492100Y-118095100D02*
X191810200Y-116413200D01*
X147948400Y-108832400D02*
X147948400Y-113818400D01*
%TO.N,CPLD_sINTA*%
X190195300Y-125334200D02*
X189308100Y-125334200D01*
X189308100Y-125334200D02*
X188467400Y-126174900D01*
X126445600Y-98298000D02*
X123905600Y-100838000D01*
X155317600Y-113651700D02*
X155317600Y-105352200D01*
X180158100Y-124516000D02*
X178084100Y-122442000D01*
X192552800Y-129424100D02*
X191396300Y-128267600D01*
X155317600Y-105352200D02*
X155429300Y-105240500D01*
X156073900Y-114408000D02*
X155317600Y-113651700D01*
X178084100Y-122442000D02*
X178084100Y-115646300D01*
X188467400Y-126174900D02*
X188467400Y-129178900D01*
X188467400Y-129178900D02*
X186346700Y-131299600D01*
X155429300Y-105240500D02*
X155429300Y-100195800D01*
X123905600Y-100838000D02*
X122174000Y-100838000D01*
X155429300Y-100195800D02*
X153322400Y-98088900D01*
X191396300Y-126535200D02*
X190195300Y-125334200D01*
X122174000Y-100838000D02*
X120904000Y-102108000D01*
X191396300Y-128267600D02*
X191396300Y-126535200D01*
X180158100Y-130465500D02*
X180158100Y-124516000D01*
%TO.N,CPLD_sMEMR*%
X195331000Y-118872000D02*
X196476600Y-117726400D01*
X195069400Y-114098400D02*
X195069400Y-111206200D01*
X196476600Y-117726400D02*
X196476600Y-115505600D01*
X196476600Y-115505600D02*
X195069400Y-114098400D01*
%TO.N,CPLD_sOUT*%
X149157100Y-106061900D02*
X152490400Y-109395200D01*
X180220800Y-121155000D02*
X180220800Y-111811900D01*
X182934900Y-122682000D02*
X181747800Y-122682000D01*
X146304000Y-104648000D02*
X147717900Y-106061900D01*
X183994100Y-123741200D02*
X182934900Y-122682000D01*
X152490400Y-109395200D02*
X152490400Y-110902000D01*
X147717900Y-106061900D02*
X149157100Y-106061900D01*
X181747800Y-122682000D02*
X180220800Y-121155000D01*
%TO.N,CPLD_sWO*%
X143764000Y-104648000D02*
X142733100Y-105678900D01*
X142733100Y-112300200D02*
X143444800Y-113011900D01*
X193900200Y-115276700D02*
X193272700Y-114649200D01*
X142733100Y-105678900D02*
X142733100Y-112300200D01*
X193900200Y-119981200D02*
X193900200Y-115276700D01*
X195331000Y-121412000D02*
X193900200Y-119981200D01*
%TO.N,CPLD_sXTRQ*%
X156235400Y-90907500D02*
X156235400Y-111792700D01*
X156235400Y-111792700D02*
X156125700Y-111902400D01*
X196891900Y-132551100D02*
X196891900Y-123783300D01*
X196453400Y-123344800D02*
X196453400Y-122361300D01*
X196884700Y-121930000D02*
X196884700Y-114229000D01*
X195331000Y-134112000D02*
X196891900Y-132551100D01*
X196891900Y-123783300D02*
X196453400Y-123344800D01*
X196884700Y-114229000D02*
X195892800Y-113237100D01*
X196453400Y-122361300D02*
X196884700Y-121930000D01*
%TO.N,DI_DIR*%
X190179700Y-103038000D02*
X195454900Y-97762800D01*
X182095000Y-116332000D02*
X182095000Y-113630600D01*
X182095000Y-113630600D02*
X190179700Y-105545900D01*
X190179700Y-105545900D02*
X190179700Y-103038000D01*
%TO.N,DO_DIR*%
X168859000Y-111945100D02*
X180691200Y-100112900D01*
X180691200Y-100112900D02*
X180691200Y-99645200D01*
X168859000Y-116332000D02*
X168859000Y-111945100D01*
%TO.N,FLASH_CE*%
X184585900Y-71256100D02*
X184585900Y-55223300D01*
X184585900Y-55223300D02*
X186940000Y-52869200D01*
X183961200Y-71880800D02*
X184585900Y-71256100D01*
X183228500Y-71880800D02*
X183961200Y-71880800D01*
X182422000Y-71074300D02*
X183228500Y-71880800D01*
%TO.N,FLASH_OE*%
X186940000Y-47789200D02*
X183627000Y-51102200D01*
X183627000Y-51102200D02*
X183627000Y-71074300D01*
%TO.N,FLASH_WE*%
X176635500Y-45393700D02*
X176635500Y-78121800D01*
X186940000Y-35089200D02*
X176635500Y-45393700D01*
%TO.N,FLASH_WIN*%
X129771500Y-100860500D02*
X129771500Y-113946900D01*
X129771500Y-113946900D02*
X129006100Y-114712300D01*
X148844000Y-81788000D02*
X129771500Y-100860500D01*
%TO.N,GND*%
X114300000Y-152781000D02*
X114300000Y-144780000D01*
X60325000Y-152781000D02*
X60325000Y-145034000D01*
X210058000Y-152781000D02*
X210058000Y-144780000D01*
%TO.N,JTAG_CHAIN*%
X201552800Y-84836000D02*
X200833700Y-85555100D01*
X205524200Y-82080200D02*
X205524200Y-83973900D01*
X205524200Y-83973900D02*
X204662100Y-84836000D01*
X204662100Y-84836000D02*
X201552800Y-84836000D01*
X204470000Y-81026000D02*
X205524200Y-82080200D01*
%TO.N,JTAG_TCK*%
X257400500Y-91731200D02*
X256571900Y-92559800D01*
X256286000Y-88646000D02*
X257400500Y-89760500D01*
X254021900Y-92559800D02*
X253886800Y-92694900D01*
X257400500Y-89760500D02*
X257400500Y-91731200D01*
X256571900Y-92559800D02*
X254021900Y-92559800D01*
%TO.N,JTAG_TDI*%
X256286000Y-93726000D02*
X259490500Y-90521500D01*
X119601700Y-83090300D02*
X119601700Y-85449100D01*
X120904000Y-81788000D02*
X119601700Y-83090300D01*
X259490500Y-90521500D02*
X259490500Y-89947700D01*
%TO.N,JTAG_TDO*%
X233680000Y-84836000D02*
X232410000Y-83566000D01*
X244856000Y-84836000D02*
X233680000Y-84836000D01*
X256286000Y-96266000D02*
X244856000Y-84836000D01*
%TO.N,LA0*%
X199983300Y-92328800D02*
X198382300Y-93929800D01*
X199983300Y-91564300D02*
X199983300Y-92328800D01*
X204375900Y-91091900D02*
X200455700Y-91091900D01*
X204470000Y-91186000D02*
X204375900Y-91091900D01*
X200455700Y-91091900D02*
X199983300Y-91564300D01*
%TO.N,MAX_C2M*%
X233065000Y-56388000D02*
X224947100Y-56388000D01*
X221137100Y-52578000D02*
X221112000Y-52578000D01*
X224947100Y-56388000D02*
X221137100Y-52578000D01*
X234315000Y-57638000D02*
X233065000Y-56388000D01*
%TO.N,MAX_C2P*%
X233025000Y-53848000D02*
X224922000Y-53848000D01*
X224922000Y-53848000D02*
X221112000Y-50038000D01*
X234315000Y-55138000D02*
X233025000Y-53848000D01*
%TO.N,MAX_RS232_RX*%
X230273200Y-48496800D02*
X230273200Y-33931200D01*
X230273200Y-33931200D02*
X229362000Y-33020000D01*
X228732000Y-50038000D02*
X230273200Y-48496800D01*
%TO.N,MAX_RS232_TX*%
X229865100Y-41458200D02*
X229865100Y-46364900D01*
X229865100Y-46364900D02*
X228732000Y-47498000D01*
X229072900Y-31636500D02*
X228171400Y-32538000D01*
X228171400Y-32538000D02*
X228171400Y-39764500D01*
X229362000Y-30480000D02*
X229362000Y-31636500D01*
X229362000Y-31636500D02*
X229072900Y-31636500D01*
X228171400Y-39764500D02*
X229865100Y-41458200D01*
%TO.N,MAX_VM*%
X216916000Y-57404000D02*
X218826000Y-57404000D01*
X218826000Y-57404000D02*
X221112000Y-55118000D01*
%TO.N,MEM_CE0*%
X124714000Y-77978000D02*
X124714000Y-73540500D01*
X115441300Y-52869200D02*
X114940000Y-52869200D01*
X125984000Y-79248000D02*
X124714000Y-77978000D01*
X124714000Y-73540500D02*
X122171600Y-70998100D01*
X122171600Y-59599500D02*
X115441300Y-52869200D01*
X122171600Y-70998100D02*
X122171600Y-59599500D01*
%TO.N,MEM_CE1*%
X133661300Y-80689700D02*
X129965700Y-80689700D01*
X131670700Y-72671700D02*
X134675400Y-75676400D01*
X129965700Y-80689700D02*
X128524000Y-79248000D01*
X134675400Y-75676400D02*
X134675400Y-79675600D01*
X134675400Y-79675600D02*
X133661300Y-80689700D01*
X131670700Y-56658800D02*
X131670700Y-72671700D01*
X134746000Y-53583500D02*
X131670700Y-56658800D01*
%TO.N,MEM_OE*%
X130266700Y-47789200D02*
X130266700Y-75910700D01*
X130266700Y-75910700D02*
X131064000Y-76708000D01*
%TO.N,MEM_WE_H*%
X124233200Y-43979200D02*
X134234500Y-33977900D01*
X116375000Y-39950100D02*
X116375000Y-36524200D01*
X129686000Y-73697000D02*
X122579700Y-66590700D01*
X122579700Y-59430400D02*
X122185400Y-59036100D01*
X161911000Y-34062300D02*
X162076000Y-34227300D01*
X132584000Y-80268000D02*
X130613200Y-80268000D01*
X121818700Y-45393700D02*
X116375000Y-39950100D01*
X162076000Y-34227300D02*
X162078100Y-34227300D01*
X116375000Y-36524200D02*
X114940000Y-35089200D01*
X122185400Y-45851800D02*
X121818600Y-45485000D01*
X121818700Y-45393700D02*
X123233200Y-43979200D01*
X123233200Y-43979200D02*
X124233200Y-43979200D01*
X161781900Y-33977900D02*
X161866300Y-34062300D01*
X121818600Y-45393800D02*
X121818700Y-45393700D01*
X134234500Y-33977900D02*
X161781900Y-33977900D01*
X130613200Y-80268000D02*
X129686000Y-79340800D01*
X122579700Y-66590700D02*
X122579700Y-59430400D01*
X162078100Y-34227300D02*
X162940000Y-35089200D01*
X161866300Y-34062300D02*
X161911000Y-34062300D01*
X121818600Y-45485000D02*
X121818600Y-45393800D01*
X133604000Y-79248000D02*
X132584000Y-80268000D01*
X122185400Y-59036100D02*
X122185400Y-45851800D01*
X129686000Y-79340800D02*
X129686000Y-73697000D01*
%TO.N,MEM_WE_L*%
X138940000Y-35089200D02*
X131262600Y-42766600D01*
X132097600Y-78214400D02*
X131064000Y-79248000D01*
X131262600Y-42766600D02*
X131262600Y-72840900D01*
X132097600Y-73675900D02*
X132097600Y-78214400D01*
X131262600Y-72840900D02*
X132097600Y-73675900D01*
%TO.N,MST_RD*%
X181565400Y-100951200D02*
X190880000Y-91636600D01*
X204470000Y-78558300D02*
X204470000Y-78486000D01*
X190880000Y-91636600D02*
X191391700Y-91636600D01*
X181565400Y-103839700D02*
X181565400Y-100951200D01*
X191391700Y-91636600D02*
X204470000Y-78558300D01*
%TO.N,MST_WR*%
X194853100Y-82139700D02*
X171233400Y-105759400D01*
X194853100Y-82139100D02*
X194853100Y-82139700D01*
%TO.N,NC*%
X228732000Y-57658000D02*
X228732000Y-60198000D01*
X221112000Y-60198000D02*
X221112000Y-57658000D01*
%TO.N,S100_A0*%
X142875000Y-148082000D02*
X144272000Y-146685000D01*
X147899200Y-143057800D02*
X147899200Y-137892900D01*
X142875000Y-152781000D02*
X142875000Y-148082000D01*
X144272000Y-146685000D02*
X147899200Y-143057800D01*
%TO.N,S100_A1*%
X148875900Y-138647000D02*
X150006000Y-137516900D01*
X148875900Y-145256100D02*
X148875900Y-138647000D01*
X146050000Y-148082000D02*
X147447000Y-146685000D01*
X150006000Y-137516900D02*
X150006000Y-136652000D01*
X146050000Y-152781000D02*
X146050000Y-148082000D01*
X147447000Y-146685000D02*
X148875900Y-145256100D01*
%TO.N,S100_A10*%
X164677000Y-143094900D02*
X168267100Y-146685000D01*
X163242000Y-134112000D02*
X164677000Y-135547000D01*
X164677000Y-135547000D02*
X164677000Y-143094900D01*
X168267100Y-146685000D02*
X168275000Y-146685000D01*
%TO.N,S100_A11*%
X168275000Y-152781000D02*
X168275000Y-148082000D01*
X166294000Y-134624000D02*
X166294000Y-144134700D01*
X166766400Y-144607100D02*
X167594100Y-144607100D01*
X163242000Y-131572000D02*
X166294000Y-134624000D01*
X167594100Y-144607100D02*
X169672000Y-146685000D01*
X166294000Y-144134700D02*
X166766400Y-144607100D01*
X168275000Y-148082000D02*
X169672000Y-146685000D01*
%TO.N,S100_A12*%
X159909200Y-142350800D02*
X159909200Y-132364800D01*
X155575000Y-146685000D02*
X159909200Y-142350800D01*
X159909200Y-132364800D02*
X163242000Y-129032000D01*
%TO.N,S100_A13*%
X167100500Y-143800600D02*
X167100500Y-127666900D01*
X161925000Y-152781000D02*
X161925000Y-148209000D01*
X167100500Y-127666900D02*
X165925600Y-126492000D01*
X161925000Y-148209000D02*
X163449000Y-146685000D01*
%TO.N,S100_A14*%
X162085000Y-141573000D02*
X162085000Y-131163000D01*
X163613000Y-130262000D02*
X164359000Y-129515000D01*
X164257000Y-143744000D02*
X162085000Y-141573000D01*
X165100000Y-152781000D02*
X165100000Y-148082000D01*
X162987000Y-130262000D02*
X163613000Y-130262000D01*
X164359000Y-125069000D02*
X163242000Y-123952000D01*
X164359000Y-129515000D02*
X164359000Y-125069000D01*
X165100000Y-148082000D02*
X166497000Y-146685000D01*
X165100000Y-148082000D02*
X164257000Y-147239000D01*
X162085000Y-131163000D02*
X162987000Y-130262000D01*
X164257000Y-147239000D02*
X164257000Y-143744000D01*
%TO.N,S100_A15*%
X152400000Y-146685000D02*
X152400000Y-125458600D01*
X152400000Y-125458600D02*
X152636600Y-125222000D01*
%TO.N,S100_A16*%
X97061200Y-142146200D02*
X101600000Y-146685000D01*
X97061200Y-139192000D02*
X97061200Y-142146200D01*
%TO.N,S100_A17*%
X104775000Y-144365800D02*
X104775000Y-146558000D01*
X97061200Y-136652000D02*
X104775000Y-144365800D01*
%TO.N,S100_A18*%
X99003400Y-139569400D02*
X99003400Y-142945600D01*
X95931000Y-135242200D02*
X95931000Y-137093100D01*
X97061200Y-134112000D02*
X95931000Y-135242200D01*
X95931000Y-137093100D02*
X96759900Y-137922000D01*
X96759900Y-137922000D02*
X97356000Y-137922000D01*
X97356000Y-137922000D02*
X99003400Y-139569400D01*
%TO.N,S100_A19*%
X94513600Y-134119600D02*
X94513600Y-139929600D01*
X94513600Y-139929600D02*
X89762300Y-144680900D01*
X97061200Y-131572000D02*
X94513600Y-134119600D01*
X79375000Y-152781000D02*
X79375000Y-146685000D01*
%TO.N,S100_A2*%
X151563400Y-135669400D02*
X150006000Y-134112000D01*
X151563400Y-140415200D02*
X151563400Y-135669400D01*
X149225000Y-148082000D02*
X150622000Y-146685000D01*
X149225000Y-152781000D02*
X149225000Y-148082000D01*
X150622000Y-141356600D02*
X151563400Y-140415200D01*
X150622000Y-146685000D02*
X150622000Y-141356600D01*
%TO.N,S100_A20*%
X93526900Y-138883100D02*
X85725000Y-146685000D01*
X93526900Y-132566300D02*
X93526900Y-138883100D01*
X97061200Y-129032000D02*
X93526900Y-132566300D01*
X85725000Y-152781000D02*
X85725000Y-146685000D01*
%TO.N,S100_A21*%
X88900000Y-152781000D02*
X88900000Y-148082000D01*
X94105500Y-139197100D02*
X88953700Y-144348900D01*
X97061200Y-127447200D02*
X98211500Y-128597500D01*
X98211500Y-129511500D02*
X97564900Y-130158100D01*
X97564900Y-130158100D02*
X96906000Y-130158100D01*
X94105500Y-132958600D02*
X94105500Y-139197100D01*
X88900000Y-148082000D02*
X90297000Y-146685000D01*
X97061200Y-126492000D02*
X97061200Y-127447200D01*
X98211500Y-128597500D02*
X98211500Y-129511500D01*
X88953700Y-145341700D02*
X90297000Y-146685000D01*
X88953700Y-144348900D02*
X88953700Y-145341700D01*
X96906000Y-130158100D02*
X94105500Y-132958600D01*
%TO.N,S100_A22*%
X95328300Y-134261500D02*
X96891700Y-132698100D01*
X99222100Y-131033300D02*
X99222100Y-126112900D01*
X99222100Y-126112900D02*
X97061200Y-123952000D01*
X92075000Y-152781000D02*
X92075000Y-146685000D01*
X95328300Y-143431700D02*
X95328300Y-134261500D01*
X96891700Y-132698100D02*
X97557300Y-132698100D01*
X92075000Y-146685000D02*
X95328300Y-143431700D01*
X97557300Y-132698100D02*
X99222100Y-131033300D01*
%TO.N,S100_A23*%
X104983600Y-147513000D02*
X105593500Y-146903100D01*
X100599500Y-124950300D02*
X97061200Y-121412000D01*
X96478000Y-146685000D02*
X97306000Y-147513000D01*
X95250000Y-147913000D02*
X95250000Y-152781000D01*
X100599500Y-138679200D02*
X100599500Y-124950300D01*
X97306000Y-147513000D02*
X104983600Y-147513000D01*
X105593500Y-146903100D02*
X105593500Y-143673200D01*
X96478000Y-146685000D02*
X95250000Y-147913000D01*
X105593500Y-143673200D02*
X100599500Y-138679200D01*
%TO.N,S100_A3*%
X148866500Y-132711500D02*
X150006000Y-131572000D01*
X150275500Y-135355300D02*
X149636800Y-135355300D01*
X149636800Y-135355300D02*
X148866500Y-134585000D01*
X149617800Y-146292200D02*
X149617800Y-141783600D01*
X151155300Y-136235100D02*
X150275500Y-135355300D01*
X149617800Y-141783600D02*
X151155300Y-140246100D01*
X148866500Y-134585000D02*
X148866500Y-132711500D01*
X151155300Y-140246100D02*
X151155300Y-136235100D01*
X149225000Y-146685000D02*
X149617800Y-146292200D01*
%TO.N,S100_A4*%
X148417300Y-144317700D02*
X146050000Y-146685000D01*
X148407600Y-135524300D02*
X148716100Y-135832800D01*
X148716100Y-135832800D02*
X148716100Y-138229600D01*
X148716100Y-138229600D02*
X148417300Y-138528400D01*
X148407600Y-130630400D02*
X148407600Y-135524300D01*
X148417300Y-138528400D02*
X148417300Y-144317700D01*
X150006000Y-129032000D02*
X148407600Y-130630400D01*
%TO.N,S100_A5*%
X146996800Y-142563200D02*
X142875000Y-146685000D01*
X150006000Y-126492000D02*
X146996800Y-129501200D01*
X146996800Y-129501200D02*
X146996800Y-142563200D01*
%TO.N,S100_A6*%
X152400000Y-147955000D02*
X153670000Y-146685000D01*
X152400000Y-147955000D02*
X151562000Y-147117000D01*
X151562000Y-147117000D02*
X151562000Y-140993800D01*
X151971500Y-125917500D02*
X150006000Y-123952000D01*
X152400000Y-152781000D02*
X152400000Y-147955000D01*
X151971500Y-140584300D02*
X151971500Y-125917500D01*
X151562000Y-140993800D02*
X151971500Y-140584300D01*
%TO.N,S100_A7*%
X154478000Y-136703000D02*
X153621000Y-135846000D01*
X155575000Y-152781000D02*
X155575000Y-148209000D01*
X153621000Y-125027000D02*
X150006000Y-121412000D01*
X153621000Y-135846000D02*
X153621000Y-125027000D01*
X155575000Y-148209000D02*
X157099000Y-146685000D01*
X154478000Y-147112000D02*
X154478000Y-136703000D01*
X155575000Y-148209000D02*
X154478000Y-147112000D01*
%TO.N,S100_A8*%
X158750000Y-152781000D02*
X158750000Y-148209000D01*
X158750000Y-148209000D02*
X160274000Y-146685000D01*
%TO.N,S100_A9*%
X160715800Y-144719200D02*
X160715800Y-136652000D01*
X158750000Y-146685000D02*
X160715800Y-144719200D01*
%TO.N,S100_ADSB*%
X124808200Y-105823800D02*
X125984000Y-104648000D01*
X120650000Y-108488300D02*
X123314500Y-105823800D01*
X120650000Y-146685000D02*
X120650000Y-108488300D01*
X123314500Y-105823800D02*
X124808200Y-105823800D01*
%TO.N,S100_A_OE*%
X149886000Y-90450000D02*
X148844000Y-89408000D01*
X150006000Y-118872000D02*
X153311100Y-115566900D01*
X149886000Y-105842900D02*
X149886000Y-90450000D01*
X153311100Y-115566900D02*
X153311100Y-109268000D01*
X153311100Y-109268000D02*
X149886000Y-105842900D01*
%TO.N,S100_CDSB*%
X118821700Y-138988300D02*
X118821700Y-113892300D01*
X111125000Y-146685000D02*
X118821700Y-138988300D01*
%TO.N,S100_C_OE*%
X140168000Y-115471900D02*
X136770000Y-118869900D01*
X136770000Y-118869900D02*
X136770000Y-118872000D01*
X148844000Y-86868000D02*
X140168000Y-95544000D01*
X140168000Y-95544000D02*
X140168000Y-115471900D01*
%TO.N,S100_DI0*%
X192711000Y-147245000D02*
X192711000Y-139192000D01*
X193675000Y-148209000D02*
X192711000Y-147245000D01*
X193675000Y-152781000D02*
X193675000Y-148209000D01*
X193675000Y-148209000D02*
X195199000Y-146685000D01*
%TO.N,S100_DI1*%
X190500000Y-152781000D02*
X190500000Y-148082000D01*
X190500000Y-148082000D02*
X191897000Y-146685000D01*
X191897000Y-138834000D02*
X191897000Y-146685000D01*
X189715000Y-136652000D02*
X191897000Y-138834000D01*
%TO.N,S100_DI2*%
X189715000Y-134112000D02*
X186309600Y-137517400D01*
X186309600Y-137517400D02*
X186309600Y-145416500D01*
%TO.N,S100_DI3*%
X189715000Y-131572000D02*
X184150000Y-137137000D01*
X184150000Y-137137000D02*
X184150000Y-146685000D01*
%TO.N,S100_DI4*%
X182372000Y-146685000D02*
X183618300Y-145438700D01*
X183618300Y-145438700D02*
X183618300Y-135168700D01*
X180975000Y-148082000D02*
X182372000Y-146685000D01*
X180975000Y-152781000D02*
X180975000Y-148082000D01*
X183618300Y-135168700D02*
X189715000Y-129072000D01*
X189715000Y-129072000D02*
X189715000Y-129032000D01*
%TO.N,S100_DI5*%
X185503100Y-146641100D02*
X185547000Y-146685000D01*
X185503100Y-136666900D02*
X185503100Y-146641100D01*
X189715000Y-126492000D02*
X190860800Y-127637800D01*
X189164500Y-133005500D02*
X185503100Y-136666900D01*
X184150000Y-152781000D02*
X184150000Y-148082000D01*
X189911800Y-133005500D02*
X189164500Y-133005500D01*
X190860800Y-132056500D02*
X189911800Y-133005500D01*
X184150000Y-148082000D02*
X185547000Y-146685000D01*
X190860800Y-127637800D02*
X190860800Y-132056500D01*
%TO.N,S100_DI6*%
X189715000Y-123952000D02*
X187222400Y-126444600D01*
X180957800Y-133641600D02*
X180957800Y-143665700D01*
X187325000Y-152781000D02*
X187325000Y-148082000D01*
X180957800Y-143665700D02*
X181653600Y-144361500D01*
X187222400Y-126444600D02*
X187222400Y-128064300D01*
X182444700Y-132842000D02*
X181757400Y-132842000D01*
X187222400Y-128064300D02*
X182444700Y-132842000D01*
X187325000Y-148082000D02*
X188722000Y-146685000D01*
X181757400Y-132842000D02*
X180957800Y-133641600D01*
%TO.N,S100_DI7*%
X189413600Y-135382000D02*
X192257800Y-135382000D01*
X195891800Y-132678500D02*
X196437500Y-132132800D01*
X192257800Y-135382000D02*
X194961300Y-132678500D01*
X187325000Y-146685000D02*
X187325000Y-137470600D01*
X196437500Y-132132800D02*
X196437500Y-128573700D01*
X194961300Y-132678500D02*
X195891800Y-132678500D01*
X196437500Y-128573700D02*
X195625800Y-127762000D01*
X187325000Y-137470600D02*
X189413600Y-135382000D01*
X192618100Y-125366700D02*
X192618100Y-121806700D01*
X195625800Y-127762000D02*
X195013400Y-127762000D01*
X195013400Y-127762000D02*
X192618100Y-125366700D01*
%TO.N,S100_DO2*%
X176479000Y-134112000D02*
X172847000Y-137744000D01*
X171450000Y-148082000D02*
X172847000Y-146685000D01*
X171450000Y-152781000D02*
X171450000Y-148082000D01*
X172847000Y-137744000D02*
X172847000Y-146685000D01*
%TO.N,S100_DO3*%
X174625000Y-152781000D02*
X174625000Y-148082000D01*
X173810200Y-147267200D02*
X174625000Y-148082000D01*
X173810200Y-143677000D02*
X173810200Y-147267200D01*
X177596800Y-132689800D02*
X177596800Y-139890400D01*
X176479000Y-131572000D02*
X177596800Y-132689800D01*
X177596800Y-139890400D02*
X173810200Y-143677000D01*
X174625000Y-148082000D02*
X176022000Y-146685000D01*
%TO.N,S100_DO4*%
X171450000Y-134061000D02*
X176479000Y-129032000D01*
X171450000Y-146685000D02*
X171450000Y-134061000D01*
%TO.N,S100_DO5*%
X178004900Y-143305100D02*
X178004900Y-128017900D01*
X174625000Y-146685000D02*
X178004900Y-143305100D01*
X178004900Y-128017900D02*
X176479000Y-126492000D01*
%TO.N,S100_DO6*%
X177800000Y-146685000D02*
X178413000Y-146072000D01*
X178413000Y-125886000D02*
X176479000Y-123952000D01*
X178413000Y-146072000D02*
X178413000Y-125886000D01*
%TO.N,S100_DO7*%
X176479000Y-121414100D02*
X179197000Y-124132100D01*
X177800000Y-152781000D02*
X177800000Y-148082000D01*
X176479000Y-121412000D02*
X176479000Y-121414100D01*
X179197000Y-124132100D02*
X179197000Y-146685000D01*
X177800000Y-148082000D02*
X179197000Y-146685000D01*
%TO.N,S100_DODSB*%
X130017500Y-142813600D02*
X132076800Y-140754300D01*
X172200700Y-106858200D02*
X182471300Y-96587600D01*
X142219200Y-119978500D02*
X142929000Y-119978500D01*
X137107200Y-130302000D02*
X138162400Y-129246800D01*
X142929000Y-119978500D02*
X150783300Y-112124200D01*
X136474000Y-130302000D02*
X137107200Y-130302000D01*
X130017500Y-143089500D02*
X130017500Y-142813600D01*
X138162400Y-124035300D02*
X142219200Y-119978500D01*
X150783300Y-112124200D02*
X150783300Y-108829700D01*
X138162400Y-129246800D02*
X138162400Y-124035300D01*
X132076800Y-140754300D02*
X132076800Y-134699200D01*
X132076800Y-134699200D02*
X136474000Y-130302000D01*
X172200700Y-107462700D02*
X172200700Y-106858200D01*
%TO.N,S100_HOLD*%
X127000000Y-152781000D02*
X127000000Y-147828000D01*
X125501900Y-109245900D02*
X125501900Y-144043900D01*
X127000000Y-147828000D02*
X128143000Y-146685000D01*
X125501900Y-144043900D02*
X128143000Y-146685000D01*
X123444000Y-107188000D02*
X125501900Y-109245900D01*
%TO.N,S100_INT*%
X137959000Y-119324300D02*
X137959000Y-118258100D01*
X131525000Y-125035700D02*
X136255200Y-120305500D01*
X136255200Y-120305500D02*
X136977800Y-120305500D01*
X142325000Y-102366800D02*
X144086000Y-100605800D01*
X136977800Y-120305500D02*
X137959000Y-119324300D01*
X131525000Y-140441400D02*
X131525000Y-125035700D01*
X128589300Y-144880900D02*
X128589300Y-143377100D01*
X123825000Y-152781000D02*
X123825000Y-148082000D01*
X142325000Y-113892100D02*
X142325000Y-102366800D01*
X123825000Y-148082000D02*
X125222000Y-146685000D01*
X128589300Y-143377100D02*
X131525000Y-140441400D01*
X137959000Y-118258100D02*
X142325000Y-113892100D01*
%TO.N,S100_NMI*%
X231393000Y-103970744D02*
X231393000Y-104392000D01*
X180213000Y-131561762D02*
X181636962Y-130137800D01*
X229784256Y-102362000D02*
X231393000Y-103970744D01*
X231904000Y-104903000D02*
X232831256Y-104903000D01*
X188122900Y-115763249D02*
X201524149Y-102362000D01*
X185128000Y-127562838D02*
X185128000Y-124625000D01*
X231393000Y-104392000D02*
X231904000Y-104903000D01*
X201524149Y-102362000D02*
X229784256Y-102362000D01*
X180213000Y-132842000D02*
X180213000Y-131561762D01*
X233933000Y-92203000D02*
X234950000Y-91186000D01*
X232831256Y-104903000D02*
X233933000Y-103801256D01*
X181636962Y-130137800D02*
X182553038Y-130137800D01*
X188122900Y-121630100D02*
X188122900Y-115763249D01*
X185128000Y-124625000D02*
X188122900Y-121630100D01*
X182553038Y-130137800D02*
X185128000Y-127562838D01*
X233933000Y-103801256D02*
X233933000Y-92203000D01*
%TO.N,S100_RESET*%
X130175000Y-152781000D02*
X130175000Y-147955000D01*
X130175000Y-147955000D02*
X131445000Y-146685000D01*
%TO.N,S100_SDSB*%
X112387400Y-114568800D02*
X107950000Y-119006200D01*
X107950000Y-119006200D02*
X107950000Y-146685000D01*
%TO.N,S100_SIXTN*%
X96763200Y-120142000D02*
X91389600Y-114768400D01*
X97390800Y-120142000D02*
X109974200Y-107558600D01*
X89739500Y-132842000D02*
X91747700Y-130833800D01*
X25273000Y-95392500D02*
X41222100Y-111341600D01*
X25273000Y-91948000D02*
X25273000Y-95392500D01*
X88301100Y-140933900D02*
X88301100Y-133615500D01*
X82550000Y-146685000D02*
X88301100Y-140933900D01*
X91389600Y-114768400D02*
X91389600Y-111070400D01*
X82550000Y-152781000D02*
X82550000Y-146685000D01*
X96763200Y-120142000D02*
X97390800Y-120142000D01*
X109974200Y-107558600D02*
X109974200Y-105314900D01*
X91747700Y-130833800D02*
X91747700Y-125157500D01*
X89074600Y-132842000D02*
X89739500Y-132842000D01*
X88301100Y-133615500D02*
X89074600Y-132842000D01*
X91747700Y-125157500D02*
X96763200Y-120142000D01*
%TO.N,S100_S_OE*%
X163944400Y-107541000D02*
X163944300Y-107541000D01*
X162977500Y-110980700D02*
X164500300Y-112503500D01*
X163944400Y-85958300D02*
X163944400Y-107541000D01*
X162977500Y-108507800D02*
X162977500Y-110980700D01*
X163944300Y-107541000D02*
X162977500Y-108507800D01*
%TO.N,S100_XRDY*%
X25019000Y-86986400D02*
X55997400Y-117964800D01*
X62103000Y-117964800D02*
X62103000Y-146685000D01*
X67576300Y-112491500D02*
X62103000Y-117964800D01*
X55997400Y-117964800D02*
X62103000Y-117964800D01*
X25019000Y-86360000D02*
X25019000Y-86986400D01*
%TO.N,S100_pDBIN*%
X139700000Y-152781000D02*
X139700000Y-148082000D01*
X139700000Y-148082000D02*
X141097000Y-146685000D01*
X136770000Y-134112000D02*
X141097000Y-138439000D01*
X141097000Y-138439000D02*
X141097000Y-146685000D01*
%TO.N,S100_pRDY*%
X49693500Y-105446500D02*
X49693500Y-110520300D01*
X120650000Y-152781000D02*
X120650000Y-148463000D01*
X25273000Y-81026000D02*
X49693500Y-105446500D01*
X119798600Y-110988200D02*
X119798600Y-108293400D01*
X120650000Y-148463000D02*
X122428000Y-146685000D01*
X119798600Y-108293400D02*
X123444000Y-104648000D01*
X120650000Y-148463000D02*
X119798600Y-147611600D01*
X119798600Y-147611600D02*
X119798600Y-110988200D01*
%TO.N,S100_pSTVAL*%
X130824000Y-146036000D02*
X130824000Y-142598000D01*
X130824000Y-142598000D02*
X136770000Y-136652000D01*
X130175000Y-146685000D02*
X130824000Y-146036000D01*
%TO.N,S100_pSYNC*%
X134747000Y-146685000D02*
X136770000Y-144662000D01*
X136770000Y-144662000D02*
X136770000Y-139192000D01*
X133350000Y-152781000D02*
X133350000Y-148082000D01*
X133350000Y-148082000D02*
X134747000Y-146685000D01*
%TO.N,S100_pWR*%
X137795000Y-146685000D02*
X137937800Y-146542200D01*
X136452400Y-135382000D02*
X135614300Y-134543900D01*
X136525000Y-147955000D02*
X137795000Y-146685000D01*
X135614300Y-132727700D02*
X136770000Y-131572000D01*
X137937800Y-136255000D02*
X137064800Y-135382000D01*
X137937800Y-146542200D02*
X137937800Y-136255000D01*
X136525000Y-152781000D02*
X136525000Y-147955000D01*
X137064800Y-135382000D02*
X136452400Y-135382000D01*
X135614300Y-134543900D02*
X135614300Y-132727700D01*
%TO.N,S100_sHLTA*%
X203200000Y-146685000D02*
X204499100Y-145385900D01*
X204499100Y-130049900D02*
X204089500Y-129640300D01*
X204089500Y-127630500D02*
X202951000Y-126492000D01*
X204089500Y-129640300D02*
X204089500Y-127630500D01*
X204499100Y-145385900D02*
X204499100Y-130049900D01*
%TO.N,S100_sINP*%
X199141000Y-144394000D02*
X196850000Y-146685000D01*
X199141000Y-137922000D02*
X199141000Y-144394000D01*
X202951000Y-134112000D02*
X199141000Y-137922000D01*
%TO.N,S100_sINTA*%
X199549100Y-145382900D02*
X198247000Y-146685000D01*
X204089500Y-130420500D02*
X204089500Y-134598300D01*
X202951000Y-129282000D02*
X204089500Y-130420500D01*
X202951000Y-129032000D02*
X202951000Y-129282000D01*
X196850000Y-152781000D02*
X196850000Y-148082000D01*
X199549100Y-138489000D02*
X199549100Y-145382900D01*
X204089500Y-134598300D02*
X203142300Y-135545500D01*
X202492600Y-135545500D02*
X199549100Y-138489000D01*
X196850000Y-148082000D02*
X198247000Y-146685000D01*
X203142300Y-135545500D02*
X202492600Y-135545500D01*
%TO.N,S100_sMEMR*%
X200025000Y-146685000D02*
X200025000Y-142118000D01*
X200025000Y-142118000D02*
X202951000Y-139192000D01*
%TO.N,S100_sOUT*%
X198732900Y-135790100D02*
X198732900Y-141627100D01*
X198732900Y-141627100D02*
X193675000Y-146685000D01*
X202951000Y-131572000D02*
X198732900Y-135790100D01*
%TO.N,S100_sWO*%
X200025000Y-148082000D02*
X201422000Y-146685000D01*
X202951000Y-136652000D02*
X204073500Y-137774500D01*
X204073500Y-144033500D02*
X201422000Y-146685000D01*
X204073500Y-137774500D02*
X204073500Y-144033500D01*
X200025000Y-152781000D02*
X200025000Y-148082000D01*
%TO.N,S100_sXTRQ*%
X76200000Y-152781000D02*
X76200000Y-146685000D01*
%TO.N,SLAVE*%
X57764500Y-67505100D02*
X58908200Y-67505100D01*
X145327300Y-71724700D02*
X156400200Y-82797600D01*
X56479300Y-66219900D02*
X57764500Y-67505100D01*
X49349700Y-52502900D02*
X49349700Y-53412400D01*
X56479300Y-65350500D02*
X56479300Y-66219900D01*
X52769000Y-56198300D02*
X56055500Y-59484800D01*
X50329800Y-54392500D02*
X50939100Y-54392500D01*
X51611100Y-43933800D02*
X51611100Y-50850400D01*
X50609000Y-51852500D02*
X50000100Y-51852500D01*
X56055500Y-64926700D02*
X56479300Y-65350500D01*
X49349700Y-53412400D02*
X50329800Y-54392500D01*
X50000100Y-51852500D02*
X49349700Y-52502900D01*
X156400200Y-89442000D02*
X156318300Y-89523900D01*
X50476300Y-42799000D02*
X51611100Y-43933800D01*
X51611100Y-50850400D02*
X50609000Y-51852500D01*
X155428900Y-90413300D02*
X155428900Y-94841800D01*
X52021800Y-55725900D02*
X52494200Y-56198300D01*
X52494200Y-56198300D02*
X52769000Y-56198300D01*
X156318300Y-89523900D02*
X155428900Y-90413300D01*
X151384000Y-98886700D02*
X151384000Y-99568000D01*
X56055500Y-59484800D02*
X56055500Y-64926700D01*
X156400200Y-82797600D02*
X156400200Y-89442000D01*
X52021800Y-55475200D02*
X52021800Y-55725900D01*
X50939100Y-54392500D02*
X52021800Y-55475200D01*
X132885300Y-72167100D02*
X133327700Y-71724700D01*
X58908200Y-67505100D02*
X60528600Y-69125500D01*
X155428900Y-94841800D02*
X151384000Y-98886700D01*
X133327700Y-71724700D02*
X145327300Y-71724700D01*
%TO.N,SLAVE_ONLY*%
X233680000Y-78685500D02*
X232609500Y-79756000D01*
X232609500Y-79756000D02*
X232238300Y-79756000D01*
X250000000Y-51308000D02*
X246380000Y-51308000D01*
X246380000Y-51308000D02*
X233680000Y-64008000D01*
X228733900Y-83260400D02*
X228733900Y-89347700D01*
X233680000Y-64008000D02*
X233680000Y-78685500D01*
X232238300Y-79756000D02*
X228733900Y-83260400D01*
%TO.N,SLAVE_WIN*%
X126308400Y-118872000D02*
X127511600Y-117668800D01*
X132334000Y-99370700D02*
X148646700Y-83058000D01*
X150114000Y-81969900D02*
X150114000Y-80518000D01*
X129738700Y-117668800D02*
X132334000Y-115073500D01*
X148646700Y-83058000D02*
X149025900Y-83058000D01*
X150114000Y-80518000D02*
X151384000Y-79248000D01*
X149025900Y-83058000D02*
X150114000Y-81969900D01*
X127511600Y-117668800D02*
X129738700Y-117668800D01*
X132334000Y-115073500D02*
X132334000Y-99370700D01*
%TO.N,SLV_RD*%
X198525000Y-92646500D02*
X192717400Y-98454100D01*
X192717400Y-98454100D02*
X192717400Y-98838600D01*
X200823200Y-84396100D02*
X198525000Y-86694300D01*
X198525000Y-86694300D02*
X198525000Y-92646500D01*
X203639900Y-84396100D02*
X200823200Y-84396100D01*
X204470000Y-83566000D02*
X203639900Y-84396100D01*
%TO.N,SLV_WR*%
X189722700Y-97394100D02*
X192314500Y-94802300D01*
X192314500Y-94802300D02*
X192314500Y-92272900D01*
X192314500Y-92272900D02*
X201616700Y-82970700D01*
%TO.N,SPLIT*%
X147783600Y-95967600D02*
X147783600Y-90856600D01*
X147783600Y-90856600D02*
X148035500Y-90604700D01*
X148844000Y-97028000D02*
X147783600Y-95967600D01*
%TO.N,SRAM_WIN*%
X110297000Y-123952000D02*
X113193900Y-121055100D01*
X113193900Y-103215600D02*
X120651500Y-95758000D01*
X125467300Y-93218000D02*
X135389200Y-83296100D01*
X122426300Y-94478500D02*
X122426300Y-94018400D01*
X121146800Y-95758000D02*
X122426300Y-94478500D01*
X123226700Y-93218000D02*
X125467300Y-93218000D01*
X120651500Y-95758000D02*
X121146800Y-95758000D01*
X113193900Y-121055100D02*
X113193900Y-103215600D01*
X122426300Y-94018400D02*
X123226700Y-93218000D01*
%TO.N,XFR16*%
X155593600Y-86361600D02*
X155020800Y-86934400D01*
X155020800Y-86934400D02*
X155020800Y-93391200D01*
X155020800Y-93391200D02*
X151384000Y-97028000D01*
%TO.N,XTALO*%
X84855100Y-97555100D02*
X84855100Y-93913800D01*
X86360000Y-99060000D02*
X84855100Y-97555100D01*
%TO.N,Z_AS*%
X151601000Y-88113500D02*
X151207000Y-88113500D01*
X98695600Y-99434300D02*
X115300500Y-82829400D01*
X154607400Y-103831000D02*
X154607400Y-104656600D01*
X151207000Y-88113500D02*
X150318100Y-89002400D01*
X149762700Y-85576100D02*
X151584600Y-85576100D01*
X150318100Y-89002400D02*
X150318100Y-100035900D01*
X152443700Y-86435200D02*
X152443700Y-87270800D01*
X152443700Y-87270800D02*
X151601000Y-88113500D01*
X151614400Y-100838000D02*
X154607400Y-103831000D01*
X150318100Y-100035900D02*
X151120200Y-100838000D01*
X151120200Y-100838000D02*
X151614400Y-100838000D01*
X151584600Y-85576100D02*
X152443700Y-86435200D01*
X98695600Y-108123000D02*
X98695600Y-99434300D01*
%TO.N,Z_BUSACK*%
X127254000Y-97965700D02*
X123776300Y-94488000D01*
X89441200Y-116332000D02*
X89441200Y-114194800D01*
X123776300Y-94488000D02*
X123444000Y-94488000D01*
X127254000Y-113061700D02*
X127254000Y-97965700D01*
X127254000Y-114436000D02*
X129150000Y-116332000D01*
X127254000Y-113061700D02*
X127254000Y-114436000D01*
X89441200Y-114194800D02*
X84525400Y-109279000D01*
%TO.N,Z_CLK*%
X88589200Y-97887000D02*
X89023400Y-97887000D01*
X87630000Y-100330000D02*
X87630000Y-98846200D01*
X89023400Y-97887000D02*
X90423800Y-96486600D01*
X86360000Y-101600000D02*
X87630000Y-100330000D01*
X90423800Y-96486600D02*
X90423800Y-90483000D01*
X87630000Y-98846200D02*
X88589200Y-97887000D01*
X138684000Y-76708000D02*
X137255400Y-78136600D01*
X90423800Y-90483000D02*
X102770200Y-78136600D01*
%TO.N,Z_DS*%
X214352500Y-85828500D02*
X214352500Y-84743700D01*
X120999700Y-85754800D02*
X120443700Y-85754800D01*
X123444000Y-81788000D02*
X122019700Y-83212300D01*
X122019700Y-83212300D02*
X122019700Y-84734800D01*
X120443700Y-85754800D02*
X114780200Y-91418300D01*
X112494200Y-99504900D02*
X112494200Y-100328400D01*
X232410000Y-103886000D02*
X214352500Y-85828500D01*
X122019700Y-84734800D02*
X120999700Y-85754800D01*
X114780200Y-91418300D02*
X114780200Y-97218900D01*
X114780200Y-97218900D02*
X112494200Y-99504900D01*
%TO.N,Z_IE*%
X117358900Y-90942900D02*
X117358900Y-90880700D01*
X120904000Y-94488000D02*
X117358900Y-90942900D01*
%TO.N,Z_RXD*%
X223011500Y-55593100D02*
X223011500Y-70488500D01*
X138456000Y-72531200D02*
X135126300Y-75860900D01*
X135126300Y-75860900D02*
X135126300Y-79804400D01*
X123025800Y-88362700D02*
X122019700Y-89368800D01*
X116219300Y-96920400D02*
X114079700Y-99060000D01*
X118234100Y-90427500D02*
X117878600Y-90072000D01*
X135126300Y-79804400D02*
X126568000Y-88362700D01*
X117026900Y-90072000D02*
X116219300Y-90879600D01*
X121397300Y-90427500D02*
X118234100Y-90427500D01*
X122019700Y-89805100D02*
X121397300Y-90427500D01*
X126568000Y-88362700D02*
X123025800Y-88362700D01*
X122019700Y-89368800D02*
X122019700Y-89805100D01*
X223011500Y-70488500D02*
X222637000Y-70863000D01*
X117878600Y-90072000D02*
X117026900Y-90072000D01*
X116219300Y-90879600D02*
X116219300Y-96920400D01*
%TO.N,Z_TXD*%
X179577400Y-86889400D02*
X170911200Y-95555600D01*
X179577400Y-60538100D02*
X179577400Y-86889400D01*
%TO.N,Z_WAIT*%
X115470100Y-105001900D02*
X115470100Y-109696400D01*
X120904000Y-99568000D02*
X115470100Y-105001900D01*
%TD*%
M02*
